<?xml version="1.0" encoding="UTF-8" standalone="no"?>
<svg xmlns:ffdec="https://www.free-decompiler.com/flash" xmlns:xlink="http://www.w3.org/1999/xlink" ffdec:objectType="frame" height="300.0px" width="135.0px" xmlns="http://www.w3.org/2000/svg">
  <g transform="matrix(1.0, 0.0, 0.0, 1.0, 67.5, 150.0)">
    <use ffdec:characterId="4" height="300.0" transform="matrix(1.0, 0.0, 0.0, 1.0, -67.5, -150.0)" width="135.0" xlink:href="#shape0"/>
  </g>
  <defs>
    <g id="shape0" transform="matrix(1.0, 0.0, 0.0, 1.0, 67.5, 150.0)">
      <path d="M22.05 -150.0 L67.5 -150.0 67.5 -136.3 66.6 -138.05 22.05 -150.0 M67.5 -108.9 L67.5 -102.05 58.5 -96.55 45.2 -46.95 58.1 -23.0 67.5 -27.85 67.5 150.0 -67.5 150.0 -67.5 51.15 -28.7 26.35 -17.5 -15.45 -25.7 -17.65 -67.5 9.1 -67.5 -150.0 7.55 -150.0 -9.4 -139.15 2.2 -116.8 56.95 -102.15 67.5 -108.9 M24.1 -4.3 L12.9 37.5 39.2 88.15 47.05 90.25 58.3 48.1 32.3 -2.1 24.1 -4.3 M41.0 -42.45 L-13.8 -57.15 -35.0 -43.55 -23.4 -21.2 31.35 -6.55 52.55 -20.15 41.0 -42.45 M-36.75 -124.75 L-51.45 -69.95 -37.9 -48.75 -14.9 -62.65 -1.65 -112.2 -14.5 -136.3 -36.75 -124.75" fill="#e10820" fill-rule="evenodd" stroke="none"/>
      <path d="M7.55 -150.0 L22.05 -150.0 66.6 -138.05 67.5 -136.3 67.5 -108.9 56.95 -102.15 2.2 -116.8 -9.4 -139.15 7.55 -150.0 M67.5 -102.05 L67.5 -27.85 58.1 -23.0 45.2 -46.95 58.5 -96.55 67.5 -102.05 M-67.5 51.15 L-67.5 9.1 -25.7 -17.65 -17.5 -15.45 -28.7 26.35 -67.5 51.15 M-36.75 -124.75 L-14.5 -136.3 -1.65 -112.2 -14.9 -62.65 -37.9 -48.75 -51.45 -69.95 -36.75 -124.75 M41.0 -42.45 L52.55 -20.15 31.35 -6.55 -23.4 -21.2 -35.0 -43.55 -13.8 -57.15 41.0 -42.45 M24.1 -4.3 L32.3 -2.1 58.3 48.1 47.05 90.25 39.2 88.15 12.9 37.5 24.1 -4.3" fill="#ff9c04" fill-rule="evenodd" stroke="none"/>
      <path d="M56.45 10.7 Q56.45 9.2 55.0 8.8 53.85 8.5 53.15 9.3 52.65 9.85 52.3 11.15 L51.5 14.3 55.35 15.35 56.25 12.0 56.45 10.7 M51.4 10.6 Q51.9 8.8 52.7 8.05 53.15 7.55 53.95 7.4 L55.35 7.45 Q58.3 8.25 57.45 11.75 L56.4 15.6 61.45 16.95 61.1 18.3 50.15 15.35 51.4 10.6 M58.9 4.6 L55.35 4.35 Q53.65 4.6 52.15 5.45 50.65 6.35 49.55 7.7 48.45 9.15 48.0 10.9 47.5 12.65 47.75 14.4 48.0 16.15 48.85 17.65 49.75 19.15 51.1 20.25 52.55 21.35 54.3 21.8 L56.05 22.1 57.85 22.05 Q59.55 21.8 61.1 20.95 62.6 20.05 63.65 18.7 64.75 17.25 65.25 15.5 65.7 13.75 65.45 11.95 65.2 10.25 64.35 8.75 63.45 7.25 62.1 6.15 60.65 5.05 58.9 4.6 M55.2 3.15 L59.2 3.4 Q61.2 3.95 62.85 5.2 64.4 6.4 65.4 8.1 66.4 9.85 66.7 11.8 66.95 13.8 66.45 15.8 65.9 17.8 64.65 19.45 63.4 21.0 61.7 22.0 59.95 23.0 58.0 23.25 L56.0 23.35 53.95 23.0 Q51.95 22.5 50.35 21.25 48.8 20.0 47.8 18.3 46.8 16.55 46.55 14.6 46.25 12.55 46.8 10.55 47.35 8.55 48.6 6.95 49.8 5.4 51.55 4.4 53.25 3.4 55.2 3.15" fill="#ff9c04" fill-rule="evenodd" stroke="none"/>
    </g>
  </defs>
</svg>
