<?xml version="1.0" encoding="UTF-8" standalone="no"?>
<svg xmlns:ffdec="https://www.free-decompiler.com/flash" xmlns:xlink="http://www.w3.org/1999/xlink" ffdec:objectType="frame" height="300.0px" width="135.0px" xmlns="http://www.w3.org/2000/svg">
  <g transform="matrix(1.0, 0.0, 0.0, 1.0, 67.5, 150.0)">
    <use ffdec:characterId="6" height="300.0" transform="matrix(1.0, 0.0, 0.0, 1.0, -67.5, -150.0)" width="135.0" xlink:href="#shape0"/>
  </g>
  <defs>
    <g id="shape0" transform="matrix(1.0, 0.0, 0.0, 1.0, 67.5, 150.0)">
      <path d="M44.95 -150.0 L67.5 -150.0 67.5 -40.4 59.8 -61.55 -67.5 -15.2 -67.5 -56.9 -55.95 -25.2 42.35 -60.95 23.6 -112.45 -67.5 -79.3 -67.5 -84.5 26.95 -118.9 38.9 -86.25 64.75 -95.65 44.95 -150.0 M67.5 59.15 L67.5 150.0 -67.5 150.0 -67.5 -8.35 -41.9 62.05 -19.85 54.05 -55.25 84.8 -31.55 112.1 28.2 60.15 12.65 42.2 33.15 34.75 32.7 58.5 67.5 59.15 M-67.5 -130.4 L-67.5 -150.0 -40.7 -150.0 -58.0 -143.75 -49.0 -118.95 -67.5 -130.4 M-31.45 -150.0 L-16.4 -150.0 -23.55 -128.25 -31.45 -150.0 M8.55 -150.0 L36.6 -150.0 4.9 -138.6 8.55 -150.0 M8.75 -75.3 L-39.4 -57.75 -41.1 -62.4 7.05 -79.9 8.75 -75.3 M33.9 -6.2 L-14.3 11.35 -15.95 6.7 32.2 -10.85 33.9 -6.2 M29.35 -18.7 L-18.85 -1.15 -20.5 -5.8 27.65 -23.3 29.35 -18.7 M38.45 6.3 L-9.75 23.8 -11.4 19.2 36.75 1.65 38.45 6.3" fill="#ffffff" fill-rule="evenodd" stroke="none"/>
      <path d="M67.5 -40.4 L67.5 59.15 32.7 58.5 33.15 34.75 12.65 42.2 28.2 60.15 -31.55 112.1 -55.25 84.8 -19.85 54.05 -41.9 62.05 -67.5 -8.35 -67.5 -15.2 59.8 -61.55 67.5 -40.4 M-67.5 -56.9 L-67.5 -79.3 23.6 -112.45 42.35 -60.95 -55.95 -25.2 -67.5 -56.9 M-67.5 -84.5 L-67.5 -130.4 -49.0 -118.95 -58.0 -143.75 -40.7 -150.0 -31.45 -150.0 -23.55 -128.25 -16.4 -150.0 8.55 -150.0 4.9 -138.6 36.6 -150.0 44.95 -150.0 64.75 -95.65 38.9 -86.25 26.95 -118.9 -67.5 -84.5 M29.35 -18.7 L27.65 -23.3 -20.5 -5.8 -18.85 -1.15 29.35 -18.7 M33.9 -6.2 L32.2 -10.85 -15.95 6.7 -14.3 11.35 33.9 -6.2 M8.75 -75.3 L7.05 -79.9 -41.1 -62.4 -39.4 -57.75 8.75 -75.3 M38.45 6.3 L36.75 1.65 -11.4 19.2 -9.75 23.8 38.45 6.3" fill="#a61723" fill-rule="evenodd" stroke="none"/>
    </g>
  </defs>
</svg>
