<svg width="135" height="300" viewBox="0 0 135 300" fill="none" xmlns="http://www.w3.org/2000/svg">
<g clip-path="url(#clip0_1_70)">
<path fill-rule="evenodd" clip-rule="evenodd" d="M135 57.05C131.6 53.5167 127.667 50.75 123.2 48.75C118.3 46.5167 113.117 45.4 107.65 45.4H64.9C59.4667 45.4 54.2833 46.5167 49.35 48.75C44.6167 50.8833 40.4833 53.8833 36.95 57.75L25.4 48.75L34.5 37.1L22.6 27.8L13.5 39.45L0.25 29.1L0 29.45V0H135V57.05ZM0 48.1L4.2 51.35L0 56.75V48.1ZM0 69.4L5.75 73.9L16.1 60.65L29.1 70.8C27.6667 74.8667 26.95 79.0667 26.95 83.4C26.95 88.5667 27.95 93.5 29.95 98.2C31.85 102.733 34.55 106.75 38.05 110.25C41.55 113.75 45.5833 116.467 50.15 118.4C54.85 120.4 59.7667 121.4 64.9 121.4H107.65C112.817 121.4 117.75 120.4 122.45 118.4C126.983 116.467 131 113.75 134.5 110.25L135 109.75V131.75C133.467 130.683 131.833 129.783 130.1 129.05C126.833 127.65 123.4 126.95 119.8 126.95H36.65V153.5H55.8L36.8 186.5H70.05L89.05 153.5H93.8L112.8 186.5H135V300H0V69.4ZM126.65 75.4C127.717 77.9333 128.25 80.6 128.25 83.4C128.25 86.2 127.717 88.8667 126.65 91.4C125.617 93.8667 124.15 96.05 122.25 97.95C120.35 99.85 118.167 101.333 115.7 102.4C113.133 103.467 110.45 104 107.65 104H64.9C62.1333 104 59.4667 103.467 56.9 102.4C54.4333 101.333 52.25 99.85 50.35 97.95C48.45 96.05 46.9833 93.8667 45.95 91.4C44.8833 88.8667 44.35 86.2 44.35 83.4C44.35 80.6 44.8833 77.9333 45.95 75.4C46.9833 72.9333 48.45 70.75 50.35 68.85C52.25 66.95 54.4333 65.4833 56.9 64.45C59.4667 63.35 62.1333 62.8 64.9 62.8H107.65C110.45 62.8 113.133 63.35 115.7 64.45C118.167 65.4833 120.35 66.95 122.25 68.85C124.15 70.75 125.617 72.9333 126.65 75.4ZM76.85 71.45C75.15 70.7167 73.3833 70.35 71.55 70.35C69.6833 70.3833 67.9 70.75 66.2 71.45C64.5333 72.1167 63.0833 73.0833 61.85 74.35C60.5833 75.6167 59.6 77.0667 58.9 78.7C58.1667 80.4 57.8167 82.1833 57.85 84.05C57.85 85.9167 58.2 87.7 58.9 89.4C59.6 91.0333 60.5833 92.4833 61.85 93.75C63.1167 95.0167 64.5833 96 66.25 96.7C67.9167 97.4 69.6667 97.75 71.5 97.75C73.4 97.75 75.1833 97.4 76.85 96.7C78.4833 96 79.9333 95.0167 81.2 93.75C82.4667 92.45 83.45 91 84.15 89.4C84.8833 87.7 85.25 85.9333 85.25 84.1C85.2167 82.2 84.85 80.4167 84.15 78.75C83.45 77.0833 82.4833 75.6333 81.25 74.4C79.9833 73.1333 78.5167 72.15 76.85 71.45ZM114.9 84.1C114.867 82.2 114.5 80.4167 113.8 78.75C113.1 77.0833 112.133 75.6333 110.9 74.4C109.633 73.1333 108.167 72.15 106.5 71.45C104.8 70.7167 103.033 70.35 101.2 70.35C99.3333 70.3833 97.55 70.75 95.85 71.45C94.1833 72.1167 92.7333 73.0833 91.5 74.35C90.2333 75.6167 89.25 77.0667 88.55 78.7C87.8167 80.4 87.4667 82.1833 87.5 84.05C87.5 85.9167 87.85 87.7 88.55 89.4C89.25 91.0333 90.2333 92.4833 91.5 93.75C92.7667 95.0167 94.2333 96 95.9 96.7C97.5667 97.4 99.3167 97.75 101.15 97.75C103.05 97.75 104.833 97.4 106.5 96.7C108.133 96 109.583 95.0167 110.85 93.75C112.117 92.45 113.1 91 113.8 89.4C114.533 87.7 114.9 85.9333 114.9 84.1ZM135 153.5V167.45C132.767 164.083 130.2 161.2 127.3 158.8C123.167 155.367 119.017 153.6 114.85 153.5H135ZM12.6 148C10.4667 145.867 9.4 143.267 9.4 140.2C9.4 137.233 10.45 134.683 12.55 132.55C14.6833 130.35 17.2667 129.25 20.3 129.25C23.3 129.25 25.8667 130.35 28 132.55C30.1333 134.717 31.2 137.267 31.2 140.2C31.2 143.233 30.1333 145.833 28 148C25.8667 150.133 23.3 151.2 20.3 151.2C17.3 151.2 14.7333 150.133 12.6 148ZM7.1 140.2C7.1 143.933 8.36667 147.067 10.9 149.6C13.4667 152.133 16.6 153.4 20.3 153.4C23.9 153.4 26.9833 152.167 29.55 149.7C32.1833 147.133 33.5 143.967 33.5 140.2C33.5 136.567 32.2167 133.45 29.65 130.85C27.05 128.283 23.9333 127 20.3 127C16.8333 127 13.8 128.183 11.2 130.55C8.46667 133.117 7.1 136.333 7.1 140.2ZM21.5 135.8C22.3 136.1 22.7 136.65 22.7 137.45C22.7 138.25 22.45 138.833 21.95 139.2C21.45 139.567 20.75 139.75 19.85 139.75H18.35V135.5H19.3L21.5 135.8ZM26.45 137.2C26.45 135.567 25.8 134.4 24.5 133.7C23.7333 133.267 22.7667 133.017 21.6 132.95L14.5 132.9V147.55H18.35V142.35L20 142.45L21.3 142.65C21.8333 142.85 22.2 143.217 22.4 143.75L22.6 145.55L22.85 147.55H26.5L26.25 146.3V145C26.25 143.5 25.8167 142.4 24.95 141.7C24.4833 141.333 23.8 141.05 22.9 140.85C23.9 140.75 24.7333 140.417 25.4 139.85C26.1 139.317 26.45 138.433 26.45 137.2Z" fill="#FF880B"/>
<path fill-rule="evenodd" clip-rule="evenodd" d="M0 29.45L0.25 29.1L13.5 39.45L22.6 27.8L34.5 37.1L25.4 48.75L36.95 57.75C40.4833 53.8833 44.6167 50.8833 49.35 48.75C54.2833 46.5167 59.4667 45.4 64.9 45.4H107.65C113.117 45.4 118.3 46.5167 123.2 48.75C127.667 50.75 131.6 53.5167 135 57.05V109.75L134.5 110.25C131 113.75 126.983 116.467 122.45 118.4C117.75 120.4 112.817 121.4 107.65 121.4H64.9C59.7667 121.4 54.85 120.4 50.15 118.4C45.5833 116.467 41.55 113.75 38.05 110.25C34.55 106.75 31.85 102.733 29.95 98.2C27.95 93.5 26.95 88.5667 26.95 83.4C26.95 79.0667 27.6667 74.8667 29.1 70.8L16.1 60.65L5.75 73.9L0 69.4V56.75L4.2 51.35L0 48.1V29.45ZM126.65 75.4C125.617 72.9333 124.15 70.75 122.25 68.85C120.35 66.95 118.167 65.4833 115.7 64.45C113.133 63.35 110.45 62.8 107.65 62.8H64.9C62.1333 62.8 59.4667 63.35 56.9 64.45C54.4333 65.4833 52.25 66.95 50.35 68.85C48.45 70.75 46.9833 72.9333 45.95 75.4C44.8833 77.9333 44.35 80.6 44.35 83.4C44.35 86.2 44.8833 88.8667 45.95 91.4C46.9833 93.8667 48.45 96.05 50.35 97.95C52.25 99.85 54.4333 101.333 56.9 102.4C59.4667 103.467 62.1333 104 64.9 104H107.65C110.45 104 113.133 103.467 115.7 102.4C118.167 101.333 120.35 99.85 122.25 97.95C124.15 96.05 125.617 93.8667 126.65 91.4C127.717 88.8667 128.25 86.2 128.25 83.4C128.25 80.6 127.717 77.9333 126.65 75.4ZM135 186.5H112.8L93.8 153.5H89.05L70.05 186.5H36.8L55.8 153.5H36.65V126.95H119.8C123.4 126.95 126.833 127.65 130.1 129.05C131.833 129.783 133.467 130.683 135 131.75V153.5H114.85C119.017 153.6 123.167 155.367 127.3 158.8C130.2 161.2 132.767 164.083 135 167.45V186.5Z" fill="#323F79"/>
<path fill-rule="evenodd" clip-rule="evenodd" d="M114.9 84.1C114.9 85.9333 114.533 87.7 113.8 89.4C113.1 91 112.117 92.45 110.85 93.75C109.583 95.0167 108.133 96 106.5 96.7C104.833 97.4 103.05 97.75 101.15 97.75C99.3167 97.75 97.5667 97.4 95.9 96.7C94.2333 96 92.7667 95.0167 91.5 93.75C90.2333 92.4833 89.25 91.0333 88.55 89.4C87.85 87.7 87.5 85.9167 87.5 84.05C87.4667 82.1833 87.8167 80.4 88.55 78.7C89.25 77.0667 90.2333 75.6167 91.5 74.35C92.7333 73.0833 94.1833 72.1167 95.85 71.45C97.55 70.75 99.3333 70.3833 101.2 70.35C103.033 70.35 104.8 70.7167 106.5 71.45C108.167 72.15 109.633 73.1333 110.9 74.4C112.133 75.6333 113.1 77.0833 113.8 78.75C114.5 80.4167 114.867 82.2 114.9 84.1ZM76.85 71.45C78.5167 72.15 79.9833 73.1333 81.25 74.4C82.4833 75.6333 83.45 77.0833 84.15 78.75C84.85 80.4167 85.2167 82.2 85.25 84.1C85.25 85.9333 84.8833 87.7 84.15 89.4C83.45 91 82.4667 92.45 81.2 93.75C79.9333 95.0167 78.4833 96 76.85 96.7C75.1833 97.4 73.4 97.75 71.5 97.75C69.6667 97.75 67.9167 97.4 66.25 96.7C64.5833 96 63.1167 95.0167 61.85 93.75C60.5833 92.4833 59.6 91.0333 58.9 89.4C58.2 87.7 57.85 85.9167 57.85 84.05C57.8167 82.1833 58.1667 80.4 58.9 78.7C59.6 77.0667 60.5833 75.6167 61.85 74.35C63.0833 73.0833 64.5333 72.1167 66.2 71.45C67.9 70.75 69.6833 70.3833 71.55 70.35C73.3833 70.35 75.15 70.7167 76.85 71.45Z" fill="#BC132C"/>
<path fill-rule="evenodd" clip-rule="evenodd" d="M26.45 137.2C26.45 138.433 26.1 139.317 25.4 139.85C24.7333 140.417 23.9 140.75 22.9 140.85C23.8 141.05 24.4833 141.333 24.95 141.7C25.8167 142.4 26.25 143.5 26.25 145V146.3L26.5 147.55H22.85L22.6 145.55L22.4 143.75C22.2 143.217 21.8333 142.85 21.3 142.65L20 142.45L18.35 142.35V147.55H14.5V132.9L21.6 132.95C22.7667 133.017 23.7333 133.267 24.5 133.7C25.8 134.4 26.45 135.567 26.45 137.2ZM21.5 135.8L19.3 135.5H18.35V139.75H19.85C20.75 139.75 21.45 139.567 21.95 139.2C22.45 138.833 22.7 138.25 22.7 137.45C22.7 136.65 22.3 136.1 21.5 135.8ZM7.1 140.2C7.1 136.333 8.46667 133.117 11.2 130.55C13.8 128.183 16.8333 127 20.3 127C23.9333 127 27.05 128.283 29.65 130.85C32.2167 133.45 33.5 136.567 33.5 140.2C33.5 143.967 32.1833 147.133 29.55 149.7C26.9833 152.167 23.9 153.4 20.3 153.4C16.6 153.4 13.4667 152.133 10.9 149.6C8.36667 147.067 7.1 143.933 7.1 140.2ZM12.6 148C14.7333 150.133 17.3 151.2 20.3 151.2C23.3 151.2 25.8667 150.133 28 148C30.1333 145.833 31.2 143.233 31.2 140.2C31.2 137.267 30.1333 134.717 28 132.55C25.8667 130.35 23.3 129.25 20.3 129.25C17.2667 129.25 14.6833 130.35 12.55 132.55C10.45 134.683 9.4 137.233 9.4 140.2C9.4 143.267 10.4667 145.867 12.6 148Z" fill="white"/>
</g>
<defs>
<clipPath id="clip0_1_70">
<rect width="135" height="300" fill="white"/>
</clipPath>
</defs>
</svg>
