<?xml version="1.0" encoding="UTF-8" standalone="no"?>
<svg xmlns:ffdec="https://www.free-decompiler.com/flash" xmlns:xlink="http://www.w3.org/1999/xlink" ffdec:objectType="frame" height="300.0px" width="135.0px" xmlns="http://www.w3.org/2000/svg">
  <g transform="matrix(1.0, 0.0, 0.0, 1.0, 67.5, 150.0)">
    <use ffdec:characterId="13" height="300.0" transform="matrix(1.0, 0.0, 0.0, 1.0, -67.5, -150.0)" width="135.0" xlink:href="#shape0"/>
  </g>
  <defs>
    <g id="shape0" transform="matrix(1.0, 0.0, 0.0, 1.0, 67.5, 150.0)">
      <path d="M13.55 -95.05 L7.7 -95.05 7.7 -108.2 -8.2 -108.2 -8.2 -95.05 -13.85 -95.05 -24.95 -105.8 -36.25 -94.5 -20.5 -79.1 20.05 -79.1 35.8 -94.5 24.65 -105.8 13.55 -95.05 M51.8 -72.9 Q49.7 -75.0 46.75 -75.0 L-47.2 -75.0 Q-48.65 -75.0 -50.0 -74.45 L-52.25 -72.9 -53.8 -70.65 Q-54.4 -69.3 -54.4 -67.85 L-54.4 -35.35 -38.45 -35.35 -38.45 -59.1 38.0 -59.1 38.0 -35.65 53.9 -35.65 53.9 -67.85 Q53.9 -70.8 51.8 -72.9 M37.85 -12.4 L-38.3 -12.4 -38.3 -16.15 37.85 -16.15 37.85 -12.4 M44.85 36.0 L55.95 24.7 40.25 9.15 7.55 9.15 7.55 3.7 53.9 3.7 53.9 -32.25 -54.4 -32.25 -54.4 3.7 -8.35 3.7 -8.35 9.15 -40.35 9.15 -56.25 24.9 -45.15 36.2 -33.7 25.05 33.55 25.05 44.85 36.0 M34.25 -39.1 L34.25 -55.0 -34.0 -55.0 -34.0 -39.1 34.25 -39.1 M67.5 150.0 L-67.5 150.0 -67.5 -150.0 67.5 -150.0 67.5 150.0" fill="#b71518" fill-rule="evenodd" stroke="none"/>
      <path d="M51.8 -72.9 Q53.9 -70.8 53.9 -67.85 L53.9 -35.65 38.0 -35.65 38.0 -59.1 -38.45 -59.1 -38.45 -35.35 -54.4 -35.35 -54.4 -67.85 Q-54.4 -69.3 -53.8 -70.65 L-52.25 -72.9 -50.0 -74.45 Q-48.65 -75.0 -47.2 -75.0 L46.75 -75.0 Q49.7 -75.0 51.8 -72.9 M13.55 -95.05 L24.65 -105.8 35.8 -94.5 20.05 -79.1 -20.5 -79.1 -36.25 -94.5 -24.95 -105.8 -13.85 -95.05 -8.2 -95.05 -8.2 -108.2 7.7 -108.2 7.7 -95.05 13.55 -95.05 M37.85 -12.4 L37.85 -16.15 -38.3 -16.15 -38.3 -12.4 37.85 -12.4 M34.25 -39.1 L-34.0 -39.1 -34.0 -55.0 34.25 -55.0 34.25 -39.1 M44.85 36.0 L33.55 25.05 -33.7 25.05 -45.15 36.2 -56.25 24.9 -40.35 9.15 -8.35 9.15 -8.35 3.7 -54.4 3.7 -54.4 -32.25 53.9 -32.25 53.9 3.7 7.55 3.7 7.55 9.15 40.25 9.15 55.95 24.7 44.85 36.0" fill="#ffffff" fill-rule="evenodd" stroke="none"/>
    </g>
  </defs>
</svg>
