<?xml version="1.0" encoding="UTF-8" standalone="no"?>
<svg xmlns:ffdec="https://www.free-decompiler.com/flash" xmlns:xlink="http://www.w3.org/1999/xlink" ffdec:objectType="frame" height="300.0px" width="135.0px" xmlns="http://www.w3.org/2000/svg">
  <g transform="matrix(1.0, 0.0, 0.0, 1.0, 67.5, 150.0)">
    <use ffdec:characterId="18" height="300.0" transform="matrix(1.0, 0.0, 0.0, 1.0, -67.5, -150.0)" width="135.0" xlink:href="#shape0"/>
  </g>
  <defs>
    <g id="shape0" transform="matrix(1.0, 0.0, 0.0, 1.0, 67.5, 150.0)">
      <path d="M67.5 -58.85 L67.5 -42.75 61.65 -18.4 67.5 -8.8 67.5 7.05 53.5 15.65 45.0 51.05 55.35 67.95 67.5 60.55 67.5 150.0 -67.5 150.0 -67.5 55.5 -33.75 63.6 -17.9 53.85 -27.6 38.0 -66.6 28.65 -67.5 29.2 -67.5 24.15 -67.35 24.05 -58.85 -11.3 -67.5 -25.45 -67.5 -35.05 -50.65 -45.4 -42.2 -80.75 -52.55 -97.7 -67.35 -88.7 -67.5 -88.05 -67.5 -150.0 67.5 -150.0 67.5 -85.9 36.55 -93.3 20.7 -83.55 30.4 -67.75 67.5 -58.85 M15.8 -67.65 L11.8 -50.7 37.9 -8.15 54.75 -4.1 59.35 -23.45 35.1 -63.0 15.8 -67.65 M12.45 -68.1 L-6.9 -72.7 -46.45 -48.45 -51.1 -29.15 -34.25 -25.1 8.3 -51.15 12.45 -68.1 M2.65 -12.9 L-1.95 6.45 22.25 46.0 41.6 50.65 45.65 33.8 19.55 -8.75 2.65 -12.9 M15.4 -84.85 L5.7 -100.7 -33.15 -110.05 -49.05 -100.25 -39.4 -84.5 -0.4 -75.15 15.4 -84.85 M51.85 70.55 L42.2 54.8 3.2 45.4 -12.6 55.1 -2.9 71.0 35.95 80.3 51.85 70.55 M-51.85 -26.0 L-56.5 -6.65 -32.25 32.9 -12.9 37.6 -8.9 20.65 -35.0 -21.9 -51.85 -26.0" fill="#841b24" fill-rule="evenodd" stroke="none"/>
      <path d="M67.5 -85.9 L67.5 -58.85 30.4 -67.75 20.7 -83.55 36.55 -93.3 67.5 -85.9 M67.5 -42.75 L67.5 -8.8 61.65 -18.4 67.5 -42.75 M67.5 7.05 L67.5 60.55 55.35 67.95 45.0 51.05 53.5 15.65 67.5 7.05 M-67.5 55.5 L-67.5 29.2 -66.6 28.65 -27.6 38.0 -17.9 53.85 -33.75 63.6 -67.5 55.5 M-67.5 24.15 L-67.5 -25.45 -58.85 -11.3 -67.35 24.05 -67.5 24.15 M-67.5 -35.05 L-67.5 -88.05 -67.35 -88.7 -52.55 -97.7 -42.2 -80.75 -50.65 -45.4 -67.5 -35.05 M15.4 -84.85 L-0.4 -75.15 -39.4 -84.5 -49.05 -100.25 -33.15 -110.05 5.7 -100.7 15.4 -84.85 M51.85 70.55 L35.95 80.3 -2.9 71.0 -12.6 55.1 3.2 45.4 42.2 54.8 51.85 70.55" fill="#4667a3" fill-rule="evenodd" stroke="none"/>
      <path d="M15.8 -67.65 L35.1 -63.0 59.35 -23.45 54.75 -4.1 37.9 -8.15 11.8 -50.7 15.8 -67.65 M2.65 -12.9 L19.55 -8.75 45.65 33.8 41.6 50.65 22.25 46.0 -1.95 6.45 2.65 -12.9 M12.45 -68.1 L8.3 -51.15 -34.25 -25.1 -51.1 -29.15 -46.45 -48.45 -6.9 -72.7 12.45 -68.1 M-51.85 -26.0 L-35.0 -21.9 -8.9 20.65 -12.9 37.6 -32.25 32.9 -56.5 -6.65 -51.85 -26.0" fill="#e4d90f" fill-rule="evenodd" stroke="none"/>
    </g>
  </defs>
</svg>
