<svg xmlns="http://www.w3.org/2000/svg" xml:space="preserve" fill-rule="evenodd" stroke-linecap="round" stroke-linejoin="round" clip-rule="evenodd" viewBox="0 0 572 324"><path fill="#acaba7" d="M443.9 171.6c-.667.833-.983 1.8-.95 2.9v10.15c-.033.567-.317.967-.85 1.2l-7.35 2.8c-1.633.633-2.967 1.667-4 3.1-1.067 1.467-1.583 3.117-1.55 4.95-.033 1.167.183 2.267.65 3.3.433 1.033 1.05 1.95 1.85 2.75.8.767 1.7 1.383 2.7 1.85 1.067.433 2.183.65 3.35.65l2.7-.4 21.65-7h5.65l9.95 33.9.05.7c0 .633-.2 1.167-.6 1.6l-8.8 9.65c-1.067 1.167-1.583 2.55-1.55 4.15-.033 1.7.583 3.183 1.85 4.45 1.233 1.233 2.7 1.85 4.4 1.85 1.4 0 2.65-.417 3.75-1.25l8.25-6.05c.6-.5 1.267-.733 2-.7.767-.033 1.467.2 2.1.7.567.467.95 1.067 1.15 1.8l5.45 17.55c.367.967.967 1.75 1.8 2.35.833.633 1.767.95 2.8.95l.65-.05 5.35 2.45H.55v-98.6l6.35-6.35h449.35l-2 .3-8.05 2.55c-.967.367-1.733.967-2.3 1.8m73.1 42.25c-1.033.133-1.933.6-2.7 1.4l-.95 1c-.6.567-1 1.217-1.2 1.95-.267.733-.333 1.483-.2 2.25l-9.3-6.6H517"/><path fill="#acaba7" d="M443.9 171.6c.567-.833 1.333-1.433 2.3-1.8l8.05-2.55 2-.3h.15c1.633 0 3.1.5 4.4 1.5 1.267.967 2.117 2.217 2.55 3.75l6.7 22.8h5.8l36.1 25.45c-.133-.767-.067-1.517.2-2.25.2-.733.6-1.383 1.2-1.95l.95-1c.767-.8 1.667-1.267 2.7-1.4l.75-.05c1.333 0 2.483.483 3.45 1.45.967.933 1.45 2.083 1.45 3.45 0 1.333-.483 2.483-1.45 3.45l-1 .95c-.733.733-1.583 1.2-2.55 1.4l-.7.05h-2l9.6 31.6.25 1.7c0 1.233-.317 2.35-.95 3.35-.7 1.033-1.567 1.8-2.6 2.3l-2.15.9-1.7 3.75-11.05 3.75-5.35-2.45-.65.05c-1.033 0-1.967-.317-2.8-.95-.833-.6-1.433-1.383-1.8-2.35l-5.45-17.55c-.2-.733-.583-1.333-1.15-1.8-.633-.5-1.333-.733-2.1-.7-.733-.033-1.4.2-2 .7l-8.25 6.05c-1.1.833-2.35 1.25-3.75 1.25-1.7 0-3.167-.617-4.4-1.85-1.267-1.267-1.883-2.75-1.85-4.45-.033-1.6.483-2.983 1.55-4.15l8.8-9.65c.4-.433.6-.967.6-1.6l-.05-.7-9.95-33.9h-5.65l-21.65 7-2.7.4c-1.167 0-2.283-.217-3.35-.65-1-.467-1.9-1.083-2.7-1.85-.8-.8-1.417-1.717-1.85-2.75-.467-1.033-.683-2.133-.65-3.3-.033-1.833.483-3.483 1.55-4.95 1.033-1.433 2.367-2.467 4-3.1l7.35-2.8c.533-.233.817-.633.85-1.2V174.5c-.033-1.1.283-2.067.95-2.9"/><path fill="none" stroke="#fff" d="M443.9 171.6c.567-.833 1.333-1.433 2.3-1.8l8.05-2.55 2-.3H6.9L.55 173.3v98.6h505.8l-5.35-2.45-.65.05c-1.033 0-1.967-.317-2.8-.95-.833-.6-1.433-1.383-1.8-2.35l-5.45-17.55c-.2-.733-.583-1.333-1.15-1.8-.633-.5-1.333-.733-2.1-.7-.733-.033-1.4.2-2 .7l-8.25 6.05c-1.1.833-2.35 1.25-3.75 1.25-1.7 0-3.167-.617-4.4-1.85-1.267-1.267-1.883-2.75-1.85-4.45-.033-1.6.483-2.983 1.55-4.15l8.8-9.65c.4-.433.6-.967.6-1.6l-.05-.7-9.95-33.9h-5.65l-21.65 7-2.7.4c-1.167 0-2.283-.217-3.35-.65-1-.467-1.9-1.083-2.7-1.85-.8-.8-1.417-1.717-1.85-2.75-.467-1.033-.683-2.133-.65-3.3-.033-1.833.483-3.483 1.55-4.95 1.033-1.433 2.367-2.467 4-3.1l7.35-2.8c.533-.233.817-.633.85-1.2V174.5c-.033-1.1.283-2.067.95-2.9m12.35-4.65h.15c1.633 0 3.1.5 4.4 1.5 1.267.967 2.117 2.217 2.55 3.75l6.7 22.8h5.8l26.8 18.85H517l.75-.05c1.333 0 2.483.483 3.45 1.45.967.933 1.45 2.083 1.45 3.45 0 1.333-.483 2.483-1.45 3.45l-1 .95c-.733.733-1.583 1.2-2.55 1.4l-.7.05h-2l9.6 31.6.25 1.7c0 1.233-.317 2.35-.95 3.35-.7 1.033-1.567 1.8-2.6 2.3l-2.15.9-1.7 3.75-11.05 3.75m-3.7-58.05 9.3 6.6c-.133-.767-.067-1.517.2-2.25.2-.733.6-1.383 1.2-1.95l.95-1c.767-.8 1.667-1.267 2.7-1.4m-.4 10.7-1.8-.35.15.35"/><path fill="#acaba7" d="M518.7 123c1.433-1.2 3.15-1.867 5.15-2l24.25-1.3c2 0 3.6.95 4.8 2.85l2.5 4.25c.567.867 1.3 1.567 2.2 2.1.9.433 1.85.667 2.85.7h-44.5l.25-1.9c.233-1.933 1.067-3.5 2.5-4.7m17.35-33c-.067-1.467-.55-2.717-1.45-3.75h29.6l-18.45 1.3c-3.933.267-7.167 1.083-9.7 2.45m-45.75 7.8c-2.067.2-3.783 1.083-5.15 2.65-1.4 1.533-2.1 3.35-2.1 5.45v.6l3.8 50.55c.167 1.767.917 3.25 2.25 4.45 1.267 1.2 2.75 1.817 4.45 1.85H.5v-73.2l6.4-6.35h522.35c-1.8.033-3.333.683-4.6 1.95-1.3 1.267-1.95 2.85-1.95 4.75 0 1.667.55 3.117 1.65 4.35L490.3 97.8"/><path fill="#acaba7" d="m490.3 97.8 34.05-2.95c-1.1-1.233-1.65-2.683-1.65-4.35 0-1.9.65-3.483 1.95-4.75 1.267-1.267 2.8-1.917 4.6-1.95h.15c1.767 0 3.283.6 4.55 1.8l.65.65c.9 1.033 1.383 2.283 1.45 3.75 2.533-1.367 5.767-2.183 9.7-2.45l18.45-1.3c1.9-.133 3.567.517 5 1.95 1.367 1.433 2.05 3.15 2.05 5.15l.1 8.05c0 1.367-.467 2.483-1.4 3.35l-2.9 2.7v15.85c0 1.733-.633 3.217-1.9 4.45-1.233 1.233-2.733 1.85-4.5 1.85h-.2c-1-.033-1.95-.267-2.85-.7-.9-.533-1.633-1.233-2.2-2.1l-2.5-4.25c-1.2-1.9-2.8-2.85-4.8-2.85l-24.25 1.3c-2 .133-3.717.8-5.15 2-1.433 1.2-2.267 2.767-2.5 4.7l-.35 2.8c-.133.8-.45 1.467-.95 2-.5.5-1.117.8-1.85.9l-10.9 1.1c-.667.033-1.233.317-1.7.85-.5.5-.75 1.117-.75 1.85l.95 19.25c0 1.9-.667 3.533-2 4.9-1.367 1.333-3 2-4.9 2h-.2c-1.7-.033-3.183-.65-4.45-1.85-1.333-1.2-2.083-2.683-2.25-4.45l-3.8-50.55v-.6c0-2.1.7-3.917 2.1-5.45 1.367-1.567 3.083-2.45 5.15-2.65"/><path fill="none" stroke="#fff" d="M483.05 105.9c0-2.1.7-3.917 2.1-5.45 1.367-1.567 3.083-2.45 5.15-2.65l34.05-2.95c-1.1-1.233-1.65-2.683-1.65-4.35 0-1.9.65-3.483 1.95-4.75 1.133-1.167 2.5-1.817 4.1-1.95H6.9L.5 90.15v73.2h493.05c-1.7-.033-3.183-.65-4.45-1.85-1.333-1.2-2.083-2.683-2.25-4.45l-3.8-50.55v-.6m45.7-22.1h.65c1.767 0 3.283.6 4.55 1.8l.65.65h29.6c1.9-.133 3.567.517 5 1.95 1.367 1.433 2.05 3.15 2.05 5.15l.1 8.05c0 1.367-.467 2.483-1.4 3.35l-2.9 2.7v15.85c0 1.733-.633 3.217-1.9 4.45-1.233 1.233-2.733 1.85-4.5 1.85h-44.7l-.1.9c-.133.8-.45 1.467-.95 2-.5.5-1.117.8-1.85.9l-10.9 1.1c-.667.033-1.233.317-1.7.85-.5.5-.75 1.117-.75 1.85l.95 19.25c0 1.9-.667 3.533-2 4.9-1.367 1.333-3 2-4.9 2h-.2m41.05-77.1c.9 1.033 1.383 2.283 1.45 3.75 2.533-1.367 5.767-2.183 9.7-2.45l18.45-1.3m-3.75 43.35c-1-.033-1.95-.267-2.85-.7-.9-.533-1.633-1.233-2.2-2.1l-2.5-4.25c-1.2-1.9-2.8-2.85-4.8-2.85l-24.25 1.3c-2 .133-3.717.8-5.15 2-1.433 1.2-2.267 2.767-2.5 4.7l-.25 1.9"/><path fill="#acaba7" d="m283.9 14-6.7 11c-.6.967-.9 2.05-.9 3.25 0 .733.117 1.433.35 2.1l1.3 3.95.3 1.9c0 1-.2 1.9-.6 2.7-.433.833-1.033 1.5-1.8 2l-7.5 4.95c-1.2.867-2.133 1.933-2.8 3.2-.7 1.367-1.05 2.8-1.05 4.3 0 1.267.25 2.467.75 3.6.433 1.1 1.083 2.1 1.95 3 .833.833 1.817 1.483 2.95 1.95 1.133.467 2.35.717 3.65.75 1.567-.033 3.033-.417 4.4-1.15l11.85-6.6 32.3 18.65h6l8.1 4.9-2.9 5.35-8.4 3.7c-2.033.833-3.633 2.167-4.8 4-1.267 1.8-1.883 3.85-1.85 6.15-.033 1.5.233 2.933.8 4.3.567 1.3 1.367 2.467 2.4 3.5 1.033 1 2.217 1.783 3.55 2.35l2.3.7H.55V6.85L6.9.5h295.8L283.9 14"/><path fill="#acaba7" d="M304.55 3.95 326.25 15l4.2 6.65 14.15 7.7-6.75 11.55 7.45 4.5 2-.35 2.3 1.15-7.2 12.15 12.75 7.55c1.233.733 2.217 1.75 2.95 3.05.7 1.267 1.05 2.683 1.05 4.25 0 1.467-.35 2.883-1.05 4.25l-4.3 7.75v6.65l-10.1 13.25-11.1 3.1-3.05.5-2-.2-2.3-.7c-1.333-.567-2.517-1.35-3.55-2.35-1.033-1.033-1.833-2.2-2.4-3.5-.567-1.367-.833-2.8-.8-4.3-.033-2.3.583-4.35 1.85-6.15 1.167-1.833 2.767-3.167 4.8-4l8.4-3.7 2.9-5.35-8.1-4.9h-6l-32.3-18.65-11.85 6.6c-1.367.733-2.833 1.117-4.4 1.15l-3.65-.75-2.95-1.95c-.867-.9-1.517-1.9-1.95-3-.5-1.133-.75-2.333-.75-3.6 0-1.5.35-2.933 1.05-4.3.667-1.267 1.6-2.333 2.8-3.2l7.5-4.95c.767-.5 1.367-1.167 1.8-2 .4-.8.6-1.7.6-2.7 0-.633-.1-1.267-.3-1.9l-1.3-3.95c-.233-.667-.35-1.367-.35-2.1 0-1.2.3-2.283.9-3.25l6.7-11L302.7.5l1.85 3.45"/><path fill="none" stroke="#fff" d="m302.7.5 1.85 3.45L326.25 15l4.2 6.65 14.15 7.7-6.75 11.55 7.45 4.5 2-.35 2.3 1.15-7.2 12.15 12.75 7.55c1.233.733 2.217 1.75 2.95 3.05.7 1.267 1.05 2.683 1.05 4.25 0 1.467-.35 2.883-1.05 4.25l-4.3 7.75v6.65l-10.1 13.25-11.1 3.1-3.05.5-2-.2H.55V6.85L6.9.5h295.8L283.9 14l-6.7 11c-.6.967-.9 2.05-.9 3.25 0 .733.117 1.433.35 2.1l1.3 3.95.3 1.9c0 1-.2 1.9-.6 2.7-.433.833-1.033 1.5-1.8 2l-7.5 4.95c-1.2.867-2.133 1.933-2.8 3.2-.7 1.367-1.05 2.8-1.05 4.3 0 1.267.25 2.467.75 3.6.433 1.1 1.083 2.1 1.95 3 .833.833 1.817 1.483 2.95 1.95l3.65.75c1.567-.033 3.033-.417 4.4-1.15l11.85-6.6 32.3 18.65h6l8.1 4.9-2.9 5.35-8.4 3.7c-2.033.833-3.633 2.167-4.8 4-1.267 1.8-1.883 3.85-1.85 6.15-.033 1.5.233 2.933.8 4.3.567 1.3 1.367 2.467 2.4 3.5 1.033 1 2.217 1.783 3.55 2.35l2.3.7"/><path fill="#acaba7" d="M283.3 109.5c-1.5.633-2.8 1.5-3.9 2.6-1.167 1.1-2.05 2.4-2.65 3.9-.633 1.5-.95 3.083-.95 4.75 0 2.8.833 5.3 2.5 7.5 1.667 2.167 3.833 3.617 6.5 4.35l2.95.85 1.4 4.35c.333 1.233.983 2.267 1.95 3.1.967.867 2.067 1.433 3.3 1.7l3.95.7 2.1 4.1c.567 1.267 1.35 2.367 2.35 3.3l32.85 29.6c.633.533.95 1.25.95 2.15-.033.8-.333 1.483-.9 2.05-.567.6-1.267.9-2.1.9-.733 0-1.367-.233-1.9-.7l-6.25-5.3h-8.7l-2.25-2.25c-1.1-1.067-2.4-1.6-3.9-1.6h-6l-10.1-10.05c-1.533-1.6-3.4-2.383-5.6-2.35-2.233.033-4.133.817-5.7 2.35-1.6 1.567-2.383 3.467-2.35 5.7.033 2.167.817 4.067 2.35 5.7l5.4 5.3 4.65 1.25 10.15 10.1c.667.667 1.433 1.2 2.3 1.6.9.367 1.833.55 2.8.55h5.8l4.8 9.8c.367.8.917 1.433 1.65 1.9.767.467 1.6.717 2.5.75h6.05l8.6-6.35c.833-.6 1.75-.9 2.75-.9 1.267 0 2.35.433 3.25 1.3.9.9 1.35 1.983 1.35 3.25v5.6l-13.2 13.2c-1.367 1.367-2.05 3.017-2.05 4.95 0 1.967.683 3.633 2.05 5 1.333 1.333 2.95 2.017 4.85 2.05H.5l.05-121.4 6.35-6.35h280.85c-1.567.033-3.05.367-4.45 1M349.95 158.45h17.3l-13.2.6c-1.4 0-2.767-.2-4.1-.6"/><path fill="#acaba7" d="m296.15 111.55 48.55 44c1.267 1.1 2.683 1.95 4.25 2.55l1 .35 4.1.6 13.2-.6c1.433-.033 2.8.217 4.1.75 1.267.5 2.383 1.25 3.35 2.25 1 1 1.783 2.133 2.35 3.4.533 1.3.817 2.683.85 4.15-.033 2.667-.917 5.017-2.65 7.05-1.767 1.933-3.933 3.083-6.5 3.45l-12.9 2-1.4 3.8 10.35 8.2v14.85l-3.5 3.5 4.55 4.5-10.7 10.7h-5.95l-7.2 7.15c-1.367 1.367-3 2.05-4.9 2.05h-.2c-1.9-.033-3.517-.717-4.85-2.05-1.367-1.367-2.05-3.033-2.05-5 0-1.933.683-3.583 2.05-4.95l13.2-13.2v-5.6c0-1.267-.45-2.35-1.35-3.25-.9-.867-1.983-1.3-3.25-1.3-1 0-1.917.3-2.75.9l-8.6 6.35h-6.05c-.9-.033-1.733-.283-2.5-.75-.733-.467-1.283-1.1-1.65-1.9l-4.8-9.8h-5.8l-2.8-.55c-.867-.4-1.633-.933-2.3-1.6l-10.15-10.1-4.65-1.25-5.4-5.3c-1.533-1.633-2.317-3.533-2.35-5.7-.033-2.233.75-4.133 2.35-5.7 1.567-1.533 3.467-2.317 5.7-2.35 2.2-.033 4.067.75 5.6 2.35l10.1 10.05h6c1.5 0 2.8.533 3.9 1.6l2.25 2.25h8.7l6.25 5.3c.533.467 1.167.7 1.9.7.833 0 1.533-.3 2.1-.9.567-.567.867-1.25.9-2.05 0-.9-.317-1.617-.95-2.15l-32.85-29.6c-1-.933-1.783-2.033-2.35-3.3l-2.1-4.1-3.95-.7c-1.233-.267-2.333-.833-3.3-1.7-.967-.833-1.617-1.867-1.95-3.1l-1.4-4.35-2.95-.85c-2.667-.733-4.833-2.183-6.5-4.35-1.667-2.2-2.5-4.7-2.5-7.5 0-1.667.317-3.25.95-4.75.6-1.5 1.483-2.8 2.65-3.9 1.1-1.1 2.4-1.967 3.9-2.6 1.4-.633 2.883-.967 4.45-1h.3c3.2 0 5.9 1.017 8.1 3.05"/><path fill="none" stroke="#fff" d="m296.15 111.55 48.55 44c1.267 1.1 2.683 1.95 4.25 2.55l1 .35h17.3c1.433-.033 2.8.217 4.1.75 1.267.5 2.383 1.25 3.35 2.25 1 1 1.783 2.133 2.35 3.4.533 1.3.817 2.683.85 4.15-.033 2.667-.917 5.017-2.65 7.05-1.767 1.933-3.933 3.083-6.5 3.45l-12.9 2-1.4 3.8 10.35 8.2v14.85l-3.5 3.5 4.55 4.5-10.7 10.7h-5.95l-7.2 7.15c-1.367 1.367-3 2.05-4.9 2.05H.5l.05-121.4 6.35-6.35h281.15c3.2 0 5.9 1.017 8.1 3.05m40.75 124.7c-1.9-.033-3.517-.717-4.85-2.05-1.367-1.367-2.05-3.033-2.05-5 0-1.933.683-3.583 2.05-4.95l13.2-13.2v-5.6c0-1.267-.45-2.35-1.35-3.25-.9-.867-1.983-1.3-3.25-1.3-1 0-1.917.3-2.75.9l-8.6 6.35h-6.05c-.9-.033-1.733-.283-2.5-.75-.733-.467-1.283-1.1-1.65-1.9l-4.8-9.8h-5.8l-2.8-.55c-.867-.4-1.633-.933-2.3-1.6l-10.15-10.1-4.65-1.25-5.4-5.3c-1.533-1.633-2.317-3.533-2.35-5.7-.033-2.233.75-4.133 2.35-5.7 1.567-1.533 3.467-2.317 5.7-2.35 2.2-.033 4.067.75 5.6 2.35l10.1 10.05h6c1.5 0 2.8.533 3.9 1.6l2.25 2.25h8.7l6.25 5.3c.533.467 1.167.7 1.9.7.833 0 1.533-.3 2.1-.9.567-.567.867-1.25.9-2.05 0-.9-.317-1.617-.95-2.15l-32.85-29.6c-1-.933-1.783-2.033-2.35-3.3l-2.1-4.1-3.95-.7c-1.233-.267-2.333-.833-3.3-1.7-.967-.833-1.617-1.867-1.95-3.1l-1.4-4.35-2.95-.85c-2.667-.733-4.833-2.183-6.5-4.35-1.667-2.2-2.5-4.7-2.5-7.5 0-1.667.317-3.25.95-4.75.6-1.5 1.483-2.8 2.65-3.9 1.1-1.1 2.4-1.967 3.9-2.6 1.4-.633 2.883-.967 4.45-1m62.2 49.95c1.333.4 2.7.6 4.1.6l13.2-.6"/><path fill="#acaba7" d="M280.6 265.05c-.033.9-.333 1.683-.9 2.35l-7.15 8.65c-1.1 1.367-1.65 2.9-1.65 4.6 0 .967.183 1.883.55 2.75.367.867.867 1.633 1.5 2.3l5.55 5.6c1.1 1.1 2.45 1.683 4.05 1.75H241.9l17.8-11.85 2.85-9.3 12.45-9.65c.6-.467 1.283-.7 2.05-.7.967-.033 1.817.317 2.55 1.05.667.667 1 1.483 1 2.45m-44.4-37.25c-2.433 1.067-4.383 2.667-5.85 4.8-1.5 2.233-2.233 4.717-2.2 7.45v10.85l-5.5 6.9c-.4.5-.6 1.067-.6 1.7l.05.65 2.4 8.5.1.95c0 1.033-.383 1.917-1.15 2.65l-4.05 4.05-4 11.35c-.2.5-.3 1.033-.3 1.6 0 1 .283 1.917.85 2.75l2.85 4.3c.9 1.367 2.083 2.45 3.55 3.25 1.4.767 2.9 1.183 4.5 1.25H.55v-80.7l6.35-6.35h262.6c-1.667.033-3.267.383-4.8 1.05l-28.5 13"/><path fill="#acaba7" d="m236.2 227.8 28.5-13c1.533-.667 3.133-1.017 4.8-1.05h.35c2.6 0 4.967.733 7.1 2.2 2.1 1.467 3.617 3.383 4.55 5.75l18.05 47.2c.5 1.333.75 2.717.75 4.15 0 1.633-.333 3.2-1 4.7-.6 1.4-1.45 2.65-2.55 3.75l-10 9.9c-1.167 1.067-2.517 1.617-4.05 1.65h-.15c-1.6-.067-2.95-.65-4.05-1.75l-5.55-5.6c-.633-.667-1.133-1.433-1.5-2.3-.367-.867-.55-1.783-.55-2.75 0-1.7.55-3.233 1.65-4.6l7.15-8.65c.567-.667.867-1.45.9-2.35 0-.967-.333-1.783-1-2.45-.733-.733-1.583-1.083-2.55-1.05-.767 0-1.45.233-2.05.7l-12.45 9.65-2.85 9.3-27.05 18c-1.667 1.067-3.5 1.6-5.5 1.6h-.3c-1.6-.067-3.1-.483-4.5-1.25-1.467-.8-2.65-1.883-3.55-3.25l-2.85-4.3c-.567-.833-.85-1.75-.85-2.75l.3-1.6 4-11.35 4.05-4.05c.767-.733 1.15-1.617 1.15-2.65l-.1-.95-2.4-8.5-.05-.65c0-.633.2-1.2.6-1.7l5.5-6.9v-10.85c-.033-2.733.7-5.217 2.2-7.45 1.467-2.133 3.417-3.733 5.85-4.8"/><path fill="none" stroke="#fff" d="M228.15 240.05c-.033-2.733.7-5.217 2.2-7.45 1.467-2.133 3.417-3.733 5.85-4.8l28.5-13c1.367-.6 2.8-.95 4.3-1.05H6.9L.55 220.1v80.7h226.3c-1.6-.067-3.1-.483-4.5-1.25-1.467-.8-2.65-1.883-3.55-3.25l-2.85-4.3c-.567-.833-.85-1.75-.85-2.75 0-.567.1-1.1.3-1.6l4-11.35 4.05-4.05c.767-.733 1.15-1.617 1.15-2.65l-.1-.95-2.4-8.5-.05-.65c0-.633.2-1.2.6-1.7l5.5-6.9v-10.85m40.85-26.3h.85c2.6 0 4.967.733 7.1 2.2 2.1 1.467 3.617 3.383 4.55 5.75l18.05 47.2c.5 1.333.75 2.717.75 4.15 0 1.633-.333 3.2-1 4.7-.6 1.4-1.45 2.65-2.55 3.75l-10 9.9c-1.167 1.067-2.517 1.617-4.05 1.65h-40.8l-9.25 6.15c-1.567 1-3.267 1.533-5.1 1.6h-.7m55.7-7.75c-1.6-.067-2.95-.65-4.05-1.75l-5.55-5.6c-.633-.667-1.133-1.433-1.5-2.3-.367-.867-.55-1.783-.55-2.75 0-1.7.55-3.233 1.65-4.6l7.15-8.65c.567-.667.867-1.45.9-2.35 0-.967-.333-1.783-1-2.45-.733-.733-1.583-1.083-2.55-1.05-.767 0-1.45.233-2.05.7l-12.45 9.65-2.85 9.3-17.8 11.85"/><path fill="#acaba7" d="M6.9 24.5H73v17.35h78.65v9.45l9.65 7.1v8.9h-21.05v18h10.7v16.35H.55v-70.8L6.9 24.5"/><path fill="#acaba7" d="M73 24.5c.833 0 1.65.167 2.45.5l30.6 12c1.367.5 2.55 1.25 3.55 2.25.967 1.033 1.683 2.233 2.15 3.6l5.2 14.7c.167.6.517 1.1 1.05 1.5.5.333 1.1.517 1.8.55l1.3-.25 13.85-6.3 2.7-5.6 8.9-4.35c1.6-.867 3.3-1.283 5.1-1.25 1.567 0 3.1.333 4.6 1l10.55 4.5c.933.4 1.683 1 2.25 1.8.533.867.8 1.8.8 2.8 0 .7-.133 1.367-.4 2L165.2 64.6c-.333.8-.833 1.433-1.5 1.9-.733.533-1.533.8-2.4.8l-1.6-.3-6.85-2.8-.95-.2c-.433 0-.817.117-1.15.35-.333.2-.567.483-.7.85l-4.5 9.5.95 3.25 8.65 3.7c1.133.5 2.033 1.267 2.7 2.3.667 1.033 1 2.167 1 3.4l-.35 2.25-3.85 9.55c-.333.733-.817 1.35-1.45 1.85-.7.433-1.45.65-2.25.65l-1.35-.2-12.9-5.35h-7.45l-10.95-4.45-3-4.4-8.15-3.35-4.75 1-10.25-4.05-2.7-4.3-7.55-3.15h-7.7l-9.1-4.1-4.65-4.75-13.9-5.85c-1.033-.5-1.867-1.217-2.5-2.15-.667-1-1-2.1-1-3.3l.15-1.2.75-3.4c.4-1.733 1.3-3.133 2.7-4.2 1.333-1.1 2.9-1.65 4.7-1.65l2.9.55 3.5 1.25.85.15 1.4-.4.9-1.1 5.7-14.55c.567-1.233 1.4-2.233 2.5-3 1.167-.767 2.467-1.167 3.9-1.2"/><g fill="none"><path stroke="#fff" d="m73.15 24.5.85.1 1.45.4 30.6 12c1.367.5 2.55 1.25 3.55 2.25.733.767 1.317 1.633 1.75 2.6h40.3c1.567 0 3.1.333 4.6 1l10.55 4.5c.933.4 1.683 1 2.25 1.8.533.867.8 1.8.8 2.8 0 .7-.133 1.367-.4 2L165.2 64.6c-.333.8-.833 1.433-1.5 1.9-.733.533-1.533.8-2.4.8h-12.25l-3.5 7.4.95 3.25 8.65 3.7c1.133.5 2.033 1.267 2.7 2.3.667 1.033 1 2.167 1 3.4l-.35 2.25-3.85 9.55c-.333.733-.817 1.35-1.45 1.85-.7.433-1.45.65-2.25.65H.55v-70.8L6.9 24.5H73c-1.433.033-2.733.433-3.9 1.2-1.1.767-1.933 1.767-2.5 3l-5.7 14.55-.9 1.1c-.4.267-.867.4-1.4.4l-.85-.15-3.5-1.25c-.933-.367-1.9-.55-2.9-.55-1.8 0-3.367.55-4.7 1.65-1.4 1.067-2.3 2.467-2.7 4.2l-.75 3.4c-.1.4-.15.8-.15 1.2 0 1.2.333 2.3 1 3.3.633.933 1.467 1.65 2.5 2.15l13.9 5.85 4.65 4.75 9.1 4.1h7.7l7.55 3.15 2.7 4.3 10.25 4.05 4.75-1 8.15 3.35 3 4.4 10.95 4.45h7.45l12.9 5.35 1.15.2m-39.4-59.8.4 1 5.2 14.7c.167.6.517 1.1 1.05 1.5.5.333 1.1.517 1.8.55l1.3-.25 13.85-6.3 2.7-5.6 8.9-4.35c1.5-.8 3.083-1.217 4.75-1.25m9.9 25.45-1.5-.3-6.85-2.8-.95-.2c-.433 0-.817.117-1.15.35-.333.2-.567.483-.7.85l-1 2.1"/><path stroke="red" d="M73 24.5h.15"/></g><path fill="#acaba7" d="m206.9 139.6-16.8-15h61.2c-1.967.033-3.633.75-5 2.15l-10.15 9.45c-1.133 1.067-2.4 1.9-3.8 2.5-1.467.6-3 .9-4.6.9H206.9m-42.1-1.6-4.65 4.7v17.95l4.9 4.9v17.3c0 1.3.45 2.417 1.35 3.35.9.9 2.017 1.367 3.35 1.4l1.95-.45c4.5-2.1 8.983-4.183 13.45-6.25l8.4 3.95 23.25-4.1 5.95-6 4.55-.85.9-.05c1.467-.033 2.8.383 4 1.25 1.133.767 1.967 1.833 2.5 3.2l8.25 20.8c.333.867.883 1.567 1.65 2.1.767.5 1.617.767 2.55.8H.6l-.05-72.55 6.35-6.35h179.65c-1.267.033-2.333.533-3.2 1.5l-3.25 3.35c-.4.333-.867.5-1.4.5-.467 0-.9-.167-1.3-.5l-3.7-3.25c-.6-.533-1.283-.783-2.05-.75-.9 0-1.667.333-2.3 1l-3.2 3.2c-.9.967-1.35 2.117-1.35 3.45v6.4"/><path fill="#acaba7" d="M169.35 124.95c.633-.667 1.4-1 2.3-1 .767-.033 1.45.217 2.05.75l3.7 3.25c.4.333.833.5 1.3.5.533 0 1-.167 1.4-.5l3.25-3.35c.867-.967 1.933-1.467 3.2-1.5h.1c1.2 0 2.233.4 3.1 1.2l17.15 15.3h20.85c1.6 0 3.133-.3 4.6-.9 1.4-.6 2.667-1.433 3.8-2.5l10.15-9.45c1.367-1.4 3.033-2.117 5-2.15h.2c1.467 0 2.817.417 4.05 1.25 1.2.8 2.1 1.833 2.7 3.1l14.05 29.65c.667 1.367 1 2.8 1 4.3 0 1.6-.35 3.117-1.05 4.55l-3.45 6.45v6.55c0 1.3-.467 2.417-1.4 3.35l-16.9 17c-.933.767-2.017 1.167-3.25 1.2h-.1c-.933-.033-1.783-.3-2.55-.8-.767-.533-1.317-1.233-1.65-2.1l-8.25-20.8c-.533-1.367-1.367-2.433-2.5-3.2-1.2-.867-2.533-1.283-4-1.25l-.9.05-4.55.85-5.95 6-23.25 4.1-8.4-3.95-13.45 6.25-1.95.45c-1.333-.033-2.45-.5-3.35-1.4-.9-.933-1.35-2.05-1.35-3.35v-17.3l-4.9-4.9V142.7l4.65-4.7v-6.4c0-1.333.45-2.483 1.35-3.45l3.2-3.2"/><g fill="none"><path stroke="#fff" d="M.65 202h246.5c-.933-.033-1.783-.3-2.55-.8-.767-.533-1.317-1.233-1.65-2.1l-8.25-20.8c-.533-1.367-1.367-2.433-2.5-3.2-1.2-.867-2.533-1.283-4-1.25l-.9.05-4.55.85-5.95 6-23.25 4.1-8.4-3.95-13.45 6.25-1.95.45c-1.333-.033-2.45-.5-3.35-1.4-.9-.933-1.35-2.05-1.35-3.35v-17.3l-4.9-4.9V142.7l4.65-4.7v-6.4c0-1.333.45-2.483 1.35-3.45l3.2-3.2c.633-.667 1.4-1 2.3-1 .767-.033 1.45.217 2.05.75l3.7 3.25c.4.333.833.5 1.3.5.533 0 1-.167 1.4-.5l3.25-3.35.95-.8.2-.15.65-.3.75-.2.65-.05H6.9l-6.35 6.35L.6 202m185.95-78.9 1.25.15.25.05.95.45.75.55.35.3h61.4c1.467 0 2.817.417 4.05 1.25 1.2.8 2.1 1.833 2.7 3.1l14.05 29.65c.667 1.367 1 2.8 1 4.3 0 1.6-.35 3.117-1.05 4.55l-3.45 6.45v6.55c0 1.3-.467 2.417-1.4 3.35l-16.9 17c-.933.767-2.017 1.167-3.25 1.2h-.1m-57.05-77.4 16.8 15h20.85c1.6 0 3.133-.3 4.6-.9 1.4-.6 2.667-1.433 3.8-2.5l10.15-9.45c1.367-1.4 3.033-2.117 5-2.15"/><path stroke="red" d="M.6 202h.05"/></g><path fill="#acaba7" d="M34.6 191.55c-.967.8-1.45 1.85-1.45 3.15v20c0 1.767.617 3.317 1.85 4.65 1.233 1.267 2.733 1.9 4.5 1.9h4.95l3.35 3.35h14.8l3.45-2.85h20.9l1.55-1.5v15.3c-.033 1.267.183 2.483.65 3.65.467 1.133 1.1 2.15 1.9 3.05.833.867 1.817 1.533 2.95 2 1.067.467 2.2.717 3.4.75H.55v-68.6l6.35-6.35h82.5L77.25 180.8v8.9c0 1.533-.417 2.9-1.25 4.1-.8 1.133-1.883 1.967-3.25 2.5L54 203l-.95.15c-.767 0-1.417-.267-1.95-.8-.533-.533-.8-1.183-.8-1.95 0-1 .417-1.767 1.25-2.3l3.85-2.45c.767-.533 1.417-1.217 1.95-2.05.467-.867.7-1.8.7-2.8 0-1.233-.35-2.333-1.05-3.3-.733-.967-1.667-1.633-2.8-2l-6.1-1.95-1.7-.3c-1.2 0-2.25.4-3.15 1.2l-8.65 7.1"/><path fill="#acaba7" d="m34.6 191.55 8.65-7.1c.9-.8 1.95-1.2 3.15-1.2l1.7.3 6.1 1.95c1.133.367 2.067 1.033 2.8 2 .7.967 1.05 2.067 1.05 3.3 0 1-.233 1.933-.7 2.8-.533.833-1.183 1.517-1.95 2.05-1.3.8-2.583 1.617-3.85 2.45-.833.533-1.25 1.3-1.25 2.3 0 .767.267 1.417.8 1.95.533.533 1.183.8 1.95.8L54 203l18.75-6.7c1.367-.533 2.45-1.367 3.25-2.5.833-1.2 1.25-2.567 1.25-4.1v-8.9l12.15-10.75 8.1 1.4c1.267.233 2.317.833 3.15 1.8.833 1 1.267 2.15 1.3 3.45-.033 1.333-.5 2.533-1.4 3.6l-9.1 10.75v27.85h27.35c1.5-.033 2.783.5 3.85 1.6 1.067 1.067 1.617 2.367 1.65 3.9v3.4l-6.5 15.7-.85 1.05c-.467.267-.933.417-1.4.45H97.4c-1.2-.033-2.333-.283-3.4-.75-1.133-.467-2.117-1.133-2.95-2-.8-.9-1.433-1.917-1.9-3.05-.467-1.167-.683-2.383-.65-3.65v-15.3l-1.55 1.5h-20.9l-3.45 2.85H47.8l-3.35-3.35H39.5c-1.767 0-3.267-.633-4.5-1.9-1.233-1.333-1.85-2.883-1.85-4.65v-20c0-1.3.483-2.35 1.45-3.15"/><path fill="none" stroke="#fff" d="M.55 176.4V245H97.4c-1.2-.033-2.333-.283-3.4-.75-1.133-.467-2.117-1.133-2.95-2-.8-.9-1.433-1.917-1.9-3.05-.467-1.167-.683-2.383-.65-3.65v-15.3l-1.55 1.5h-20.9l-3.45 2.85H47.8l-3.35-3.35H39.5c-1.767 0-3.267-.633-4.5-1.9-1.233-1.333-1.85-2.883-1.85-4.65v-20c0-1.3.483-2.35 1.45-3.15l8.65-7.1c.9-.8 1.95-1.2 3.15-1.2l1.7.3 6.1 1.95c1.133.367 2.067 1.033 2.8 2 .7.967 1.05 2.067 1.05 3.3 0 1-.233 1.933-.7 2.8-.533.833-1.183 1.517-1.95 2.05l-3.85 2.45c-.833.533-1.25 1.3-1.25 2.3 0 .767.267 1.417.8 1.95.533.533 1.183.8 1.95.8L54 203l18.75-6.7c1.367-.533 2.45-1.367 3.25-2.5.833-1.2 1.25-2.567 1.25-4.1v-8.9l12.15-10.75H6.9L.55 176.4m88.85-6.35 8.1 1.4c1.267.233 2.317.833 3.15 1.8.833 1 1.267 2.15 1.3 3.45-.033 1.333-.5 2.533-1.4 3.6l-9.1 10.75v27.85h27.35c1.5-.033 2.783.5 3.85 1.6 1.067 1.067 1.617 2.367 1.65 3.9v3.4l-6.5 15.7-.85 1.05c-.467.267-.933.417-1.4.45H97.4"/><path fill="#a6c9c7" d="m165.85 300.45-6.6 6.6H.55V289.8l6.35-6.35h158.95v17"/><path fill="none" stroke="#fff" d="m165.85 300.45-6.6 6.6H.55V289.8l6.35-6.35h158.95v17Z"/><path fill="#acaba7" d="m10.38942924 310.5540952.91593659 4.18035087.81502832-4.18035087h1.25747227l.8538392 4.18035087.9392231-4.18035087h1.2186614l-1.6145323 5.7054048h-1.14103964l-.89265007-4.43581676-.89265007 4.43581676H10.7387271l-1.62229447-5.7054048h1.27299662M17.87051622 310.5540952V316.2595h-1.1876127v-5.7054048h1.1876127M23.57516473 312.36558058c0 .6708689-.17076784 1.1457258-.51230352 1.42441585-.34153568.27869006-.83055267.41803509-1.46705098.41803509h-1.21089922V316.2595h-1.1876127v-5.7054048h2.49165801c.57440092 0 1.03236921.14708642 1.37390489.44125926s.51230352.75091488.51230352 1.37022612m-1.42047794-.62705263c-.15524349-.12897157-.37522351-.19353476-.65978483-.19353476h-1.10999095v1.67988173h1.10999095c.28456132 0 .50454134-.06704044.65978483-.20127615.1552435-.13934503.23286524-.35610396.23286524-.6502768 0-.29928216-.07762175-.51093177-.23286524-.63479402M27.6871453 312.15656303c0 .33024772-.09826913.60893778-.29496263.83607018-.1241948.13934503-.25351262.23487379-.38810873.28643145.1035474 0 .24838959.08778737.43468177.26320727.28456132.25809796.4269196.61420193.4269196 1.0683119 0 .47485689-.1656448.89289197-.49677917 1.25410525-.33113436.35610397-.82015136.53415595-1.46705098.53415595-.79686483 0-1.35061836-.25809796-1.66110534-.77413905-.16036653-.27869006-.25102872-.63990334-.2716761-1.08379467h1.08670442c0 .22186825.03617173.40766162.10867044.55738012.13459611.26831659.38034656.4025523.73740658.4025523.21734089 0 .40627222-.07230459.56663874-.21675893.16036653-.1497185.24062741-.36384536.24062741-.64253541 0-.37158675-.15012045-.61931124-.45020612-.7431735l-.80726615-.10063807v-.78962183c.36218306-.00510932.61321179-.04133903.75293093-.10837947.24838958-.10837946.37258437-.32777047.37258437-.65801819 0-.21164962-.0620974-.38443745-.18629218-.51867316-.12931783-.13423571-.30784785-.20127616-.53559004-.20127616-.2587909 0-.45020613.08252323-.57440092.2477245-.12419479.16520127-.18365305.38443745-.17853001.6580182h-1.03236921c.01040131-.27869007.05945826-.54189734.14748132-.78962184.08802305-.22186825.2302261-.42577648.4269196-.61156985.14484217-.12897156.31561-.22960964.51230351-.30191423.20181654-.06704044.44756698-.10063807.73740658-.10063807.53822918 0 .97291095.13934503 1.30404531.41803508.32601133.27358074.489017.64516749.489017 1.11476023M31.3172735 310.38378461c.81766746 0 1.44376446.22186825 1.87844623.66575958.57440091.52130524.86160137 1.30566293.86160137 2.35338272 0 1.02186354-.28720046 1.80637605-.86160137 2.3533827-.43468177.44389134-1.06077877.66575959-1.87844623.66575959s-1.44112532-.22186825-1.87068406-.66575958c-.57952394-.54700666-.86936354-1.33151917-.86936354-2.35338271 0-1.0477198.2898396-1.83207748.86936354-2.35338272.42955874-.44389133 1.0530166-.66575958 1.87068406-.66575958m-1.13327748 1.53279532c-.27943828.3457305-.41915742.8411795-.41915742 1.48634698 0 .63990333.13971914 1.13535233.41915742 1.48634697.28456132.3457305.66242397.51867316 1.13327748.51867316.47613178 0 .8538392-.17294266 1.13327748-.51867316.27431524-.35099464.41139524-.84644364.41139524-1.48634697 0-.63990334-.13708-1.13535234-.41139524-1.48634698-.27943829-.35099465-.6571457-.52641455-1.13327748-.52641455-.4708535 0-.84871616.1754199-1.13327748.52641455M39.36527409 310.5540952v3.5068499c0 .60893777-.09578523 1.0811626-.28720046 1.41667446-.35193699.61931124-1.0219679.92896686-2.0104032.92896686-.99355833 0-1.66622837-.30965562-2.01816536-.92896686-.19141523-.33551186-.28720046-.80773669-.28720046-1.41667446v-3.5068499h1.2186614v3.5068499c0 .39217884.04657304.67861029.13971914.85929434.14484217.32002909.46060743.47996621.94698529.47996621.48125482 0 .79438094-.15993712.93922311-.4799662.0931461-.18068406.13971914-.4671155.13971914-.85929435v-3.5068499h1.2186614M44.53980014 310.5540952v1.01412216h-1.71544056V316.2595h-1.20313705v-4.69128264h-1.71544056v-1.01412216h4.63401817M49.88628914 310.44571573c.96250963 0 1.66622837.31476494 2.11131146.94444965.24326655.35610396.37522351.71220792.3958709 1.06831188h-1.19537487c-.07762175-.27358074-.17853002-.4799662-.3027248-.61931124-.2173409-.2477245-.53822919-.37158674-.96250965-.37158674-.43468177 0-.77885659.1754199-1.0323692.52641455-.24838959.3457305-.37258438.83870225-.37258438 1.47860559 0 .63990334.13195696 1.11986955.3958709 1.43989863.26391393.32002909.60032657.47996621 1.00908268.47996621.41915743 0 .74004572-.13671295.96250964-.4102937.11907176-.14971848.21998003-.37158674.3027248-.66575958h1.17985053c-.1035474.62442056-.36746134 1.13024302-.7917418 1.51731254-.42428046.39217885-.97027181.58834568-1.63781882.58834568-.8227905 0-1.46969012-.26320728-1.94054362-.78962183-.4708535-.53152387-.70635788-1.25673733-.70635788-2.17533073 0-.9960073.26903697-1.76503703.80726615-2.30693437.46573047-.46959275 1.05829487-.70446654 1.77753796-.70446654M54.26131122 310.5540952V316.2595h-1.1876127v-5.7054048h1.1876127M59.71757014 310.5540952v1.01412216h-1.71544056V316.2595h-1.20313705v-4.69128264h-1.71544056v-1.01412216h4.63401817M63.60532008 310.5540952h1.35061836l-1.90949493 3.56103963V316.2595h-1.19537487v-2.14436517l-1.9793545-3.56103963h1.40495359l1.1876127 2.48498635 1.14103965-2.48498635M72.21573473 312.36558058c0 .6708689-.17076784 1.1457258-.51230352 1.42441585-.34153568.27869006-.83055267.41803509-1.46705098.41803509h-1.21089922V316.2595h-1.1876127v-5.7054048h2.49165801c.57440092 0 1.03236921.14708642 1.37390489.44125926s.51230352.75091488.51230352 1.37022612m-1.42047794-.62705263c-.15524349-.12897157-.37522351-.19353476-.65978483-.19353476h-1.10999095v1.67988173h1.10999095c.28456132 0 .50454134-.06704044.65978483-.20127615.1552435-.13934503.23286524-.35610396.23286524-.6502768 0-.29928216-.07762175-.51093177-.23286524-.63479402M77.03407318 315.23763645V316.2595H73.0055046v-5.7054048h1.19537487v4.68354125h2.8331937M79.02785253 315.09055003l-.3958709 1.16894997h-1.2497101l2.0414519-5.7054048h1.35061836l2.02592755 5.7054048H81.5039862l-.3648222-1.16894997h-2.11131147m.32601133-.98315659h1.45152663l-.71412005-2.24500324-.73740658 2.24500324M88.02913061 310.5540952V316.2595h-1.19537487l-2.33641452-4.04874723V316.2595h-1.10999096v-5.7054048h1.2497101l2.2820793 3.9868161v-3.9868161h1.10999095M92.35321753 315.09055003l-.3958709 1.16894997h-1.2497101l2.0414519-5.7054048h1.35061836l2.02592755 5.7054048H94.8293512l-.3648222-1.16894997h-2.11131147m.32601133-.98315659h1.45152663l-.71412005-2.24500324-.73740658 2.24500324M99.4682872 313.31003022 101.3312091 316.2595h-1.45152663l-1.08670443-1.94308902L97.6441762 316.2595h-1.38942923l1.83963535-2.90302144-1.75425143-2.80238336h1.4282401l1.02460704 1.85793372 1.04789356-1.85793372h1.38166706l-1.75425144 2.75593502M104.4573935 310.38378461c.81766746 0 1.44376446.22186825 1.87844623.66575958.57440091.52130524.86160137 1.30566293.86160137 2.35338272 0 1.02186354-.28720046 1.80637605-.86160137 2.3533827-.43468178.44389134-1.06077877.66575959-1.87844623.66575959s-1.44112532-.22186825-1.87068406-.66575958c-.57952394-.54700666-.86936354-1.33151917-.86936354-2.35338271 0-1.0477198.2898396-1.83207748.86936354-2.35338272.42955874-.44389133 1.0530166-.66575958 1.87068406-.66575958m-1.13327748 1.53279532c-.27943828.3457305-.41915742.8411795-.41915742 1.48634698 0 .63990333.13971914 1.13535233.41915742 1.48634697.28456132.3457305.66242397.51867316 1.13327748.51867316.47613178 0 .8538392-.17294266 1.13327748-.51867316.27431524-.35099464.41139524-.84644364.41139524-1.48634697 0-.63990334-.13708-1.13535234-.41139524-1.48634698-.27943829-.35099465-.6571457-.52641455-1.13327748-.52641455-.4708535 0-.84871616.1754199-1.13327748.52641455M112.52868061 310.5540952V316.2595h-1.19537487l-2.33641452-4.04874723V316.2595h-1.10999096v-5.7054048h1.2497101l2.2820793 3.9868161v-3.9868161h1.10999095M116.0498635 310.38378461c.81766746 0 1.44376446.22186825 1.87844623.66575958.57440091.52130524.86160137 1.30566293.86160137 2.35338272 0 1.02186354-.28720046 1.80637605-.86160137 2.3533827-.43468177.44389134-1.06077877.66575959-1.87844623.66575959s-1.44112532-.22186825-1.87068406-.66575958c-.57952394-.54700666-.86936354-1.33151917-.86936354-2.35338271 0-1.0477198.2898396-1.83207748.86936354-2.35338272.42955874-.44389133 1.0530166-.66575958 1.87068406-.66575958m-1.13327748 1.53279532c-.27943828.3457305-.41915742.8411795-.41915742 1.48634698 0 .63990333.13971914 1.13535233.41915742 1.48634697.28456132.3457305.66242397.51867316 1.13327748.51867316.47613178 0 .8538392-.17294266 1.13327748-.51867316.27431524-.35099464.41139524-.84644364.41139524-1.48634697 0-.63990334-.13708-1.13535234-.41139524-1.48634698-.27943829-.35099465-.6571457-.52641455-1.13327748-.52641455-.4708535 0-.84871616.1754199-1.13327748.52641455M119.07573719 313.52678915h2.22774408v1.04508772h-2.22774408v-1.04508772M126.15341816 312.33461502c-.0931461-.38706953-.31561001-.6580182-.667547-.812846-.1966935-.08778737-.4140344-.13160364-.65202266-.13160364-.46060744 0-.83831485.1754199-1.13327748.52641455-.30008567.3457305-.45020612.86703574-.45020612 1.56376088 0 .70183446.16036653 1.19728346.48125482 1.48634698.3208883.29417284.6857105.44125926 1.0944666.44125926.40363308 0 .73228355-.11612086.98579616-.34836258.2587909-.23224171.41651829-.53415594.47349265-.90574269h-1.31956967v-.95219103h2.38298758V316.2595h-.7917418l-.1241948-.71220793c-.2277422.27358074-.43468177.46448343-.62097395.5728629-.31561002.19616684-.70371875.29417284-1.16432618.29417284-.75557007 0-1.37654403-.26320728-1.86292188-.78962183-.5019022-.52641455-.75293093-1.24636387-.75293093-2.15984795 0-.92385754.25351262-1.66439896.7606931-2.22177907.51230352-.55738012 1.1876127-.83607018 2.02592755-.83607018.72452137 0 1.30916835.18579337 1.75425144.55738012.4398048.36647742.69083353.82321946.75293092 1.37022612h-1.17208835M132.04353424 310.70118162c.21221785.09289669.39323176.2271324.54335222.4025523.1241948.14445435.22246392.3045463.29496263.47996622.0724987.1754199.10867044.37421881.10867044.59608707 0 .27358074-.06722043.54189733-.20181653.8051046-.13971915.25809797-.36746135.44125927-.68307136.54963873.26391393.10837947.45284526.2605752.56663874.45674204.10867044.1909027.16300566.4877076.16300566.89025991v.37932814l.0310487.53415594c.0310487.14445435.1035474.25283381.21734089.3251384V316.2595h-1.31956967l-.07762174-.30191423c-.0310487-.15993713-.04657305-.3251384-.04657305-.495449l-.00776218-.52641455c-.00512303-.36647742-.0724987-.60893777-.20181653-.7276907-.12931783-.12386225-.36994524-.18579337-.72188223-.18579337h-1.23418575V316.2595h-1.16432617v-5.7054048h2.802145c.40363307.01037346.71412005.05929905.93146093.14708642m-.59768743.94444964c-.12931783-.06704044-.3233722-.10063807-.5821631-.10063807h-1.38942923v1.53279531h1.35838054c.26903697 0 .4708535-.03096556.60544961-.09289668.23798827-.10837947.35706003-.32250633.35706003-.64253541 0-.3457305-.11643262-.57797222-.34929785-.69672515M135.13779753 315.09055003l-.3958709 1.16894997h-1.2497101l2.0414519-5.7054048h1.35061836l2.02592755 5.7054048h-1.29628314l-.3648222-1.16894997h-2.11131147m.32601133-.98315659h1.45152663l-.71412005-2.24500324-.73740658 2.24500324M143.92173473 312.36558058c0 .6708689-.17076784 1.1457258-.51230352 1.42441585-.34153568.27869006-.83055267.41803509-1.46705098.41803509h-1.21089922V316.2595h-1.1876127v-5.7054048h2.49165801c.57440092 0 1.03236921.14708642 1.37390489.44125926s.51230352.75091488.51230352 1.37022612m-1.42047794-.62705263c-.15524349-.12897157-.37522351-.19353476-.65978483-.19353476h-1.10999095v1.67988173h1.10999095c.28456132 0 .50454134-.06704044.65978483-.20127615.1552435-.13934503.23286524-.35610396.23286524-.6502768 0-.29928216-.07762175-.51093177-.23286524-.63479402M145.89135513 313.71258253V316.2595h-1.1876127v-5.7054048h1.1876127v2.17533073h2.23550626v-2.17533073h1.1876127V316.2595h-1.1876127v-2.54691747h-2.23550625M151.42294122 310.5540952V316.2595h-1.1876127v-5.7054048h1.1876127M155.05508914 310.44571573c.96250963 0 1.66622837.31476494 2.11131146.94444965.24326655.35610396.37522351.71220792.3958709 1.06831188h-1.19537487c-.07762175-.27358074-.17853002-.4799662-.30272481-.61931124-.21734089-.2477245-.53822918-.37158674-.96250964-.37158674-.43468177 0-.77885659.1754199-1.0323692.52641455-.24838959.3457305-.37258438.83870225-.37258438 1.47860559 0 .63990334.13195696 1.11986955.3958709 1.43989863.26391393.32002909.60032657.47996621 1.00908268.47996621.41915743 0 .74004572-.13671295.96250964-.4102937.11907176-.14971848.21998003-.37158674.3027248-.66575958h1.17985053c-.1035474.62442056-.36746134 1.13024302-.7917418 1.51731254-.42428046.39217885-.97027181.58834568-1.63781882.58834568-.8227905 0-1.46969012-.26320728-1.94054362-.78962183-.4708535-.53152387-.70635788-1.25673733-.70635788-2.17533073 0-.9960073.26903697-1.76503703.80726614-2.30693437.46573047-.46959275 1.05829488-.70446654 1.77753797-.70446654M159.81045777 315.10603282V316.2595h-1.17985053v-1.15346718h1.17985053m-1.17985053-2.89528005h1.17985053v1.15346718h-1.17985053v-1.15346718M13.40115294 317.7054952h1.71544057V323.4109h-1.10999096v-4.3196959l.00776218-.46448343L12.9276603 323.4109h-1.156564l-1.07894226-4.78417933.00776218.46448343V323.4109H9.58992526v-5.7054048h1.73872709l1.04013138 4.4900065 1.03236921-4.4900065M17.24118253 322.24195003l-.3958709 1.16894997h-1.2497101l2.0414519-5.7054048h1.35061836l2.02592755 5.7054048H19.7173162l-.3648222-1.16894997h-2.11131147m.32601133-.98315659h1.45152663l-.71412005-2.24500324-.73740658 2.24500324M25.9397358 318.55704816c.20181654.28379937.33889655.59097775.41139526.92122547.0724987.33024771.10867044.64516748.10867044.94444964 0 .75865627-.15260435 1.40119168-.4579683 1.92760623-.41403438.70709861-1.05301659 1.0605705-1.9172571 1.0605705h-2.46837149v-5.7054048h2.4683715l.88488789.12386225c.39851003.13423571.72188222.37669606.9702718.7276907m-3.15920501.13934504v3.72360883h1.10222878c.5639996 0 .9573866-.27605799 1.17985052-.82832879.11907176-.3045463.17853001-.66839165.17853001-1.09153606 0-.57797221-.09050695-1.02186354-.2716761-1.33151916-.18116916-.31476494-.54335222-.47222482-1.08670443-.47222482h-1.10222878M31.46355971 318.71961736h-3.02724805v1.20765692h2.77885847v.99089798h-2.77885847v1.4708642h3.1669672V323.4109h-4.33129338v-5.7054048h4.19157423v1.01412216M35.91652622 317.7054952V323.4109h-1.1876127v-5.7054048h1.1876127M41.83851561 317.7054952V323.4109h-1.19537487l-2.33641452-4.04874723V323.4109h-1.10999096v-5.7054048h1.2497101l2.2820793 3.9868161v-3.9868161h1.10999095M49.37995514 317.7054952v1.01412216h-1.71544056V323.4109h-1.20313705v-4.69128264h-1.71544056v-1.01412216h4.63401817M51.17968013 320.86398253V323.4109h-1.1876127v-5.7054048h1.1876127v2.17533073h2.23550626v-2.17533073h1.1876127V323.4109h-1.1876127v-2.54691747h-2.23550626M59.84718471 318.71961736h-3.02724805v1.20765692h2.77885847v.99089798h-2.77885847v1.4708642h3.1669672V323.4109h-4.33129338v-5.7054048h4.19157423v1.01412216M67.5292158 318.55704816c.20181654.28379937.33889655.59097775.41139526.92122547.0724987.33024771.10867044.64516748.10867044.94444964 0 .75865627-.15260435 1.40119168-.4579683 1.92760623-.41403438.70709861-1.05301659 1.0605705-1.9172571 1.0605705h-2.46837149v-5.7054048h2.4683715l.88488789.12386225c.39851003.13423571.72188222.37669606.9702718.7276907m-3.15920501.13934504v3.72360883h1.10222878c.5639996 0 .9573866-.27605799 1.17985052-.82832879.11907176-.3045463.17853001-.66839165.17853001-1.09153606 0-.57797221-.09050695-1.02186354-.2716761-1.33151916-.18116916-.31476494-.54335222-.47222482-1.08670443-.47222482h-1.10222878M73.05303971 318.71961736h-3.02724805v1.20765692h2.77885847v.99089798h-2.77885847v1.4708642h3.1669672V323.4109h-4.33129338v-5.7054048h4.19157423v1.01412216M76.65271677 318.67316901c-.1862922-.09289668-.41651829-.13934502-.69083353-.13934502-.31048698 0-.55623743.06193112-.73740658.18579337-.18629219.12386225-.27943828.2968049-.27943828.51867316 0 .20127615.09050695.3534719.2716761.45674204.11907176.06704044.36746134.14445435.74516876.23224171l.98579616.23998311c.43468177.10327015.7606931.2399831.97803398.4102937.34153568.2683166.51230352.65801819.51230352 1.16894996 0 .52130524-.1991774.9548231-.59768743 1.3005536-.39851004.34062119-.96250964.51093178-1.69215405.51093178-.74516875 0-1.33245487-.16767852-1.7620136-.50319038-.42428047-.34062118-.63649832-.80773669-.63649832-1.40119168h1.14103966c.03617173.25809796.1060313.45163272.2095787.58060428.1966935.23735104.53046701.35610397 1.00132052.35610397l.68307135-.09289669c.33641265-.11875293.50454135-.34062118.50454135-.66575958 0-.18579337-.08274478-.33024772-.24838959-.43351787-.1656448-.10327015-.4269196-.19353476-.78397962-.27094867l-.60544961-.13160364c-.5950483-.1342357-1.00644355-.28132213-1.23418575-.44125925-.38298569-.26320728-.57440091-.67350098-.57440091-1.2308811 0-.51093177.18629219-.93670824.55887656-1.27732943.37258438-.33551186.91857573-.50319038 1.63781882-.50319038.60544961 0 1.12039227.15993713 1.54467273.47996621.42428045.31476494.64689962.77677112.667547 1.3857089H77.1029229c-.02064739-.3457305-.17076784-.59097775-.45020612-.7354321M80.31449122 317.7054952V323.4109h-1.1876127v-5.7054048h1.1876127M85.46026316 319.48601502c-.0931461-.38706953-.31561001-.6580182-.667547-.812846-.1966935-.08778737-.4140344-.13160364-.65202266-.13160364-.46060744 0-.83831485.1754199-1.13327748.52641455-.30008567.3457305-.45020612.86703574-.45020612 1.56376088 0 .70183446.16036653 1.19728346.48125482 1.48634698.3208883.29417284.6857105.44125926 1.0944666.44125926.40363308 0 .73228355-.11612086.98579617-.34836258.2587909-.23224171.41651828-.53415594.47349264-.90574269h-1.31956967v-.95219103h2.38298758V323.4109h-.7917418l-.1241948-.71220793c-.2277422.27358074-.43468177.46448343-.62097395.5728629-.31561002.19616684-.70371875.29417284-1.16432618.29417284-.75557007 0-1.37654403-.26320728-1.86292188-.78962183-.5019022-.52641455-.75293093-1.24636387-.75293093-2.15984795 0-.92385754.25351262-1.66439896.7606931-2.22177907.51230352-.55738012 1.1876127-.83607018 2.02592755-.83607018.72452137 0 1.30916835.18579337 1.75425144.55738012.4398048.36647742.69083353.82321946.75293092 1.37022612h-1.17208835M92.21198061 317.7054952V323.4109h-1.19537487l-2.33641452-4.04874723V323.4109h-1.10999096v-5.7054048h1.2497101l2.2820793 3.9868161v-3.9868161h1.10999095M97.43307971 318.71961736h-3.02724805v1.20765692h2.77885847v.99089798h-2.77885847v1.4708642h3.1669672V323.4109h-4.33129338v-5.7054048h4.19157423v1.01412216M102.16603424 317.85258162c.21221785.09289669.39323176.2271324.54335222.4025523.12419479.14445435.22246392.3045463.29496263.47996622.0724987.1754199.10867044.37421881.10867044.59608707 0 .27358074-.06722043.54189733-.20181653.8051046-.13971915.25809797-.36746135.44125927-.68307136.54963873.26391393.10837947.45284526.2605752.56663874.45674204.10867044.1909027.16300566.4877076.16300566.89025991v.37932814l.0310487.53415594c.0310487.14445435.1035474.25283381.21734089.3251384V323.4109h-1.31956967l-.07762174-.30191423c-.0310487-.15993713-.04657305-.3251384-.04657305-.495449l-.00776218-.52641455c-.00512303-.36647742-.0724987-.60893777-.20181653-.7276907-.12931783-.12386225-.36994524-.18579337-.72188223-.18579337h-1.23418575V323.4109h-1.16432617v-5.7054048h2.802145c.40363307.01037346.71412005.05929905.93146093.14708642m-.59768743.94444964c-.12931783-.06704044-.3233722-.10063807-.58216309-.10063807h-1.38942924v1.53279531h1.35838054c.26903697 0 .4708535-.03096556.60544961-.09289668.23798827-.10837947.35706003-.32250633.35706003-.64253541 0-.3457305-.11643262-.57797222-.34929785-.69672515M106.64972677 318.67316901c-.1862922-.09289668-.41651829-.13934502-.69083353-.13934502-.31048698 0-.55623743.06193112-.73740658.18579337-.18629219.12386225-.27943828.2968049-.27943828.51867316 0 .20127615.09050695.3534719.2716761.45674204.11907176.06704044.36746134.14445435.74516876.23224171l.98579616.23998311c.43468177.10327015.7606931.2399831.97803398.4102937.34153568.2683166.51230352.65801819.51230352 1.16894996 0 .52130524-.1991774.9548231-.59768743 1.3005536-.39851004.34062119-.96250964.51093178-1.69215405.51093178-.74516875 0-1.33245487-.16767852-1.7620136-.50319038-.42428047-.34062118-.63649832-.80773669-.63649832-1.40119168h1.14103966c.03617173.25809796.1060313.45163272.2095787.58060428.1966935.23735104.53046701.35610397 1.00132052.35610397l.68307135-.09289669c.33641265-.11875293.50454135-.34062118.50454135-.66575958 0-.18579337-.08274478-.33024772-.24838959-.43351787-.1656448-.10327015-.4269196-.19353476-.78397962-.27094867l-.60544961-.13160364c-.5950483-.1342357-1.00644355-.28132213-1.23418575-.44125925-.38298569-.26320728-.57440091-.67350098-.57440091-1.2308811 0-.51093177.18629219-.93670824.55887656-1.27732943.37258438-.33551186.91857573-.50319038 1.63781882-.50319038.60544961 0 1.12039227.15993713 1.54467273.47996621.42428045.31476494.64689962.77677112.667547 1.3857089h-1.14880182c-.02064739-.3457305-.17076784-.59097775-.45020612-.7354321M115.37188924 317.85258162c.21221785.09289669.39323176.2271324.54335222.4025523.12419479.14445435.22246392.3045463.29496263.47996622.0724987.1754199.10867044.37421881.10867044.59608707 0 .27358074-.06722043.54189733-.20181653.8051046-.13971915.25809797-.36746135.44125927-.68307136.54963873.26391393.10837947.45284526.2605752.56663874.45674204.10867044.1909027.16300566.4877076.16300566.89025991v.37932814l.0310487.53415594c.0310487.14445435.1035474.25283381.21734089.3251384V323.4109h-1.31956967l-.07762174-.30191423c-.0310487-.15993713-.04657305-.3251384-.04657305-.495449l-.00776218-.52641455c-.00512303-.36647742-.0724987-.60893777-.20181653-.7276907-.12931783-.12386225-.36994524-.18579337-.72188223-.18579337h-1.23418575V323.4109h-1.16432617v-5.7054048h2.802145c.40363307.01037346.71412005.05929905.93146093.14708642m-.59768743.94444964c-.12931783-.06704044-.3233722-.10063807-.58216309-.10063807h-1.38942924v1.53279531h1.35838054c.26903697 0 .4708535-.03096556.60544961-.09289668.23798827-.10837947.35706003-.32250633.35706003-.64253541 0-.3457305-.11643262-.57797222-.34929785-.69672515M121.45458971 318.71961736h-3.02724805v1.20765692h2.77885847v.99089798h-2.77885847v1.4708642h3.1669672V323.4109h-4.33129338v-5.7054048h4.19157423v1.01412216M126.83180473 319.51698058c0 .6708689-.17076784 1.1457258-.51230352 1.42441585-.34153568.27869006-.83055267.41803509-1.46705098.41803509H123.641551V323.4109h-1.1876127v-5.7054048h2.49165801c.57440092 0 1.03236921.14708642 1.37390489.44125926s.51230352.75091488.51230352 1.37022612m-1.42047794-.62705263c-.15524349-.12897157-.37522351-.19353476-.65978483-.19353476h-1.10999095v1.67988173h1.10999095c.28456132 0 .50454134-.06704044.65978483-.20127615.1552435-.13934503.23286524-.35610396.23286524-.6502768 0-.29928216-.07762175-.51093177-.23286524-.63479402M132.22454409 317.7054952v3.5068499c0 .60893777-.09578523 1.0811626-.28720046 1.41667446-.35193699.61931124-1.0219679.92896686-2.0104032.92896686-.99355833 0-1.66622837-.30965562-2.01816536-.92896686-.19141523-.33551186-.28720046-.80773669-.28720046-1.41667446v-3.5068499h1.2186614v3.5068499c0 .39217884.04657304.67861029.13971914.85929434.14484217.32002909.46060743.47996621.94698529.47996621.48125482 0 .79438094-.15993712.93922311-.4799662.0931461-.18068406.13971914-.4671155.13971914-.85929435v-3.5068499h1.2186614M137.53102711 318.31706505c.17589087.24261518.26391393.53152387.26391393.86703574 0 .35099464-.08802306.63216195-.26391393.84381156-.09826913.11875293-.24326655.2271324-.43468177.3251384.2898396.10327015.50966438.27094867.65978483.50319038.15012045.2271324.22510306.50582246.22510306.83607018 0 .33551186-.08538392.6374261-.25615176.90574269-.10867044.18068405-.24575044.33024772-.41139525.44900065-.18116915.13934503-.3958709.23487378-.64426048.28643145l-.81502832.0774139h-2.59256629v-5.7054048h2.77885848c.6985957.01037346 1.19537487.21412686 1.4903375.61156985m-1.1876127.47222482-.68307135-.09289668h-1.25747227v1.26184665h1.40495358c.24838958 0 .45284526-.04644835.61321179-.13934503.15524349-.098006.23286523-.26583935.23286523-.50319038 0-.2683166-.1035474-.44389134-.31048698-.52641456m-1.94054362 3.63071215h1.40495358c.24838958 0 .44244395-.03359764.58216309-.10063808.25351262-.12386225.38034655-.36121328.38034655-.71220793 0-.29417284-.12155565-.49808106-.3648222-.61156985-.13971914-.06193112-.3337735-.09289668-.58216309-.09289668h-1.42047793v1.51731254M142.88408318 322.38903645V323.4109h-4.02856857v-5.7054048h1.19537487v4.68354125h2.8331937M144.73038122 317.7054952V323.4109h-1.1876127v-5.7054048h1.1876127M148.36252914 317.59711573c.96250963 0 1.66622837.31476494 2.11131146.94444965.24326655.35610396.37522351.71220792.3958709 1.06831188h-1.19537487c-.07762175-.27358074-.17853002-.4799662-.3027248-.61931124-.2173409-.2477245-.53822919-.37158674-.96250965-.37158674-.43468177 0-.77885659.1754199-1.0323692.52641455-.24838959.3457305-.37258438.83870225-.37258438 1.47860559 0 .63990334.13195696 1.11986955.3958709 1.43989863.26391393.32002909.60032657.47996621 1.00908268.47996621.41915743 0 .74004572-.13671295.96250964-.4102937.11907176-.14971848.21998003-.37158674.3027248-.66575958h1.17985053c-.1035474.62442056-.36746134 1.13024302-.7917418 1.51731254-.42428046.39217885-.97027181.58834568-1.63781882.58834568-.8227905 0-1.46969012-.26320728-1.94054362-.78962183-.4708535-.53152387-.70635788-1.25673733-.70635788-2.17533073 0-.9960073.26903697-1.76503703.80726615-2.30693437.46573047-.46959275 1.05829487-.70446654 1.77753796-.70446654M3.55 317.65l3.15 3.15-3.15 3.1h-3v-6.25h3M3.55 310.25l3.15 3.15-3.15 3.1h-3v-6.25h3"/></svg>