<svg
      xmlns="http://www.w3.org/2000/svg"
      xmlns:xlink="http://www.w3.org/1999/xlink"
      width="572"
      height="324"
      fill="none"
      class="world-map w-full h-auto"
      viewBox="0 0 572 324"
    >
      <defs>
        <path id="reuse-0" fill="#fff" d="M0 0h49.05v6.2H0z" />
      </defs>
      <g id="Group">
        <g id="mega-mall" class="track-group">
          <g id="shape0">
            <path
              id="Vector"
              fill="#ACABA7"
              d="M443.9 171.6c-.667.833-.983 1.8-.95 2.9v10.15c-.033.567-.317.967-.85 1.2l-7.35 2.8a8.725 8.725 0 0 0-4 3.1c-1.067 1.467-1.583 3.117-1.55 4.95a7.398 7.398 0 0 0 .65 3.3 8.508 8.508 0 0 0 1.85 2.75c.8.767 1.7 1.383 2.7 1.85a8.823 8.823 0 0 0 3.35.65l2.7-.4 21.65-7h5.65l9.95 33.9.05.7c0 .633-.2 1.167-.6 1.6l-8.8 9.65c-1.067 1.167-1.583 2.55-1.55 4.15-.033 1.7.583 3.183 1.85 4.45 1.233 1.233 2.7 1.85 4.4 1.85 1.4 0 2.65-.417 3.75-1.25l8.25-6.05c.6-.5 1.267-.733 2-.7.767-.033 1.467.2 2.1.7.567.467.95 1.067 1.15 1.8l5.45 17.55c.367.967.967 1.75 1.8 2.35.833.633 1.767.95 2.8.95l.65-.05 5.35 2.45H.55v-98.6l6.35-6.35h449.35l-2 .3-8.05 2.55a4.75 4.75 0 0 0-2.3 1.8Zm73.1 42.25c-1.033.133-1.933.6-2.7 1.4l-.95 1c-.6.567-1 1.217-1.2 1.95a4.312 4.312 0 0 0-.2 2.25l-9.3-6.6H517Z"
              class="track-linked"
            />
          </g>
          <g id="shape1">
            <path
              id="Vector_2"
              fill="#ACABA7"
              d="M443.9 171.6a4.75 4.75 0 0 1 2.3-1.8l8.05-2.55 2-.3h.15c1.633 0 3.1.5 4.4 1.5a6.99 6.99 0 0 1 2.55 3.75l6.7 22.8h5.8l36.1 25.45a4.312 4.312 0 0 1 .2-2.25c.2-.733.6-1.383 1.2-1.95l.95-1c.767-.8 1.667-1.267 2.7-1.4l.75-.05c1.333 0 2.483.483 3.45 1.45.967.933 1.45 2.083 1.45 3.45 0 1.333-.483 2.483-1.45 3.45l-1 .95c-.733.733-1.583 1.2-2.55 1.4l-.7.05h-2l9.6 31.6.25 1.7c0 1.233-.317 2.35-.95 3.35-.7 1.033-1.567 1.8-2.6 2.3l-2.15.9-1.7 3.75-11.05 3.75-5.35-2.45-.65.05a4.515 4.515 0 0 1-2.8-.95 5.036 5.036 0 0 1-1.8-2.35l-5.45-17.55a3.446 3.446 0 0 0-1.15-1.8c-.633-.5-1.333-.733-2.1-.7-.733-.033-1.4.2-2 .7l-8.25 6.05c-1.1.833-2.35 1.25-3.75 1.25-1.7 0-3.167-.617-4.4-1.85-1.267-1.267-1.883-2.75-1.85-4.45-.033-1.6.483-2.983 1.55-4.15l8.8-9.65c.4-.433.6-.967.6-1.6l-.05-.7-9.95-33.9h-5.65l-21.65 7-2.7.4a8.823 8.823 0 0 1-3.35-.65c-1-.467-1.9-1.083-2.7-1.85a8.508 8.508 0 0 1-1.85-2.75 7.398 7.398 0 0 1-.65-3.3c-.033-1.833.483-3.483 1.55-4.95a8.725 8.725 0 0 1 4-3.1l7.35-2.8c.533-.233.817-.633.85-1.2V174.5c-.033-1.1.283-2.067.95-2.9Z"
              class="track-linked"
            />
          </g>
          <g id="shape2">
            <path
              id="Vector_3"
              stroke="#fff"
              d="m456.25 166.95-2 .3-8.05 2.55a4.75 4.75 0 0 0-2.3 1.8c-.667.833-.983 1.8-.95 2.9v10.15c-.033.567-.317.967-.85 1.2l-7.35 2.8a8.725 8.725 0 0 0-4 3.1c-1.067 1.467-1.583 3.117-1.55 4.95a7.398 7.398 0 0 0 .65 3.3 8.508 8.508 0 0 0 1.85 2.75c.8.767 1.7 1.383 2.7 1.85a8.823 8.823 0 0 0 3.35.65l2.7-.4 21.65-7h5.65l9.95 33.9.05.7c0 .633-.2 1.167-.6 1.6l-8.8 9.65c-1.067 1.167-1.583 2.55-1.55 4.15-.033 1.7.583 3.183 1.85 4.45 1.233 1.233 2.7 1.85 4.4 1.85 1.4 0 2.65-.417 3.75-1.25l8.25-6.05c.6-.5 1.267-.733 2-.7.767-.033 1.467.2 2.1.7.567.467.95 1.067 1.15 1.8l5.45 17.55c.367.967.967 1.75 1.8 2.35.833.633 1.767.95 2.8.95l.65-.05 5.35 2.45m-50.1-104.95H6.9L.55 173.3v98.6h505.8m-50.1-104.95h.15c1.633 0 3.1.5 4.4 1.5a6.99 6.99 0 0 1 2.55 3.75l6.7 22.8h5.8l26.8 18.85m3.7 58.05 11.05-3.75 1.7-3.75 2.15-.9c1.033-.5 1.9-1.267 2.6-2.3.633-1 .95-2.117.95-3.35l-.25-1.7-9.6-31.6m-12.3-10.7H517m-14.35 0 9.3 6.6a4.312 4.312 0 0 1 .2-2.25c.2-.733.6-1.383 1.2-1.95l.95-1c.767-.8 1.667-1.267 2.7-1.4m0 0 .75-.05c1.333 0 2.483.483 3.45 1.45.967.933 1.45 2.083 1.45 3.45 0 1.333-.483 2.483-1.45 3.45l-1 .95c-.733.733-1.583 1.2-2.55 1.4l-.7.05h-2m0 0-.15-.35 1.8.35"
            />
          </g>
          <g id="mega-mall-txt" class="track-text">
            <g id="mega-mall-txt_2" clipPath="url(#clip0_1_815)">
              <g id="Group_2">
                <g id="Group_3">
                  <g id="font_Helvetica_M0">
                    <path
                      id="Vector_4"
                      fill="#fff"
                      d="M397.183 171.113h1.435v4.787h-.929V172.276l.007-.39-.91 4.014h-.967l-.903-4.014.006.39V175.9h-.928v-4.787h1.454l.871 3.767.864-3.767Z"
                      clip-rule="evenodd"
                      fill-rule="evenodd"
                    />
                  </g>
                  <g id="font_Helvetica_E0">
                    <path
                      id="Vector_5"
                      fill="#fff"
                      d="M402.896 171.964h-2.533v1.013h2.326v.832h-2.326v1.234h2.65v.857h-3.624v-4.787h3.507v.851Z"
                      clip-rule="evenodd"
                      fill-rule="evenodd"
                    />
                  </g>
                  <g id="font_Helvetica_G0">
                    <path
                      id="Vector_6"
                      fill="#fff"
                      d="M406.928 172.607a.945.945 0 0 0-.558-.682 1.319 1.319 0 0 0-.546-.11c-.385 0-.701.147-.948.441-.251.29-.377.728-.377 1.312 0 .589.134 1.005.403 1.247.268.247.573.371.915.371.338 0 .613-.098.825-.293a1.24 1.24 0 0 0 .397-.76h-1.105v-.799h1.994v2.566h-.662l-.104-.598c-.191.23-.364.39-.52.481-.264.165-.589.247-.974.247-.632 0-1.152-.221-1.559-.663-.42-.441-.63-1.045-.63-1.812 0-.775.212-1.396.637-1.864.428-.467.994-.701 1.695-.701.606 0 1.095.156 1.468.467.368.308.578.691.63 1.15h-.981Z"
                      clip-rule="evenodd"
                      fill-rule="evenodd"
                    />
                  </g>
                  <g id="font_Helvetica_A0">
                    <path
                      id="Vector_7"
                      fill="#fff"
                      d="m409.746 174.919-.331.981h-1.046l1.708-4.787h1.13l1.695 4.787h-1.084l-.306-.981h-1.766Zm.273-.825h1.214l-.597-1.883-.617 1.883Z"
                      clip-rule="evenodd"
                      fill-rule="evenodd"
                    />
                  </g>
                  <g id="font_Helvetica_M0_2">
                    <path
                      id="Vector_8"
                      fill="#fff"
                      d="M418.333 171.113h1.435v4.787h-.929V172.276l.007-.39-.91 4.014h-.967l-.903-4.014.006.39V175.9h-.928v-4.787h1.454l.871 3.767.864-3.767Z"
                      clip-rule="evenodd"
                      fill-rule="evenodd"
                    />
                  </g>
                  <g id="font_Helvetica_A0_2">
                    <path
                      id="Vector_9"
                      fill="#fff"
                      d="m421.546 174.919-.331.981h-1.046l1.708-4.787h1.13l1.695 4.787h-1.084l-.306-.981h-1.766Zm.273-.825h1.214l-.597-1.883-.617 1.883Z"
                      clip-rule="evenodd"
                      fill-rule="evenodd"
                    />
                  </g>
                  <g id="font_Helvetica_L0">
                    <path
                      id="Vector_10"
                      fill="#fff"
                      d="M428.578 175.043v.857h-3.371v-4.787h1v3.93h2.371Z"
                      clip-rule="evenodd"
                      fill-rule="evenodd"
                    />
                  </g>
                  <g id="font_Helvetica_L0_2">
                    <path
                      id="Vector_11"
                      fill="#fff"
                      d="M432.578 175.043v.857h-3.371v-4.787h1v3.93h2.371Z"
                      clip-rule="evenodd"
                      fill-rule="evenodd"
                    />
                  </g>
                </g>
              </g>
            </g>
            <g id="mega-mall-shape" clipPath="url(#clip1_1_815)">
              <g id="Group_4">
                <path
                  id="Vector_12"
                  fill="#fff"
                  d="m390.15 173.15-3.2 3.1H383V170h3.95l3.2 3.15Z"
                  clip-rule="evenodd"
                  fill-rule="evenodd"
                />
              </g>
            </g>
          </g>
        </g>
        <g id="terminal" class="track-group">
          <g id="shape3">
            <path
              id="Vector_13"
              fill="#ACABA7"
              d="M518.7 123c1.433-1.2 3.15-1.867 5.15-2l24.25-1.3c2 0 3.6.95 4.8 2.85l2.5 4.25a6.627 6.627 0 0 0 2.2 2.1c.9.433 1.85.667 2.85.7h-44.5l.25-1.9c.233-1.933 1.067-3.5 2.5-4.7Zm17.35-33c-.067-1.467-.55-2.717-1.45-3.75h29.6l-18.45 1.3c-3.933.267-7.167 1.083-9.7 2.45Zm-45.75 7.8c-2.067.2-3.783 1.083-5.15 2.65-1.4 1.533-2.1 3.35-2.1 5.45v.6l3.8 50.55c.167 1.767.917 3.25 2.25 4.45 1.267 1.2 2.75 1.817 4.45 1.85H.5v-73.2l6.4-6.35h522.35c-1.8.033-3.333.683-4.6 1.95-1.3 1.267-1.95 2.85-1.95 4.75 0 1.667.55 3.117 1.65 4.35L490.3 97.8Z"
              class="track-linked"
            />
          </g>
          <g id="shape4">
            <path
              id="Vector_14"
              fill="#ACABA7"
              d="m490.3 97.8 34.05-2.95c-1.1-1.233-1.65-2.683-1.65-4.35 0-1.9.65-3.483 1.95-4.75 1.267-1.267 2.8-1.917 4.6-1.95h.15c1.767 0 3.283.6 4.55 1.8l.65.65c.9 1.033 1.383 2.283 1.45 3.75 2.533-1.367 5.767-2.183 9.7-2.45l18.45-1.3c1.9-.133 3.567.517 5 1.95 1.367 1.433 2.05 3.15 2.05 5.15l.1 8.05c0 1.367-.467 2.483-1.4 3.35l-2.9 2.7v15.85c0 1.733-.633 3.217-1.9 4.45-1.233 1.233-2.733 1.85-4.5 1.85h-.2a7.04 7.04 0 0 1-2.85-.7 6.627 6.627 0 0 1-2.2-2.1l-2.5-4.25c-1.2-1.9-2.8-2.85-4.8-2.85l-24.25 1.3c-2 .133-3.717.8-5.15 2-1.433 1.2-2.267 2.767-2.5 4.7l-.35 2.8c-.133.8-.45 1.467-.95 2-.5.5-1.117.8-1.85.9l-10.9 1.1c-.667.033-1.233.317-1.7.85-.5.5-.75 1.117-.75 1.85l.95 19.25c0 1.9-.667 3.533-2 4.9-1.367 1.333-3 2-4.9 2h-.2c-1.7-.033-3.183-.65-4.45-1.85-1.333-1.2-2.083-2.683-2.25-4.45l-3.8-50.55v-.6c0-2.1.7-3.917 2.1-5.45 1.367-1.567 3.083-2.45 5.15-2.65Z"
              class="track-linked"
            />
          </g>
          <g id="shape5">
            <path
              id="Vector_15"
              stroke="#fff"
              d="M528.75 83.8c-1.6.133-2.967.783-4.1 1.95-1.3 1.267-1.95 2.85-1.95 4.75 0 1.667.55 3.117 1.65 4.35L490.3 97.8c-2.067.2-3.783 1.083-5.15 2.65-1.4 1.533-2.1 3.35-2.1 5.45v.6l3.8 50.55c.167 1.767.917 3.25 2.25 4.45 1.267 1.2 2.75 1.817 4.45 1.85m35.2-79.55H6.9L.5 90.15v73.2h493.05m35.2-79.55h.65c1.767 0 3.283.6 4.55 1.8l.65.65m-41.05 77.1h.2c1.9 0 3.533-.667 4.9-2 1.333-1.367 2-3 2-4.9l-.95-19.25c0-.733.25-1.35.75-1.85.467-.533 1.033-.817 1.7-.85l10.9-1.1c.733-.1 1.35-.4 1.85-.9.5-.533.817-1.2.95-2l.1-.9m18.65-43.35h29.6m-29.6 0c.9 1.033 1.383 2.283 1.45 3.75 2.533-1.367 5.767-2.183 9.7-2.45l18.45-1.3m0 0c1.9-.133 3.567.517 5 1.95 1.367 1.433 2.05 3.15 2.05 5.15l.1 8.05c0 1.367-.467 2.483-1.4 3.35l-2.9 2.7v15.85c0 1.733-.633 3.217-1.9 4.45-1.233 1.233-2.733 1.85-4.5 1.85h-44.7m0 0 .25-1.9c.233-1.933 1.067-3.5 2.5-4.7 1.433-1.2 3.15-1.867 5.15-2l24.25-1.3c2 0 3.6.95 4.8 2.85l2.5 4.25a6.627 6.627 0 0 0 2.2 2.1c.9.433 1.85.667 2.85.7"
            />
          </g>
          <g id="terminal-txt" class="track-text">
            <g id="terminal-bar" clipPath="url(#clip2_1_815)">
              <g id="Group_5">
                <path
                  id="Vector_16"
                  fill="#fff"
                  d="M359 87h45.9l3.15 3.1-3.15 3.1H359V87Z"
                  clip-rule="evenodd"
                  fill-rule="evenodd"
                />
              </g>
            </g>
            <g id="terminal-txt_2" clipPath="url(#clip3_1_815)">
              <g id="Group_6">
                <g id="Group_7">
                  <g id="font_Helvetica_T0">
                    <path
                      id="Vector_17"
                      fill="#fff"
                      d="M415.888 88.013v.851h-1.435V92.8h-1.007v-3.936h-1.436v-.85h3.878Z"
                      clip-rule="evenodd"
                      fill-rule="evenodd"
                    />
                  </g>
                  <g id="font_Helvetica_E0_2">
                    <path
                      id="Vector_18"
                      fill="#fff"
                      d="M419.946 88.864h-2.533v1.013h2.326v.832h-2.326v1.234h2.65v.857h-3.624v-4.787h3.507v.851Z"
                      clip-rule="evenodd"
                      fill-rule="evenodd"
                    />
                  </g>
                  <g id="font_Helvetica_R0">
                    <path
                      id="Vector_19"
                      fill="#fff"
                      d="M423.907 88.137c.177.078.329.19.454.337.104.122.187.256.247.403.061.147.091.314.091.5 0 .23-.056.455-.169.676a.98.98 0 0 1-.571.46c.221.092.379.22.474.384.091.16.136.41.136.747v.318l.026.448a.41.41 0 0 0 .182.273v.117h-1.104l-.065-.253a2.181 2.181 0 0 1-.039-.416l-.007-.442c-.004-.307-.06-.51-.168-.61-.109-.104-.31-.156-.604-.156h-1.033V92.8h-.974v-4.787h2.344c.338.009.598.05.78.124Zm-.5.792c-.109-.056-.271-.085-.488-.085h-1.162v1.287h1.136c.226 0 .395-.026.507-.078.199-.091.299-.271.299-.54 0-.29-.098-.484-.292-.584Z"
                      clip-rule="evenodd"
                      fill-rule="evenodd"
                    />
                  </g>
                  <g id="font_Helvetica_M0_3">
                    <path
                      id="Vector_20"
                      fill="#fff"
                      d="M428.633 88.013h1.435V92.8h-.929v-3.624l.007-.39-.91 4.014h-.967l-.903-4.014.006.39V92.8h-.928v-4.787h1.455l.87 3.767.864-3.767Z"
                      clip-rule="evenodd"
                      fill-rule="evenodd"
                    />
                  </g>
                  <g id="font_Helvetica_I0">
                    <path
                      id="Vector_21"
                      fill="#fff"
                      d="M431.722 88.013V92.8h-.993v-4.787h.993Z"
                      clip-rule="evenodd"
                      fill-rule="evenodd"
                    />
                  </g>
                  <g id="font_Helvetica_N0">
                    <path
                      id="Vector_22"
                      fill="#fff"
                      d="M436.678 88.013V92.8h-1.001l-1.955-3.397V92.8h-.928v-4.787h1.045l1.91 3.345v-3.345h.929Z"
                      clip-rule="evenodd"
                      fill-rule="evenodd"
                    />
                  </g>
                  <g id="font_Helvetica_A0_3">
                    <path
                      id="Vector_23"
                      fill="#fff"
                      d="m438.546 91.82-.331.98h-1.046l1.708-4.787h1.13l1.695 4.787h-1.084l-.306-.98h-1.766Zm.273-.826h1.214l-.597-1.883-.617 1.883Z"
                      clip-rule="evenodd"
                      fill-rule="evenodd"
                    />
                  </g>
                  <g id="font_Helvetica_L0_3">
                    <path
                      id="Vector_24"
                      fill="#fff"
                      d="M445.578 91.943v.857h-3.371v-4.787h1v3.93h2.371Z"
                      clip-rule="evenodd"
                      fill-rule="evenodd"
                    />
                  </g>
                </g>
              </g>
            </g>
          </g>
        </g>
        <g id="manor-top" class="track-group">
          <g id="shape6">
            <path
              id="Vector_25"
              fill="#ACABA7"
              d="m283.9 14-6.7 11c-.6.967-.9 2.05-.9 3.25 0 .733.117 1.433.35 2.1l1.3 3.95.3 1.9c0 1-.2 1.9-.6 2.7a5.212 5.212 0 0 1-1.8 2l-7.5 4.95a9.193 9.193 0 0 0-2.8 3.2 9.311 9.311 0 0 0-1.05 4.3c0 1.267.25 2.467.75 3.6a9.111 9.111 0 0 0 1.95 3 8.942 8.942 0 0 0 2.95 1.95c1.133.467 2.35.717 3.65.75a9.609 9.609 0 0 0 4.4-1.15l11.85-6.6 32.3 18.65h6l8.1 4.9-2.9 5.35-8.4 3.7c-2.033.833-3.633 2.167-4.8 4-1.267 1.8-1.883 3.85-1.85 6.15-.033 1.5.233 2.933.8 4.3a11.314 11.314 0 0 0 2.4 3.5 11.57 11.57 0 0 0 3.55 2.35l2.3.7H.55V6.85L6.9.5h295.8L283.9 14Z"
              class="track-linked"
            />
          </g>
          <g id="shape7">
            <path
              id="Vector_26"
              fill="#ACABA7"
              d="M304.55 3.95 326.25 15l4.2 6.65 14.15 7.7-6.75 11.55 7.45 4.5 2-.35 2.3 1.15-7.2 12.15 12.75 7.55c1.233.733 2.217 1.75 2.95 3.05.7 1.267 1.05 2.683 1.05 4.25 0 1.467-.35 2.883-1.05 4.25l-4.3 7.75v6.65l-10.1 13.25-11.1 3.1-3.05.5-2-.2-2.3-.7a11.57 11.57 0 0 1-3.55-2.35 11.314 11.314 0 0 1-2.4-3.5 10.497 10.497 0 0 1-.8-4.3c-.033-2.3.583-4.35 1.85-6.15 1.167-1.833 2.767-3.167 4.8-4l8.4-3.7 2.9-5.35-8.1-4.9h-6l-32.3-18.65-11.85 6.6a9.609 9.609 0 0 1-4.4 1.15l-3.65-.75-2.95-1.95a9.111 9.111 0 0 1-1.95-3 8.818 8.818 0 0 1-.75-3.6c0-1.5.35-2.933 1.05-4.3a9.193 9.193 0 0 1 2.8-3.2l7.5-4.95a5.212 5.212 0 0 0 1.8-2c.4-.8.6-1.7.6-2.7 0-.633-.1-1.267-.3-1.9l-1.3-3.95a6.322 6.322 0 0 1-.35-2.1c0-1.2.3-2.283.9-3.25l6.7-11L302.7.5l1.85 3.45Z"
              class="track-linked"
            />
          </g>
          <g id="shape8">
            <path
              id="Vector_27"
              stroke="#fff"
              d="m302.7.5 1.85 3.45L326.25 15l4.2 6.65 14.15 7.7-6.75 11.55 7.45 4.5 2-.35 2.3 1.15-7.2 12.15 12.75 7.55c1.233.733 2.217 1.75 2.95 3.05.7 1.267 1.05 2.683 1.05 4.25 0 1.467-.35 2.883-1.05 4.25l-4.3 7.75v6.65l-10.1 13.25-11.1 3.1-3.05.5-2-.2M302.7.5H6.9L.55 6.85V108.5h327M302.7.5 283.9 14l-6.7 11c-.6.967-.9 2.05-.9 3.25 0 .733.117 1.433.35 2.1l1.3 3.95.3 1.9c0 1-.2 1.9-.6 2.7a5.212 5.212 0 0 1-1.8 2l-7.5 4.95a9.193 9.193 0 0 0-2.8 3.2 9.311 9.311 0 0 0-1.05 4.3c0 1.267.25 2.467.75 3.6a9.111 9.111 0 0 0 1.95 3 8.942 8.942 0 0 0 2.95 1.95l3.65.75a9.609 9.609 0 0 0 4.4-1.15l11.85-6.6 32.3 18.65h6l8.1 4.9-2.9 5.35-8.4 3.7c-2.033.833-3.633 2.167-4.8 4-1.267 1.8-1.883 3.85-1.85 6.15-.033 1.5.233 2.933.8 4.3a11.314 11.314 0 0 0 2.4 3.5 11.57 11.57 0 0 0 3.55 2.35l2.3.7"
            />
          </g>
          <g id="manor-top-txt" class="track-text">
            <g id="manor-top-txt_2">
              <g id="font_Helvetica_M0_4">
                <path
                  id="Vector_28"
                  fill="#fff"
                  d="M109.199 5.89h1.435v4.787h-.929V7.053l.007-.39-.909 4.014h-.968l-.903-4.014.006.39v3.624h-.928V5.89h1.455l.87 3.767.864-3.767Z"
                  clip-rule="evenodd"
                  fill-rule="evenodd"
                />
              </g>
              <g id="font_Helvetica_A0_4">
                <path
                  id="Vector_29"
                  fill="#fff"
                  d="m112.412 9.696-.331.981h-1.046l1.708-4.787h1.13l1.695 4.787h-1.084l-.306-.98h-1.766Zm.273-.825h1.214l-.597-1.883-.617 1.883Z"
                  clip-rule="evenodd"
                  fill-rule="evenodd"
                />
              </g>
              <g id="font_Helvetica_N0_2">
                <path
                  id="Vector_30"
                  fill="#fff"
                  d="M119.944 5.89v4.787h-1.001l-1.955-3.397v3.397h-.928V5.89h1.045l1.91 3.345V5.89h.929Z"
                  clip-rule="evenodd"
                  fill-rule="evenodd"
                />
              </g>
              <g id="font_Helvetica_O0">
                <path
                  id="Vector_31"
                  fill="#fff"
                  d="M122.89 5.747c.684 0 1.208.186 1.572.559.48.437.721 1.095.721 1.974 0 .858-.241 1.516-.721 1.975-.364.372-.888.558-1.572.558s-1.206-.186-1.565-.558c-.485-.46-.728-1.117-.728-1.975 0-.879.243-1.537.728-1.974.359-.373.881-.559 1.565-.559Zm-.948 1.286c-.234.29-.351.706-.351 1.247 0 .537.117.953.351 1.247.238.29.554.436.948.436.398 0 .714-.146.948-.436.23-.294.345-.71.345-1.247 0-.537-.115-.952-.345-1.247-.234-.294-.55-.441-.948-.441-.394 0-.71.147-.948.441Z"
                  clip-rule="evenodd"
                  fill-rule="evenodd"
                />
              </g>
              <g id="font_Helvetica_R0_2">
                <path
                  id="Vector_32"
                  fill="#fff"
                  d="M128.923 6.014c.177.078.329.19.454.337.104.122.187.256.247.403.061.147.091.314.091.5 0 .23-.056.455-.169.676a.98.98 0 0 1-.571.46c.221.092.379.22.474.384.091.16.136.41.136.747v.318l.026.448a.41.41 0 0 0 .182.273v.117h-1.104l-.065-.253a2.181 2.181 0 0 1-.039-.416l-.006-.442c-.005-.307-.061-.51-.169-.61-.109-.104-.31-.156-.604-.156h-1.033v1.877h-.974V5.89h2.344c.338.009.598.05.78.124Zm-.5.792c-.109-.056-.271-.084-.488-.084h-1.162v1.286h1.137c.225 0 .394-.026.506-.078.199-.091.299-.271.299-.54 0-.29-.098-.484-.292-.584Z"
                  clip-rule="evenodd"
                  fill-rule="evenodd"
                />
              </g>
              <g id="font_Helvetica_T0_2">
                <path
                  id="Vector_33"
                  fill="#fff"
                  d="M135.954 5.89v.851h-1.435v3.936h-1.007V6.741h-1.436v-.85h3.878Z"
                  clip-rule="evenodd"
                  fill-rule="evenodd"
                />
              </g>
              <g id="font_Helvetica_O01">
                <path
                  id="Vector_34"
                  fill="#fff"
                  d="M138.49 5.747c.684 0 1.208.186 1.572.559.48.437.721 1.095.721 1.974 0 .858-.241 1.516-.721 1.975-.364.372-.888.558-1.572.558s-1.206-.186-1.565-.558c-.485-.46-.728-1.117-.728-1.975 0-.879.243-1.537.728-1.974.359-.373.881-.559 1.565-.559Zm-.948 1.286c-.234.29-.351.706-.351 1.247 0 .537.117.953.351 1.247.238.29.554.436.948.436.398 0 .714-.146.948-.436.23-.294.345-.71.345-1.247 0-.537-.115-.952-.345-1.247-.234-.294-.55-.441-.948-.441-.394 0-.71.147-.948.441Z"
                  clip-rule="evenodd"
                  fill-rule="evenodd"
                />
              </g>
              <g id="font_Helvetica_P0">
                <path
                  id="Vector_35"
                  fill="#fff"
                  d="M145.062 7.41c0 .563-.143.961-.429 1.195-.286.234-.695.35-1.227.35h-1.014v1.722h-.993V5.89h2.085c.48 0 .863.124 1.149.37.286.247.429.63.429 1.15Zm-1.189-.526c-.13-.108-.314-.162-.552-.162h-.929V8.13h.929c.238 0 .422-.056.552-.169.13-.117.195-.299.195-.545 0-.252-.065-.43-.195-.533Z"
                  clip-rule="evenodd"
                  fill-rule="evenodd"
                />
              </g>
            </g>
            <g id="Group_8">
              <path
                id="Vector_36"
                fill="#fff"
                d="m101.891 8.405-3.05 3H6.591v-6.25h92.25l3.05 3.05v.2Z"
                clip-rule="evenodd"
                fill-rule="evenodd"
              />
            </g>
          </g>
        </g>
        <g id="p-mar-project" class="track-group">
          <g id="shape9">
            <path
              id="Vector_37"
              fill="#ACABA7"
              d="M283.3 109.5c-1.5.633-2.8 1.5-3.9 2.6-1.167 1.1-2.05 2.4-2.65 3.9-.633 1.5-.95 3.083-.95 4.75 0 2.8.833 5.3 2.5 7.5 1.667 2.167 3.833 3.617 6.5 4.35l2.95.85 1.4 4.35a6.105 6.105 0 0 0 1.95 3.1 7.133 7.133 0 0 0 3.3 1.7l3.95.7 2.1 4.1a10.114 10.114 0 0 0 2.35 3.3l32.85 29.6c.633.533.95 1.25.95 2.15a2.977 2.977 0 0 1-.9 2.05c-.567.6-1.267.9-2.1.9-.733 0-1.367-.233-1.9-.7l-6.25-5.3h-8.7l-2.25-2.25c-1.1-1.067-2.4-1.6-3.9-1.6h-6l-10.1-10.05c-1.533-1.6-3.4-2.383-5.6-2.35-2.233.033-4.133.817-5.7 2.35-1.6 1.567-2.383 3.467-2.35 5.7.033 2.167.817 4.067 2.35 5.7l5.4 5.3 4.65 1.25 10.15 10.1a7.911 7.911 0 0 0 2.3 1.6c.9.367 1.833.55 2.8.55h5.8l4.8 9.8a4.36 4.36 0 0 0 1.65 1.9c.767.467 1.6.717 2.5.75h6.05l8.6-6.35c.833-.6 1.75-.9 2.75-.9 1.267 0 2.35.433 3.25 1.3.9.9 1.35 1.983 1.35 3.25v5.6l-13.2 13.2c-1.367 1.367-2.05 3.017-2.05 4.95 0 1.967.683 3.633 2.05 5 1.333 1.333 2.95 2.017 4.85 2.05H.5l.05-121.4 6.35-6.35h280.85c-1.567.033-3.05.367-4.45 1Z"
              class="track-linked"
            />
          </g>
          <g id="shape10">
            <path
              id="Vector_38"
              fill="#ACABA7"
              d="M349.95 158.45h17.3l-13.2.6c-1.4 0-2.767-.2-4.1-.6Z"
            />
          </g>
          <g id="shape11">
            <path
              id="Vector_39"
              fill="#ACABA7"
              d="m296.15 111.55 48.55 44a14.152 14.152 0 0 0 4.25 2.55l1 .35 4.1.6 13.2-.6a10.08 10.08 0 0 1 4.1.75 9.43 9.43 0 0 1 3.35 2.25c1 1 1.783 2.133 2.35 3.4.533 1.3.817 2.683.85 4.15-.033 2.667-.917 5.017-2.65 7.05-1.767 1.933-3.933 3.083-6.5 3.45l-12.9 2-1.4 3.8 10.35 8.2v14.85l-3.5 3.5 4.55 4.5-10.7 10.7h-5.95l-7.2 7.15c-1.367 1.367-3 2.05-4.9 2.05h-.2c-1.9-.033-3.517-.717-4.85-2.05-1.367-1.367-2.05-3.033-2.05-5 0-1.933.683-3.583 2.05-4.95l13.2-13.2v-5.6c0-1.267-.45-2.35-1.35-3.25-.9-.867-1.983-1.3-3.25-1.3-1 0-1.917.3-2.75.9l-8.6 6.35h-6.05a5.088 5.088 0 0 1-2.5-.75 4.36 4.36 0 0 1-1.65-1.9l-4.8-9.8h-5.8l-2.8-.55a7.911 7.911 0 0 1-2.3-1.6l-10.15-10.1-4.65-1.25-5.4-5.3c-1.533-1.633-2.317-3.533-2.35-5.7-.033-2.233.75-4.133 2.35-5.7 1.567-1.533 3.467-2.317 5.7-2.35 2.2-.033 4.067.75 5.6 2.35l10.1 10.05h6c1.5 0 2.8.533 3.9 1.6l2.25 2.25h8.7l6.25 5.3c.533.467 1.167.7 1.9.7.833 0 1.533-.3 2.1-.9.567-.567.867-1.25.9-2.05 0-.9-.317-1.617-.95-2.15l-32.85-29.6c-1-.933-1.783-2.033-2.35-3.3l-2.1-4.1-3.95-.7a7.133 7.133 0 0 1-3.3-1.7 6.105 6.105 0 0 1-1.95-3.1l-1.4-4.35-2.95-.85c-2.667-.733-4.833-2.183-6.5-4.35-1.667-2.2-2.5-4.7-2.5-7.5 0-1.667.317-3.25.95-4.75.6-1.5 1.483-2.8 2.65-3.9 1.1-1.1 2.4-1.967 3.9-2.6 1.4-.633 2.883-.967 4.45-1h.3c3.2 0 5.9 1.017 8.1 3.05Z"
              class="track-linked"
            />
          </g>
          <g id="shape12">
            <path
              id="Vector_40"
              stroke="#fff"
              d="m349.95 158.45-1-.35a14.152 14.152 0 0 1-4.25-2.55l-48.55-44c-2.2-2.033-4.9-3.05-8.1-3.05H6.9l-6.35 6.35-.05 121.4h336.6c1.9 0 3.533-.683 4.9-2.05l7.2-7.15h5.95l10.7-10.7-4.55-4.5 3.5-3.5V193.5l-10.35-8.2 1.4-3.8 12.9-2c2.567-.367 4.733-1.517 6.5-3.45 1.733-2.033 2.617-4.383 2.65-7.05a11.527 11.527 0 0 0-.85-4.15 11.304 11.304 0 0 0-2.35-3.4 9.43 9.43 0 0 0-3.35-2.25 10.08 10.08 0 0 0-4.1-.75m-17.3 0h17.3m-17.3 0c1.333.4 2.7.6 4.1.6l13.2-.6m-30.35 77.8c-1.9-.033-3.517-.717-4.85-2.05-1.367-1.367-2.05-3.033-2.05-5 0-1.933.683-3.583 2.05-4.95l13.2-13.2v-5.6c0-1.267-.45-2.35-1.35-3.25-.9-.867-1.983-1.3-3.25-1.3-1 0-1.917.3-2.75.9l-8.6 6.35h-6.05a5.088 5.088 0 0 1-2.5-.75 4.36 4.36 0 0 1-1.65-1.9l-4.8-9.8h-5.8l-2.8-.55a7.911 7.911 0 0 1-2.3-1.6l-10.15-10.1-4.65-1.25-5.4-5.3c-1.533-1.633-2.317-3.533-2.35-5.7-.033-2.233.75-4.133 2.35-5.7 1.567-1.533 3.467-2.317 5.7-2.35 2.2-.033 4.067.75 5.6 2.35l10.1 10.05h6c1.5 0 2.8.533 3.9 1.6l2.25 2.25h8.7l6.25 5.3c.533.467 1.167.7 1.9.7.833 0 1.533-.3 2.1-.9.567-.567.867-1.25.9-2.05 0-.9-.317-1.617-.95-2.15l-32.85-29.6c-1-.933-1.783-2.033-2.35-3.3l-2.1-4.1-3.95-.7a7.133 7.133 0 0 1-3.3-1.7 6.105 6.105 0 0 1-1.95-3.1l-1.4-4.35-2.95-.85c-2.667-.733-4.833-2.183-6.5-4.35-1.667-2.2-2.5-4.7-2.5-7.5 0-1.667.317-3.25.95-4.75.6-1.5 1.483-2.8 2.65-3.9 1.1-1.1 2.4-1.967 3.9-2.6 1.4-.633 2.883-.967 4.45-1"
            />
          </g>
          <g id="p-mar-txt" class="track-text">
            <g id="bar" clipPath="url(#clip4_1_815)">
              <g id="Group_9">
                <path
                  id="Vector_41"
                  fill="#fff"
                  d="M154 113h45.9l3.15 3.1-3.15 3.1H154V113Z"
                  clip-rule="evenodd"
                  fill-rule="evenodd"
                />
              </g>
            </g>
            <g id="text" clipPath="url(#clip5_1_815)">
              <g id="Group_10">
                <g id="Group_11">
                  <g id="font_Helvetica_P0_2">
                    <path
                      id="Vector_42"
                      fill="#fff"
                      d="M211.646 115.683c0 .563-.143.961-.429 1.195-.286.234-.695.351-1.227.351h-1.014v1.721h-.993v-4.787h2.085c.48 0 .863.124 1.149.37.286.247.429.63.429 1.15Zm-1.189-.526c-.13-.108-.314-.162-.552-.162h-.929v1.409h.929c.238 0 .422-.056.552-.169.13-.117.195-.299.195-.545 0-.252-.065-.429-.195-.533Z"
                      clip-rule="evenodd"
                      fill-rule="evenodd"
                    />
                  </g>
                  <g id="font_Helvetica_-0">
                    <path
                      id="Vector_43"
                      fill="#fff"
                      d="M211.956 116.657h1.864v.877h-1.864v-.877Z"
                      clip-rule="evenodd"
                      fill-rule="evenodd"
                    />
                  </g>
                  <g id="font_Helvetica_M0_5">
                    <path
                      id="Vector_44"
                      fill="#fff"
                      d="M217.833 114.163h1.435v4.787h-.929V115.326l.007-.39-.91 4.014h-.967l-.903-4.014.006.39V118.95h-.928v-4.787h1.455l.87 3.767.864-3.767Z"
                      clip-rule="evenodd"
                      fill-rule="evenodd"
                    />
                  </g>
                  <g id="font_Helvetica_A0_5">
                    <path
                      id="Vector_45"
                      fill="#fff"
                      d="m221.046 117.969-.331.981h-1.046l1.708-4.787h1.13l1.695 4.787h-1.084l-.306-.981h-1.766Zm.273-.825h1.214l-.597-1.883-.617 1.883Z"
                      clip-rule="evenodd"
                      fill-rule="evenodd"
                    />
                  </g>
                  <g id="font_Helvetica_R0_3">
                    <path
                      id="Vector_46"
                      fill="#fff"
                      d="M227.857 114.287c.177.078.329.19.454.337.104.122.187.256.247.403.061.147.091.314.091.5 0 .23-.056.455-.169.676a.981.981 0 0 1-.571.461c.221.091.379.218.474.383.091.16.136.409.136.747v.318l.026.448a.41.41 0 0 0 .182.273v.117h-1.104l-.065-.253a2.19 2.19 0 0 1-.039-.416l-.007-.442c-.004-.307-.06-.511-.168-.61-.109-.104-.31-.156-.604-.156h-1.033v1.877h-.974v-4.787h2.344c.338.009.598.05.78.124Zm-.5.792c-.109-.056-.271-.084-.488-.084h-1.162v1.286h1.136c.226 0 .395-.026.507-.078.199-.091.299-.271.299-.539 0-.291-.098-.485-.292-.585Z"
                      clip-rule="evenodd"
                      fill-rule="evenodd"
                    />
                  </g>
                  <g id="font_Helvetica_P0_3">
                    <path
                      id="Vector_47"
                      fill="#fff"
                      d="M235.096 115.683c0 .563-.143.961-.429 1.195-.286.234-.695.351-1.227.351h-1.014v1.721h-.993v-4.787h2.085c.48 0 .863.124 1.149.37.286.247.429.63.429 1.15Zm-1.189-.526c-.13-.108-.314-.162-.552-.162h-.929v1.409h.929c.238 0 .422-.056.552-.169.13-.117.195-.299.195-.545 0-.252-.065-.429-.195-.533Z"
                      clip-rule="evenodd"
                      fill-rule="evenodd"
                    />
                  </g>
                  <g id="font_Helvetica_R0_4">
                    <path
                      id="Vector_48"
                      fill="#fff"
                      d="M238.907 114.287c.177.078.329.19.454.337.104.122.187.256.247.403.061.147.091.314.091.5 0 .23-.056.455-.169.676a.981.981 0 0 1-.571.461c.221.091.379.218.474.383.091.16.136.409.136.747v.318l.026.448a.41.41 0 0 0 .182.273v.117h-1.104l-.065-.253a2.19 2.19 0 0 1-.039-.416l-.007-.442c-.004-.307-.06-.511-.168-.61-.109-.104-.31-.156-.604-.156h-1.033v1.877h-.974v-4.787h2.344c.338.009.598.05.78.124Zm-.5.792c-.109-.056-.271-.084-.488-.084h-1.162v1.286h1.136c.226 0 .395-.026.507-.078.199-.091.299-.271.299-.539 0-.291-.098-.485-.292-.585Z"
                      clip-rule="evenodd"
                      fill-rule="evenodd"
                    />
                  </g>
                  <g id="font_Helvetica_O0_2">
                    <path
                      id="Vector_49"
                      fill="#fff"
                      d="M242.574 114.02c.684 0 1.208.186 1.572.559.48.437.721 1.095.721 1.974 0 .858-.241 1.516-.721 1.975-.364.372-.888.558-1.572.558s-1.206-.186-1.565-.558c-.485-.459-.728-1.117-.728-1.975 0-.879.243-1.537.728-1.974.359-.373.881-.559 1.565-.559Zm-.948 1.286c-.234.29-.351.706-.351 1.247 0 .537.117.953.351 1.247.238.29.554.436.948.436.398 0 .714-.146.948-.436.23-.294.345-.71.345-1.247 0-.537-.115-.952-.345-1.247-.234-.294-.55-.441-.948-.441-.394 0-.71.147-.948.441Z"
                      clip-rule="evenodd"
                      fill-rule="evenodd"
                    />
                  </g>
                  <g id="font_Helvetica_J0">
                    <path
                      id="Vector_50"
                      fill="#fff"
                      d="M246.041 117.138v.11c.009.368.05.628.124.78.073.151.229.227.467.227.234 0 .39-.082.468-.247.043-.099.065-.264.065-.493v-3.352h1v3.332c0 .407-.069.73-.208.968-.238.403-.669.604-1.292.604-.619 0-1.035-.162-1.247-.487-.213-.325-.319-.769-.319-1.332v-.11h.942Z"
                      clip-rule="evenodd"
                      fill-rule="evenodd"
                    />
                  </g>
                  <g id="font_Helvetica_E0_3">
                    <path
                      id="Vector_51"
                      fill="#fff"
                      d="M252.696 115.014h-2.533v1.013h2.326v.832h-2.326v1.234h2.65v.857h-3.624v-4.787h3.507v.851Z"
                      clip-rule="evenodd"
                      fill-rule="evenodd"
                    />
                  </g>
                  <g id="font_Helvetica_C0">
                    <path
                      id="Vector_52"
                      fill="#fff"
                      d="M255.462 114.072c.805 0 1.394.264 1.766.793.204.298.314.597.332.896h-1.001c-.065-.23-.149-.403-.253-.52-.182-.207-.45-.311-.805-.311a1.01 1.01 0 0 0-.864.441c-.208.29-.312.704-.312 1.241 0 .537.11.939.331 1.208.221.268.503.403.845.403.35 0 .619-.115.805-.345.1-.125.184-.311.253-.558h.988c-.087.524-.308.948-.663 1.273-.355.329-.812.493-1.37.493-.689 0-1.23-.22-1.624-.662-.394-.446-.591-1.054-.591-1.825 0-.836.225-1.481.675-1.936.39-.394.886-.591 1.488-.591Z"
                      clip-rule="evenodd"
                      fill-rule="evenodd"
                    />
                  </g>
                  <g id="font_Helvetica_T0_3">
                    <path
                      id="Vector_53"
                      fill="#fff"
                      d="M261.688 114.163v.851h-1.435v3.936h-1.007v-3.936h-1.436v-.851h3.878Z"
                      clip-rule="evenodd"
                      fill-rule="evenodd"
                    />
                  </g>
                </g>
              </g>
            </g>
          </g>
        </g>
        <g id="porto-kora" class="track-group">
          <g id="shape13">
            <path
              id="Vector_54"
              fill="#ACABA7"
              d="M280.6 265.05a3.736 3.736 0 0 1-.9 2.35l-7.15 8.65c-1.1 1.367-1.65 2.9-1.65 4.6 0 .967.183 1.883.55 2.75a7.63 7.63 0 0 0 1.5 2.3l5.55 5.6c1.1 1.1 2.45 1.683 4.05 1.75H241.9l17.8-11.85 2.85-9.3 12.45-9.65c.6-.467 1.283-.7 2.05-.7.967-.033 1.817.317 2.55 1.05.667.667 1 1.483 1 2.45Zm-44.4-37.25c-2.433 1.067-4.383 2.667-5.85 4.8-1.5 2.233-2.233 4.717-2.2 7.45v10.85l-5.5 6.9c-.4.5-.6 1.067-.6 1.7l.05.65 2.4 8.5.1.95c0 1.033-.383 1.917-1.15 2.65l-4.05 4.05-4 11.35c-.2.5-.3 1.033-.3 1.6 0 1 .283 1.917.85 2.75l2.85 4.3a9.789 9.789 0 0 0 3.55 3.25c1.4.767 2.9 1.183 4.5 1.25H.55v-80.7l6.35-6.35h262.6a12.54 12.54 0 0 0-4.8 1.05l-28.5 13Z"
              class="track-linked"
            />
          </g>
          <g id="shape14">
            <path
              id="Vector_55"
              fill="#ACABA7"
              d="m236.2 227.8 28.5-13a12.54 12.54 0 0 1 4.8-1.05h.35c2.6 0 4.967.733 7.1 2.2 2.1 1.467 3.617 3.383 4.55 5.75l18.05 47.2c.5 1.333.75 2.717.75 4.15 0 1.633-.333 3.2-1 4.7-.6 1.4-1.45 2.65-2.55 3.75l-10 9.9c-1.167 1.067-2.517 1.617-4.05 1.65h-.15c-1.6-.067-2.95-.65-4.05-1.75l-5.55-5.6a7.63 7.63 0 0 1-1.5-2.3 6.98 6.98 0 0 1-.55-2.75c0-1.7.55-3.233 1.65-4.6l7.15-8.65c.567-.667.867-1.45.9-2.35 0-.967-.333-1.783-1-2.45-.733-.733-1.583-1.083-2.55-1.05-.767 0-1.45.233-2.05.7l-12.45 9.65-2.85 9.3-27.05 18c-1.667 1.067-3.5 1.6-5.5 1.6h-.3c-1.6-.067-3.1-.483-4.5-1.25a9.789 9.789 0 0 1-3.55-3.25l-2.85-4.3a4.783 4.783 0 0 1-.85-2.75l.3-1.6 4-11.35 4.05-4.05c.767-.733 1.15-1.617 1.15-2.65l-.1-.95-2.4-8.5-.05-.65c0-.633.2-1.2.6-1.7l5.5-6.9v-10.85c-.033-2.733.7-5.217 2.2-7.45 1.467-2.133 3.417-3.733 5.85-4.8Z"
              class="track-linked"
            />
          </g>
          <g id="shape15">
            <path
              id="Vector_56"
              stroke="#fff"
              d="M269 213.75c-1.5.1-2.933.45-4.3 1.05l-28.5 13c-2.433 1.067-4.383 2.667-5.85 4.8-1.5 2.233-2.233 4.717-2.2 7.45v10.85l-5.5 6.9c-.4.5-.6 1.067-.6 1.7l.05.65 2.4 8.5.1.95c0 1.033-.383 1.917-1.15 2.65l-4.05 4.05-4 11.35c-.2.5-.3 1.033-.3 1.6 0 1 .283 1.917.85 2.75l2.85 4.3a9.789 9.789 0 0 0 3.55 3.25c1.4.767 2.9 1.183 4.5 1.25M269 213.75H6.9L.55 220.1v80.7h226.3M269 213.75h.85c2.6 0 4.967.733 7.1 2.2 2.1 1.467 3.617 3.383 4.55 5.75l18.05 47.2c.5 1.333.75 2.717.75 4.15 0 1.633-.333 3.2-1 4.7-.6 1.4-1.45 2.65-2.55 3.75l-10 9.9c-1.167 1.067-2.517 1.617-4.05 1.65h-40.8m-15.05 7.75h.7c1.833-.067 3.533-.6 5.1-1.6l9.25-6.15m0 0 17.8-11.85 2.85-9.3 12.45-9.65c.6-.467 1.283-.7 2.05-.7.967-.033 1.817.317 2.55 1.05.667.667 1 1.483 1 2.45a3.736 3.736 0 0 1-.9 2.35l-7.15 8.65c-1.1 1.367-1.65 2.9-1.65 4.6 0 .967.183 1.883.55 2.75a7.63 7.63 0 0 0 1.5 2.3l5.55 5.6c1.1 1.1 2.45 1.683 4.05 1.75"
            />
          </g>
          <g id="porto-kora-txt" class="track-text">
            <g id="porto-shape" clipPath="url(#clip6_1_815)">
              <g id="Group_12">
                <path
                  id="Vector_57"
                  fill="#fff"
                  d="M130 219h45.9l3.15 3.1-3.15 3.1H130V219Z"
                  clip-rule="evenodd"
                  fill-rule="evenodd"
                />
              </g>
            </g>
            <g id="porto-text" clipPath="url(#clip7_1_815)">
              <g id="Group_13">
                <g id="Group_14">
                  <g id="font_Helvetica_P0_4">
                    <path
                      id="Vector_58"
                      fill="#fff"
                      d="M185.646 221.683c0 .563-.143.961-.429 1.195-.286.234-.695.351-1.227.351h-1.014v1.721h-.993v-4.787h2.085c.48 0 .863.124 1.149.37.286.247.429.63.429 1.15Zm-1.189-.526c-.13-.108-.314-.162-.552-.162h-.929v1.409h.929c.238 0 .422-.056.552-.169.13-.117.195-.299.195-.545 0-.252-.065-.429-.195-.533Z"
                      clip-rule="evenodd"
                      fill-rule="evenodd"
                    />
                  </g>
                  <g id="font_Helvetica_O0_3">
                    <path
                      id="Vector_59"
                      fill="#fff"
                      d="M188.424 220.02c.684 0 1.208.186 1.572.559.48.437.721 1.095.721 1.974 0 .858-.241 1.516-.721 1.975-.364.372-.888.558-1.572.558s-1.206-.186-1.565-.558c-.485-.459-.728-1.117-.728-1.975 0-.879.243-1.537.728-1.974.359-.373.881-.559 1.565-.559Zm-.948 1.286c-.234.29-.351.706-.351 1.247 0 .537.117.953.351 1.247.238.29.554.436.948.436.398 0 .714-.146.948-.436.23-.294.345-.71.345-1.247 0-.537-.115-.952-.345-1.247-.234-.294-.55-.441-.948-.441-.394 0-.71.147-.948.441Z"
                      clip-rule="evenodd"
                      fill-rule="evenodd"
                    />
                  </g>
                  <g id="font_Helvetica_R0_5">
                    <path
                      id="Vector_60"
                      fill="#fff"
                      d="M194.457 220.287c.177.078.329.19.454.337.104.122.187.256.247.403.061.147.091.314.091.5 0 .23-.056.455-.169.676a.981.981 0 0 1-.571.461c.221.091.379.218.474.383.091.16.136.409.136.747v.318l.026.448a.41.41 0 0 0 .182.273v.117h-1.104l-.065-.253a2.19 2.19 0 0 1-.039-.416l-.007-.442c-.004-.307-.06-.511-.168-.61-.109-.104-.31-.156-.604-.156h-1.033v1.877h-.974v-4.787h2.344c.338.009.598.05.78.124Zm-.5.792c-.109-.056-.271-.084-.488-.084h-1.162v1.286h1.137c.225 0 .394-.026.506-.078.199-.091.299-.271.299-.539 0-.291-.098-.485-.292-.585Z"
                      clip-rule="evenodd"
                      fill-rule="evenodd"
                    />
                  </g>
                  <g id="font_Helvetica_T0_4">
                    <path
                      id="Vector_61"
                      fill="#fff"
                      d="M199.488 220.163v.851h-1.435v3.936h-1.007v-3.936h-1.436v-.851h3.878Z"
                      clip-rule="evenodd"
                      fill-rule="evenodd"
                    />
                  </g>
                  <g id="font_Helvetica_O0_4">
                    <path
                      id="Vector_62"
                      fill="#fff"
                      d="M202.024 220.02c.684 0 1.208.186 1.572.559.48.437.721 1.095.721 1.974 0 .858-.241 1.516-.721 1.975-.364.372-.888.558-1.572.558s-1.206-.186-1.565-.558c-.485-.459-.728-1.117-.728-1.975 0-.879.243-1.537.728-1.974.359-.373.881-.559 1.565-.559Zm-.948 1.286c-.234.29-.351.706-.351 1.247 0 .537.117.953.351 1.247.238.29.554.436.948.436.398 0 .714-.146.948-.436.23-.294.345-.71.345-1.247 0-.537-.115-.952-.345-1.247-.234-.294-.55-.441-.948-.441-.394 0-.71.147-.948.441Z"
                      clip-rule="evenodd"
                      fill-rule="evenodd"
                    />
                  </g>
                  <g id="font_Helvetica_K0">
                    <path
                      id="Vector_63"
                      fill="#fff"
                      d="M207.907 223.352v1.598h-.981v-4.787h.981v1.975l1.851-1.975h1.292l-1.961 1.975 2.059 2.812h-1.286l-1.475-2.091-.48.493Z"
                      clip-rule="evenodd"
                      fill-rule="evenodd"
                    />
                  </g>
                  <g id="font_Helvetica_O0_5">
                    <path
                      id="Vector_64"
                      fill="#fff"
                      d="M213.724 220.02c.684 0 1.208.186 1.572.559.48.437.721 1.095.721 1.974 0 .858-.241 1.516-.721 1.975-.364.372-.888.558-1.572.558s-1.206-.186-1.565-.558c-.485-.459-.728-1.117-.728-1.975 0-.879.243-1.537.728-1.974.359-.373.881-.559 1.565-.559Zm-.948 1.286c-.234.29-.351.706-.351 1.247 0 .537.117.953.351 1.247.238.29.554.436.948.436.398 0 .714-.146.948-.436.23-.294.345-.71.345-1.247 0-.537-.115-.952-.345-1.247-.234-.294-.55-.441-.948-.441-.394 0-.71.147-.948.441Z"
                      clip-rule="evenodd"
                      fill-rule="evenodd"
                    />
                  </g>
                  <g id="font_Helvetica_R0_6">
                    <path
                      id="Vector_65"
                      fill="#fff"
                      d="M219.757 220.287c.177.078.329.19.454.337.104.122.187.256.247.403.061.147.091.314.091.5 0 .23-.056.455-.169.676a.981.981 0 0 1-.571.461c.221.091.379.218.474.383.091.16.136.409.136.747v.318l.026.448a.41.41 0 0 0 .182.273v.117h-1.104l-.065-.253a2.19 2.19 0 0 1-.039-.416l-.007-.442c-.004-.307-.06-.511-.168-.61-.109-.104-.31-.156-.604-.156h-1.033v1.877h-.974v-4.787h2.344c.338.009.598.05.78.124Zm-.5.792c-.109-.056-.271-.084-.488-.084h-1.162v1.286h1.137c.225 0 .394-.026.506-.078.199-.091.299-.271.299-.539 0-.291-.098-.485-.292-.585Z"
                      clip-rule="evenodd"
                      fill-rule="evenodd"
                    />
                  </g>
                  <g id="font_Helvetica_A0_6">
                    <path
                      id="Vector_66"
                      fill="#fff"
                      d="m222.346 223.969-.331.981h-1.046l1.708-4.787h1.13l1.695 4.787h-1.084l-.306-.981h-1.766Zm.273-.825h1.214l-.597-1.883-.617 1.883Z"
                      clip-rule="evenodd"
                      fill-rule="evenodd"
                    />
                  </g>
                </g>
              </g>
            </g>
          </g>
        </g>
        <g id="stanza-inter" class="track-group">
          <g id="shape16">
            <path
              id="Vector_67"
              fill="#ACABA7"
              d="M6.9 24.5H73v17.35h78.65v9.45l9.65 7.1v8.9h-21.05v18h10.7v16.35H.55v-70.8L6.9 24.5Z"
              class="track-linked"
            />
          </g>
          <g id="shape17">
            <path
              id="Vector_68"
              fill="#ACABA7"
              d="M73 24.5c.833 0 1.65.167 2.45.5l30.6 12c1.367.5 2.55 1.25 3.55 2.25a9.872 9.872 0 0 1 2.15 3.6l5.2 14.7c.167.6.517 1.1 1.05 1.5.5.333 1.1.517 1.8.55l1.3-.25 13.85-6.3 2.7-5.6 8.9-4.35c1.6-.867 3.3-1.283 5.1-1.25 1.567 0 3.1.333 4.6 1l10.55 4.5c.933.4 1.683 1 2.25 1.8.533.867.8 1.8.8 2.8 0 .7-.133 1.367-.4 2L165.2 64.6c-.333.8-.833 1.433-1.5 1.9-.733.533-1.533.8-2.4.8l-1.6-.3-6.85-2.8-.95-.2c-.433 0-.817.117-1.15.35a1.6 1.6 0 0 0-.7.85l-4.5 9.5.95 3.25 8.65 3.7a6.056 6.056 0 0 1 2.7 2.3 6.143 6.143 0 0 1 1 3.4l-.35 2.25-3.85 9.55a4.92 4.92 0 0 1-1.45 1.85c-.7.433-1.45.65-2.25.65l-1.35-.2-12.9-5.35h-7.45l-10.95-4.45-3-4.4-8.15-3.35-4.75 1-10.25-4.05-2.7-4.3-7.55-3.15h-7.7l-9.1-4.1-4.65-4.75-13.9-5.85a6.262 6.262 0 0 1-2.5-2.15c-.667-1-1-2.1-1-3.3l.15-1.2.75-3.4c.4-1.733 1.3-3.133 2.7-4.2 1.333-1.1 2.9-1.65 4.7-1.65l2.9.55 3.5 1.25.85.15 1.4-.4.9-1.1 5.7-14.55a7.315 7.315 0 0 1 2.5-3c1.167-.767 2.467-1.167 3.9-1.2Z"
              class="track-linked"
            />
          </g>
          <g id="shape18">
            <path
              id="Vector_69"
              stroke="#fff"
              d="m73.15 24.5.85.1 1.45.4 30.6 12c1.367.5 2.55 1.25 3.55 2.25a9.149 9.149 0 0 1 1.75 2.6m0 0h40.3c1.567 0 3.1.333 4.6 1l10.55 4.5c.933.4 1.683 1 2.25 1.8.533.867.8 1.8.8 2.8 0 .7-.133 1.367-.4 2L165.2 64.6c-.333.8-.833 1.433-1.5 1.9-.733.533-1.533.8-2.4.8h-12.25m-37.7-25.45.4 1 5.2 14.7c.167.6.517 1.1 1.05 1.5.5.333 1.1.517 1.8.55l1.3-.25 13.85-6.3 2.7-5.6 8.9-4.35a10.4 10.4 0 0 1 4.75-1.25m-2.25 25.45-3.5 7.4.95 3.25 8.65 3.7a6.056 6.056 0 0 1 2.7 2.3 6.143 6.143 0 0 1 1 3.4l-.35 2.25-3.85 9.55a4.92 4.92 0 0 1-1.45 1.85c-.7.433-1.45.65-2.25.65H.55v-70.8L6.9 24.5H73c-1.433.033-2.733.433-3.9 1.2a7.315 7.315 0 0 0-2.5 3l-5.7 14.55-.9 1.1c-.4.267-.867.4-1.4.4l-.85-.15-3.5-1.25a7.855 7.855 0 0 0-2.9-.55c-1.8 0-3.367.55-4.7 1.65-1.4 1.067-2.3 2.467-2.7 4.2l-.75 3.4c-.1.4-.15.8-.15 1.2 0 1.2.333 2.3 1 3.3a6.262 6.262 0 0 0 2.5 2.15l13.9 5.85 4.65 4.75 9.1 4.1h7.7l7.55 3.15 2.7 4.3 10.25 4.05 4.75-1 8.15 3.35 3 4.4 10.95 4.45h7.45l12.9 5.35 1.15.2m-1.7-34.35 1-2.1a1.6 1.6 0 0 1 .7-.85c.333-.233.717-.35 1.15-.35l.95.2 6.85 2.8 1.5.3"
              class="track-linked"
            />
            <path id="Vector_70" stroke="red" d="M73 24.5h.15" />
          </g>
          <g id="stanza-inter-txt" class="track-text">
            <g id="stanza-inter-bar" clipPath="url(#clip8_1_815)">
              <g id="Group_15">
                <path
                  id="Vector_71"
                  fill="#fff"
                  d="M30.1 97.25H7V91h23.1l3.15 3.15-3.15 3.1Z"
                  clip-rule="evenodd"
                  fill-rule="evenodd"
                />
              </g>
            </g>
            <g id="stanza-inter-text" clipPath="url(#clip9_1_815)">
              <g id="Group_16">
                <g id="Group_17">
                  <g id="font_Helvetica_S0">
                    <path
                      id="Vector_72"
                      fill="#fff"
                      d="M39.358 92.975a1.235 1.235 0 0 0-.566-.117c-.255 0-.456.052-.604.156a.498.498 0 0 0-.23.435c0 .17.075.297.223.383.098.057.301.122.61.195l.809.202c.356.086.623.2.801.344.28.225.42.552.42.98 0 .438-.163.802-.49 1.092-.327.285-.789.428-1.387.428-.61 0-1.091-.14-1.443-.422-.348-.285-.522-.677-.522-1.175h.935c.03.216.087.379.172.487.161.199.434.299.82.299l.56-.078c.276-.1.413-.286.413-.559a.409.409 0 0 0-.203-.364c-.136-.086-.35-.162-.642-.227l-.496-.11c-.488-.113-.825-.236-1.012-.37-.314-.222-.47-.566-.47-1.033 0-.429.152-.786.458-1.072.305-.281.752-.422 1.341-.422.497 0 .919.134 1.266.403.348.264.53.651.547 1.162h-.941c-.017-.29-.14-.496-.37-.617Z"
                      clip-rule="evenodd"
                      fill-rule="evenodd"
                    />
                  </g>
                  <g id="font_Helvetica_T0_5">
                    <path
                      id="Vector_73"
                      fill="#fff"
                      d="M44.87 92.163v.851h-1.405v3.936h-.986v-3.936h-1.405v-.85h3.796Z"
                      clip-rule="evenodd"
                      fill-rule="evenodd"
                    />
                  </g>
                  <g id="font_Helvetica_A0_7">
                    <path
                      id="Vector_74"
                      fill="#fff"
                      d="m45.906 95.97-.324.98h-1.024l1.673-4.787h1.106l1.66 4.787h-1.062l-.299-.98h-1.73Zm.267-.826h1.19l-.585-1.883-.605 1.883Z"
                      clip-rule="evenodd"
                      fill-rule="evenodd"
                    />
                  </g>
                  <g id="font_Helvetica_N0_3">
                    <path
                      id="Vector_75"
                      fill="#fff"
                      d="M53.282 92.163v4.787h-.98l-1.914-3.397v3.397h-.91v-4.787h1.024l1.87 3.345v-3.345h.91Z"
                      clip-rule="evenodd"
                      fill-rule="evenodd"
                    />
                  </g>
                  <g id="font_Helvetica_Z0">
                    <path
                      id="Vector_76"
                      fill="#fff"
                      d="M57.413 96.106v.844h-3.65v-.844l2.423-3.092h-2.36v-.85h3.58v.805l-2.454 3.137h2.461Z"
                      clip-rule="evenodd"
                      fill-rule="evenodd"
                    />
                  </g>
                  <g id="font_Helvetica_A0_8">
                    <path
                      id="Vector_77"
                      fill="#fff"
                      d="m59.028 95.97-.325.98H57.68l1.673-4.787h1.107l1.66 4.787h-1.062l-.3-.98h-1.73Zm.267-.826h1.19l-.586-1.883-.604 1.883Z"
                      clip-rule="evenodd"
                      fill-rule="evenodd"
                    />
                  </g>
                  <g id="font_Helvetica_I0_2">
                    <path
                      id="Vector_78"
                      fill="#fff"
                      d="M65.223 92.163v4.787h-.973v-4.787h.973Z"
                      clip-rule="evenodd"
                      fill-rule="evenodd"
                    />
                  </g>
                  <g id="font_Helvetica_N0_4">
                    <path
                      id="Vector_79"
                      fill="#fff"
                      d="M70.075 92.163v4.787h-.98l-1.914-3.397v3.397h-.91v-4.787h1.025l1.87 3.345v-3.345h.91Z"
                      clip-rule="evenodd"
                      fill-rule="evenodd"
                    />
                  </g>
                  <g id="font_Helvetica_T0_6">
                    <path
                      id="Vector_80"
                      fill="#fff"
                      d="M74.296 92.163v.851H72.89v3.936h-.986v-3.936H70.5v-.85h3.797Z"
                      clip-rule="evenodd"
                      fill-rule="evenodd"
                    />
                  </g>
                  <g id="font_Helvetica_E0_4">
                    <path
                      id="Vector_81"
                      fill="#fff"
                      d="M78.27 93.014h-2.48v1.013h2.276v.832H75.79v1.234h2.595v.857h-3.549v-4.787h3.435v.851Z"
                      clip-rule="evenodd"
                      fill-rule="evenodd"
                    />
                  </g>
                  <g id="font_Helvetica_R0_7">
                    <path
                      id="Vector_82"
                      fill="#fff"
                      d="M82.148 92.287c.174.078.322.19.445.337.102.122.182.256.242.403.059.147.089.314.089.5 0 .23-.055.455-.166.676a.964.964 0 0 1-.56.46c.217.092.372.22.465.384.089.16.133.41.133.747v.318l.026.448a.41.41 0 0 0 .178.273v.117h-1.081l-.064-.253a2.231 2.231 0 0 1-.038-.416l-.006-.442c-.005-.307-.06-.51-.166-.61-.106-.104-.303-.156-.591-.156h-1.011v1.877h-.954v-4.787h2.296c.33.009.585.05.763.124Zm-.49.792c-.106-.056-.265-.084-.477-.084h-1.138v1.285h1.113c.22 0 .385-.025.496-.077.195-.091.292-.271.292-.54 0-.29-.095-.484-.286-.584Z"
                      clip-rule="evenodd"
                      fill-rule="evenodd"
                    />
                  </g>
                </g>
              </g>
            </g>
          </g>
        </g>
        <g id="sampa-run" class="track-group">
          <g id="shape19">
            <path
              id="Vector_83"
              fill="#ACABA7"
              d="m206.9 139.6-16.8-15h61.2c-1.967.033-3.633.75-5 2.15l-10.15 9.45a12.946 12.946 0 0 1-3.8 2.5c-1.467.6-3 .9-4.6.9H206.9Zm-42.1-1.6-4.65 4.7v17.95l4.9 4.9v17.3c0 1.3.45 2.417 1.35 3.35.9.9 2.017 1.367 3.35 1.4l1.95-.45c4.5-2.1 8.983-4.183 13.45-6.25l8.4 3.95 23.25-4.1 5.95-6 4.55-.85.9-.05a6.413 6.413 0 0 1 4 1.25c1.133.767 1.967 1.833 2.5 3.2l8.25 20.8a4.444 4.444 0 0 0 1.65 2.1 4.9 4.9 0 0 0 2.55.8H.6l-.05-72.55 6.35-6.35h179.65c-1.267.033-2.333.533-3.2 1.5l-3.25 3.35c-.4.333-.867.5-1.4.5-.467 0-.9-.167-1.3-.5l-3.7-3.25c-.6-.533-1.283-.783-2.05-.75-.9 0-1.667.333-2.3 1l-3.2 3.2c-.9.967-1.35 2.117-1.35 3.45v6.4Z"
              class="track-linked"
            />
          </g>
          <g id="shape20">
            <path
              id="Vector_84"
              fill="#ACABA7"
              d="M169.35 124.95c.633-.667 1.4-1 2.3-1 .767-.033 1.45.217 2.05.75l3.7 3.25c.4.333.833.5 1.3.5.533 0 1-.167 1.4-.5l3.25-3.35c.867-.967 1.933-1.467 3.2-1.5h.1c1.2 0 2.233.4 3.1 1.2l17.15 15.3h20.85c1.6 0 3.133-.3 4.6-.9 1.4-.6 2.667-1.433 3.8-2.5l10.15-9.45c1.367-1.4 3.033-2.117 5-2.15h.2c1.467 0 2.817.417 4.05 1.25 1.2.8 2.1 1.833 2.7 3.1l14.05 29.65c.667 1.367 1 2.8 1 4.3 0 1.6-.35 3.117-1.05 4.55l-3.45 6.45v6.55c0 1.3-.467 2.417-1.4 3.35l-16.9 17c-.933.767-2.017 1.167-3.25 1.2h-.1a4.9 4.9 0 0 1-2.55-.8 4.444 4.444 0 0 1-1.65-2.1l-8.25-20.8c-.533-1.367-1.367-2.433-2.5-3.2a6.413 6.413 0 0 0-4-1.25l-.9.05-4.55.85-5.95 6-23.25 4.1-8.4-3.95-13.45 6.25-1.95.45c-1.333-.033-2.45-.5-3.35-1.4-.9-.933-1.35-2.05-1.35-3.35v-17.3l-4.9-4.9V142.7l4.65-4.7v-6.4c0-1.333.45-2.483 1.35-3.45l3.2-3.2Z"
              class="track-linked"
            />
          </g>
          <g id="shape21">
            <path
              id="Vector_85"
              stroke="#fff"
              d="M.65 202h246.5m0 0a4.9 4.9 0 0 1-2.55-.8 4.444 4.444 0 0 1-1.65-2.1l-8.25-20.8c-.533-1.367-1.367-2.433-2.5-3.2a6.413 6.413 0 0 0-4-1.25l-.9.05-4.55.85-5.95 6-23.25 4.1-8.4-3.95-13.45 6.25-1.95.45c-1.333-.033-2.45-.5-3.35-1.4-.9-.933-1.35-2.05-1.35-3.35v-17.3l-4.9-4.9V142.7l4.65-4.7v-6.4c0-1.333.45-2.483 1.35-3.45l3.2-3.2c.633-.667 1.4-1 2.3-1 .767-.033 1.45.217 2.05.75l3.7 3.25c.4.333.833.5 1.3.5.533 0 1-.167 1.4-.5l3.25-3.35.95-.8.2-.15.65-.3.75-.2.65-.05m60.6 78.9h.1c1.233-.033 2.317-.433 3.25-1.2l16.9-17c.933-.933 1.4-2.05 1.4-3.35v-6.55l3.45-6.45c.7-1.433 1.05-2.95 1.05-4.55 0-1.5-.333-2.933-1-4.3l-14.05-29.65c-.6-1.267-1.5-2.3-2.7-3.1a7.085 7.085 0 0 0-4.05-1.25h-61.4m-3.55-1.5H6.9l-6.35 6.35L.6 202m185.95-78.9 1.25.15.25.05.95.45.75.55.35.3m0 0 16.8 15h20.85c1.6 0 3.133-.3 4.6-.9 1.4-.6 2.667-1.433 3.8-2.5l10.15-9.45c1.367-1.4 3.033-2.117 5-2.15"
            />
            <path id="Vector_86" stroke="red" d="M.6 202h.05" />
          </g>
          <g id="sampa-run-txt" class="track-text">
            <g id="sampa-run-bar" clipPath="url(#clip10_1_815)">
              <g id="Group_18">
                <path
                  id="Vector_87"
                  fill="#fff"
                  d="M7 133.25V127h11.3l3.2 3.15-3.2 3.1H7Z"
                  clip-rule="evenodd"
                  fill-rule="evenodd"
                />
              </g>
            </g>
            <g id="sampa-run-txt_2" clipPath="url(#clip11_1_815)">
              <g id="Group_19">
                <g id="Group_20">
                  <g id="font_Helvetica_S0_2">
                    <path
                      id="Vector_88"
                      fill="#fff"
                      d="M27.408 128.975a1.284 1.284 0 0 0-.578-.117c-.26 0-.465.052-.617.156a.495.495 0 0 0-.233.435c0 .169.075.297.227.383.1.057.307.122.623.195l.825.202c.364.086.637.201.819.344.285.225.428.552.428.981 0 .437-.166.801-.5 1.091-.333.286-.805.428-1.416.428-.623 0-1.115-.14-1.474-.422-.355-.286-.533-.677-.533-1.175h.955c.03.216.089.379.175.487.165.199.444.299.838.299l.572-.078c.281-.1.422-.286.422-.559a.408.408 0 0 0-.208-.364c-.138-.086-.357-.162-.656-.227l-.506-.11c-.498-.113-.843-.236-1.033-.371-.32-.22-.48-.565-.48-1.032 0-.429.155-.786.467-1.072.312-.281.769-.422 1.37-.422.507 0 .938.134 1.293.402.355.265.541.652.558 1.163h-.96c-.018-.29-.144-.496-.378-.617Z"
                      clip-rule="evenodd"
                      fill-rule="evenodd"
                    />
                  </g>
                  <g id="font_Helvetica_A0_9">
                    <path
                      id="Vector_89"
                      fill="#fff"
                      d="m30.596 131.969-.331.981h-1.046l1.708-4.787h1.13l1.695 4.787h-1.084l-.306-.981h-1.766Zm.273-.825h1.214l-.597-1.883-.617 1.883Z"
                      clip-rule="evenodd"
                      fill-rule="evenodd"
                    />
                  </g>
                  <g id="font_Helvetica_M0_6">
                    <path
                      id="Vector_90"
                      fill="#fff"
                      d="M37.433 128.163h1.435v4.787h-.929V129.326l.007-.39-.91 4.014h-.967l-.903-4.014.006.39V132.95h-.928v-4.787h1.455l.87 3.767.864-3.767Z"
                      clip-rule="evenodd"
                      fill-rule="evenodd"
                    />
                  </g>
                  <g id="font_Helvetica_P0_5">
                    <path
                      id="Vector_91"
                      fill="#fff"
                      d="M43.296 129.683c0 .563-.143.961-.429 1.195-.286.234-.695.351-1.227.351h-1.014v1.721h-.993v-4.787h2.084c.481 0 .864.124 1.15.37.286.247.429.63.429 1.15Zm-1.189-.526c-.13-.108-.314-.162-.552-.162h-.929v1.409h.93c.237 0 .421-.056.551-.169.13-.117.195-.299.195-.545 0-.252-.065-.429-.195-.533Z"
                      clip-rule="evenodd"
                      fill-rule="evenodd"
                    />
                  </g>
                  <g id="font_Helvetica_A0_10">
                    <path
                      id="Vector_92"
                      fill="#fff"
                      d="m44.496 131.969-.331.981h-1.046l1.708-4.787h1.13l1.695 4.787h-1.084l-.305-.981h-1.767Zm.273-.825h1.214l-.597-1.883-.617 1.883Z"
                      clip-rule="evenodd"
                      fill-rule="evenodd"
                    />
                  </g>
                  <g id="font_Helvetica_R0_8">
                    <path
                      id="Vector_93"
                      fill="#fff"
                      d="M53.057 128.287c.177.078.329.19.454.337.104.122.187.256.247.403.06.147.091.314.091.5 0 .23-.056.455-.169.676a.982.982 0 0 1-.571.461c.22.091.378.218.474.383.09.16.136.409.136.747v.318l.026.448a.41.41 0 0 0 .182.273v.117h-1.104l-.065-.253a2.198 2.198 0 0 1-.039-.416l-.007-.442c-.004-.307-.06-.511-.168-.61-.109-.104-.31-.156-.604-.156h-1.033v1.877h-.974v-4.787h2.344c.338.009.598.05.78.124Zm-.5.792c-.109-.056-.271-.084-.488-.084h-1.162v1.286h1.137c.225 0 .394-.026.506-.078.2-.091.299-.271.299-.539 0-.291-.098-.485-.292-.585Z"
                      clip-rule="evenodd"
                      fill-rule="evenodd"
                    />
                  </g>
                  <g id="font_Helvetica_U0">
                    <path
                      id="Vector_94"
                      fill="#fff"
                      d="M58.458 128.163v2.942c0 .511-.08.908-.24 1.189-.295.52-.855.779-1.682.779-.832 0-1.395-.259-1.69-.779-.16-.281-.24-.678-.24-1.189v-2.942h1.02v2.942c0 .329.04.57.117.721.121.269.386.403.793.403.402 0 .664-.134.785-.403.079-.151.117-.392.117-.721v-2.942h1.02Z"
                      clip-rule="evenodd"
                      fill-rule="evenodd"
                    />
                  </g>
                  <g id="font_Helvetica_N0_5">
                    <path
                      id="Vector_95"
                      fill="#fff"
                      d="M63.178 128.163v4.787h-1l-1.956-3.397v3.397h-.928v-4.787h1.045l1.91 3.345v-3.345h.929Z"
                      clip-rule="evenodd"
                      fill-rule="evenodd"
                    />
                  </g>
                </g>
              </g>
            </g>
          </g>
        </g>
        <g id="hi-fumi" class="track-group">
          <g id="shape22">
            <path
              id="Vector_96"
              fill="#ACABA7"
              d="M34.6 191.55c-.967.8-1.45 1.85-1.45 3.15v20c0 1.767.617 3.317 1.85 4.65 1.233 1.267 2.733 1.9 4.5 1.9h4.95l3.35 3.35h14.8l3.45-2.85h20.9l1.55-1.5v15.3a9.083 9.083 0 0 0 .65 3.65c.467 1.133 1.1 2.15 1.9 3.05a8.571 8.571 0 0 0 2.95 2c1.067.467 2.2.717 3.4.75H.55v-68.6l6.35-6.35h82.5L77.25 180.8v8.9c0 1.533-.417 2.9-1.25 4.1-.8 1.133-1.883 1.967-3.25 2.5L54 203l-.95.15a2.654 2.654 0 0 1-1.95-.8 2.654 2.654 0 0 1-.8-1.95c0-1 .417-1.767 1.25-2.3l3.85-2.45a7.16 7.16 0 0 0 1.95-2.05c.467-.867.7-1.8.7-2.8 0-1.233-.35-2.333-1.05-3.3a5.61 5.61 0 0 0-2.8-2l-6.1-1.95-1.7-.3c-1.2 0-2.25.4-3.15 1.2l-8.65 7.1Z"
              class="track-linked"
            />
          </g>
          <g id="shape23">
            <path
              id="Vector_97"
              fill="#ACABA7"
              d="m34.6 191.55 8.65-7.1c.9-.8 1.95-1.2 3.15-1.2l1.7.3 6.1 1.95a5.61 5.61 0 0 1 2.8 2c.7.967 1.05 2.067 1.05 3.3 0 1-.233 1.933-.7 2.8a7.16 7.16 0 0 1-1.95 2.05c-1.3.8-2.583 1.617-3.85 2.45-.833.533-1.25 1.3-1.25 2.3 0 .767.267 1.417.8 1.95.533.533 1.183.8 1.95.8L54 203l18.75-6.7c1.367-.533 2.45-1.367 3.25-2.5.833-1.2 1.25-2.567 1.25-4.1v-8.9l12.15-10.75 8.1 1.4a5.306 5.306 0 0 1 3.15 1.8c.833 1 1.267 2.15 1.3 3.45-.033 1.333-.5 2.533-1.4 3.6l-9.1 10.75v27.85h27.35c1.5-.033 2.783.5 3.85 1.6 1.067 1.067 1.617 2.367 1.65 3.9v3.4l-6.5 15.7-.85 1.05c-.467.267-.933.417-1.4.45H97.4a9.015 9.015 0 0 1-3.4-.75 8.571 8.571 0 0 1-2.95-2c-.8-.9-1.433-1.917-1.9-3.05a9.083 9.083 0 0 1-.65-3.65v-15.3l-1.55 1.5h-20.9l-3.45 2.85H47.8l-3.35-3.35H39.5c-1.767 0-3.267-.633-4.5-1.9-1.233-1.333-1.85-2.883-1.85-4.65v-20c0-1.3.483-2.35 1.45-3.15Z"
              class="track-linked"
            />
          </g>
          <g id="shape24">
            <path
              id="Vector_98"
              stroke="#fff"
              d="M97.4 245H.55v-68.6l6.35-6.35h82.5m8 74.95a9.015 9.015 0 0 1-3.4-.75 8.571 8.571 0 0 1-2.95-2c-.8-.9-1.433-1.917-1.9-3.05a9.083 9.083 0 0 1-.65-3.65v-15.3l-1.55 1.5h-20.9l-3.45 2.85H47.8l-3.35-3.35H39.5c-1.767 0-3.267-.633-4.5-1.9-1.233-1.333-1.85-2.883-1.85-4.65v-20c0-1.3.483-2.35 1.45-3.15l8.65-7.1c.9-.8 1.95-1.2 3.15-1.2l1.7.3 6.1 1.95a5.61 5.61 0 0 1 2.8 2c.7.967 1.05 2.067 1.05 3.3 0 1-.233 1.933-.7 2.8a7.16 7.16 0 0 1-1.95 2.05l-3.85 2.45c-.833.533-1.25 1.3-1.25 2.3 0 .767.267 1.417.8 1.95.533.533 1.183.8 1.95.8L54 203l18.75-6.7c1.367-.533 2.45-1.367 3.25-2.5.833-1.2 1.25-2.567 1.25-4.1v-8.9l12.15-10.75m8 74.95h18.15c.467-.033.933-.183 1.4-.45l.85-1.05 6.5-15.7v-3.4c-.033-1.533-.583-2.833-1.65-3.9-1.067-1.1-2.35-1.633-3.85-1.6H91.45v-27.85l9.1-10.75c.9-1.067 1.367-2.267 1.4-3.6a5.463 5.463 0 0 0-1.3-3.45 5.306 5.306 0 0 0-3.15-1.8l-8.1-1.4"
            />
          </g>
          <g id="hi-fumi-txt" class="track-text">
            <g id="bar_2" clipPath="url(#clip12_1_815)">
              <g id="Group_21">
                <path
                  id="Vector_99"
                  fill="#fff"
                  d="M7 242.25V236h27.55l3.15 3.15-3.15 3.1H7Z"
                  clip-rule="evenodd"
                  fill-rule="evenodd"
                />
              </g>
            </g>
            <g id="text_2" clipPath="url(#clip13_1_815)">
              <g id="Group_22">
                <g id="Group_23">
                  <g id="font_Helvetica_H0">
                    <path
                      id="Vector_100"
                      fill="#fff"
                      d="M41.994 239.663v2.137H41v-4.787h.994v1.825h1.87v-1.825h.994v4.787h-.994v-2.137h-1.87Z"
                      clip-rule="evenodd"
                      fill-rule="evenodd"
                    />
                  </g>
                  <g id="font_Helvetica_I0_3">
                    <path
                      id="Vector_101"
                      fill="#fff"
                      d="M46.623 237.013v4.787h-.994v-4.787h.994Z"
                      clip-rule="evenodd"
                      fill-rule="evenodd"
                    />
                  </g>
                  <g id="font_Helvetica_-0_2">
                    <path
                      id="Vector_102"
                      fill="#fff"
                      d="M47.356 239.507h1.864v.877h-1.864v-.877Z"
                      clip-rule="evenodd"
                      fill-rule="evenodd"
                    />
                  </g>
                  <g id="font_Helvetica_F0">
                    <path
                      id="Vector_103"
                      fill="#fff"
                      d="M51.05 239.793v2.007h-.993v-4.78h3.396v.844H51.05v1.098h2.105v.831H51.05Z"
                      clip-rule="evenodd"
                      fill-rule="evenodd"
                    />
                  </g>
                  <g id="font_Helvetica_U0_2">
                    <path
                      id="Vector_104"
                      fill="#fff"
                      d="M57.908 237.013v2.942c0 .511-.08.908-.24 1.189-.295.52-.855.779-1.682.779-.832 0-1.395-.259-1.689-.779-.16-.281-.24-.678-.24-1.189v-2.942h1.02v2.942c0 .329.038.57.116.721.122.269.386.403.793.403.402 0 .664-.134.786-.403.078-.151.117-.392.117-.721v-2.942h1.02Z"
                      clip-rule="evenodd"
                      fill-rule="evenodd"
                    />
                  </g>
                  <g id="font_Helvetica_M0_7">
                    <path
                      id="Vector_105"
                      fill="#fff"
                      d="M61.933 237.013h1.435v4.787h-.929V238.176l.007-.39-.91 4.014h-.967l-.903-4.014.006.39V241.8h-.928v-4.787h1.455l.87 3.767.864-3.767Z"
                      clip-rule="evenodd"
                      fill-rule="evenodd"
                    />
                  </g>
                  <g id="font_Helvetica_I0_4">
                    <path
                      id="Vector_106"
                      fill="#fff"
                      d="M65.022 237.013v4.787h-.993v-4.787h.993Z"
                      clip-rule="evenodd"
                      fill-rule="evenodd"
                    />
                  </g>
                  <g id="font_Helvetica_I0_5">
                    <path
                      id="Vector_107"
                      fill="#fff"
                      d="M67.022 237.013v4.787h-.993v-4.787h.993Z"
                      clip-rule="evenodd"
                      fill-rule="evenodd"
                    />
                  </g>
                </g>
              </g>
            </g>
          </g>
        </g>
        <g id="shape26">
          <path
            id="Vector_108"
            fill="#A6C9C7"
            d="m165.85 300.45-6.6 6.6H.55V289.8l6.35-6.35h158.95v17Z"
          />
        </g>
        <g id="shape27">
          <path
            id="Vector_109"
            stroke="#fff"
            d="m165.85 300.45-6.6 6.6H.55V289.8l6.35-6.35h158.95v17Z"
          />
        </g>
        <g id="text0">
          <g id="Group_24">
            <g id="font_Helvetica_W0">
              <path
                id="Vector_110"
                fill="#ACABA7"
                d="m10.39 310.554.915 4.18.815-4.18h1.258l.854 4.18.939-4.18h1.219l-1.615 5.706h-1.141l-.893-4.436-.892 4.436h-1.11l-1.623-5.706h1.274Z"
              />
            </g>
            <g id="font_Helvetica_I0_6">
              <path
                id="Vector_111"
                fill="#ACABA7"
                d="M17.87 310.554v5.706h-1.187v-5.706h1.188Z"
              />
            </g>
            <g id="font_Helvetica_P0_6">
              <path
                id="Vector_112"
                fill="#ACABA7"
                d="M23.575 312.366c0 .67-.17 1.145-.512 1.424-.342.279-.83.418-1.467.418h-1.211v2.052h-1.188v-5.706h2.492c.574 0 1.032.147 1.374.441.341.295.512.751.512 1.371Zm-1.42-.627c-.155-.129-.376-.194-.66-.194h-1.11v1.68h1.11c.284 0 .505-.067.66-.201.155-.14.233-.356.233-.651 0-.299-.078-.511-.233-.634Z"
              />
            </g>
            <g id="font_Helvetica_30">
              <path
                id="Vector_113"
                fill="#ACABA7"
                d="M27.687 312.157c0 .33-.098.609-.295.836a1.016 1.016 0 0 1-.388.286c.104 0 .248.088.435.263.284.258.427.614.427 1.069 0 .474-.166.892-.497 1.254-.331.356-.82.534-1.467.534-.797 0-1.35-.258-1.661-.774-.16-.279-.251-.64-.272-1.084h1.087c0 .222.036.408.108.557.135.269.38.403.738.403a.817.817 0 0 0 .566-.217c.16-.15.241-.364.241-.642 0-.372-.15-.62-.45-.744l-.807-.1v-.79c.362-.005.613-.041.753-.108.248-.109.372-.328.372-.658a.733.733 0 0 0-.186-.519c-.13-.134-.308-.201-.536-.201-.259 0-.45.082-.574.248-.124.165-.184.384-.179.658H24.07c.01-.279.06-.542.148-.79a1.71 1.71 0 0 1 .426-.612c.145-.129.316-.229.513-.302.201-.067.447-.1.737-.1.538 0 .973.139 1.304.418.326.273.49.645.49 1.115Z"
              />
            </g>
            <g id="font_Helvetica_O0_6">
              <path
                id="Vector_114"
                fill="#ACABA7"
                d="M31.317 310.384c.818 0 1.444.222 1.879.666.574.521.861 1.305.861 2.353 0 1.022-.287 1.806-.861 2.353-.435.444-1.061.666-1.879.666-.817 0-1.44-.222-1.87-.666-.58-.547-.87-1.331-.87-2.353 0-1.048.29-1.832.87-2.353.43-.444 1.053-.666 1.87-.666Zm-1.133 1.533c-.28.345-.42.841-.42 1.486 0 .64.14 1.135.42 1.486.285.346.662.519 1.133.519.476 0 .854-.173 1.134-.519.274-.351.411-.846.411-1.486s-.137-1.135-.411-1.486c-.28-.351-.658-.527-1.134-.527-.47 0-.848.176-1.133.527Z"
              />
            </g>
            <g id="font_Helvetica_U0_3">
              <path
                id="Vector_115"
                fill="#ACABA7"
                d="M39.365 310.554v3.507c0 .609-.096 1.081-.287 1.417-.352.619-1.022.929-2.01.929-.994 0-1.666-.31-2.018-.929-.192-.336-.288-.808-.288-1.417v-3.507h1.219v3.507c0 .392.047.679.14.859.145.32.46.48.947.48.48 0 .794-.16.939-.48.093-.18.14-.467.14-.859v-3.507h1.218Z"
              />
            </g>
            <g id="font_Helvetica_T0_7">
              <path
                id="Vector_116"
                fill="#ACABA7"
                d="M44.54 310.554v1.014h-1.716v4.692h-1.203v-4.692h-1.715v-1.014h4.634Z"
              />
            </g>
            <g id="font_Helvetica_C0_2">
              <path
                id="Vector_117"
                fill="#ACABA7"
                d="M49.886 310.446c.963 0 1.666.314 2.112.944.243.356.375.712.396 1.068h-1.196c-.078-.273-.178-.479-.303-.619-.217-.248-.538-.371-.962-.371-.435 0-.779.175-1.032.526-.249.346-.373.839-.373 1.479 0 .64.132 1.119.396 1.44.264.32.6.479 1.009.479.419 0 .74-.136.962-.41.12-.15.22-.371.303-.666h1.18c-.104.625-.367 1.131-.792 1.518-.424.392-.97.588-1.638.588-.822 0-1.47-.263-1.94-.79-.471-.531-.707-1.256-.707-2.175 0-.996.27-1.765.808-2.307.465-.469 1.058-.704 1.777-.704Z"
              />
            </g>
            <g id="font_Helvetica_I01">
              <path
                id="Vector_118"
                fill="#ACABA7"
                d="M54.261 310.554v5.706h-1.187v-5.706h1.187Z"
              />
            </g>
            <g id="font_Helvetica_T01">
              <path
                id="Vector_119"
                fill="#ACABA7"
                d="M59.718 310.554v1.014h-1.716v4.692H56.8v-4.692h-1.715v-1.014h4.634Z"
              />
            </g>
            <g id="font_Helvetica_Y0">
              <path
                id="Vector_120"
                fill="#ACABA7"
                d="M63.605 310.554h1.351l-1.91 3.561v2.145h-1.195v-2.145l-1.98-3.561h1.406l1.187 2.485 1.141-2.485Z"
              />
            </g>
            <g id="font_Helvetica_P01">
              <path
                id="Vector_121"
                fill="#ACABA7"
                d="M72.216 312.366c0 .67-.171 1.145-.512 1.424-.342.279-.831.418-1.468.418h-1.21v2.052h-1.188v-5.706h2.492c.574 0 1.032.147 1.374.441.341.295.512.751.512 1.371Zm-1.42-.627c-.156-.129-.376-.194-.66-.194h-1.11v1.68h1.11c.284 0 .504-.067.66-.201.154-.14.232-.356.232-.651 0-.299-.078-.511-.233-.634Z"
              />
            </g>
            <g id="font_Helvetica_L0_4">
              <path
                id="Vector_122"
                fill="#ACABA7"
                d="M77.034 315.238v1.022h-4.029v-5.706h1.196v4.684h2.833Z"
              />
            </g>
            <g id="font_Helvetica_A0_11">
              <path
                id="Vector_123"
                fill="#ACABA7"
                d="m79.028 315.091-.396 1.169h-1.25l2.042-5.706h1.35l2.026 5.706h-1.296l-.365-1.169h-2.111Zm.326-.984h1.451l-.714-2.245-.737 2.245Z"
              />
            </g>
            <g id="font_Helvetica_N0_6">
              <path
                id="Vector_124"
                fill="#ACABA7"
                d="M88.03 310.554v5.706h-1.196l-2.337-4.049v4.049h-1.11v-5.706h1.25l2.282 3.987v-3.987h1.11Z"
              />
            </g>
            <g id="font_Helvetica_A01">
              <path
                id="Vector_125"
                fill="#ACABA7"
                d="m92.353 315.091-.396 1.169h-1.25l2.042-5.706h1.35l2.027 5.706h-1.297l-.364-1.169h-2.112Zm.326-.984h1.452l-.714-2.245-.738 2.245Z"
              />
            </g>
            <g id="font_Helvetica_X0">
              <path
                id="Vector_126"
                fill="#ACABA7"
                d="m99.468 313.31 1.863 2.95H99.88l-1.087-1.944-1.149 1.944h-1.39l1.84-2.904-1.754-2.802h1.428l1.025 1.858 1.048-1.858h1.382l-1.755 2.756Z"
              />
            </g>
            <g id="font_Helvetica_O01_2">
              <path
                id="Vector_127"
                fill="#ACABA7"
                d="M104.457 310.384c.818 0 1.444.222 1.879.666.574.521.861 1.305.861 2.353 0 1.022-.287 1.806-.861 2.353-.435.444-1.061.666-1.879.666-.817 0-1.441-.222-1.87-.666-.58-.547-.87-1.331-.87-2.353 0-1.048.29-1.832.87-2.353.429-.444 1.053-.666 1.87-.666Zm-1.133 1.533c-.279.345-.419.841-.419 1.486 0 .64.14 1.135.419 1.486.285.346.663.519 1.133.519.477 0 .854-.173 1.134-.519.274-.351.411-.846.411-1.486s-.137-1.135-.411-1.486c-.28-.351-.657-.527-1.134-.527-.47 0-.848.176-1.133.527Z"
              />
            </g>
            <g id="font_Helvetica_N01">
              <path
                id="Vector_128"
                fill="#ACABA7"
                d="M112.529 310.554v5.706h-1.196l-2.336-4.049v4.049h-1.11v-5.706h1.25l2.282 3.987v-3.987h1.11Z"
              />
            </g>
            <g id="font_Helvetica_O02">
              <path
                id="Vector_129"
                fill="#ACABA7"
                d="M116.05 310.384c.818 0 1.444.222 1.878.666.575.521.862 1.305.862 2.353 0 1.022-.287 1.806-.862 2.353-.434.444-1.06.666-1.878.666-.818 0-1.441-.222-1.871-.666-.579-.547-.869-1.331-.869-2.353 0-1.048.29-1.832.869-2.353.43-.444 1.053-.666 1.871-.666Zm-1.133 1.533c-.28.345-.42.841-.42 1.486 0 .64.14 1.135.42 1.486.284.346.662.519 1.133.519.476 0 .854-.173 1.133-.519.274-.351.412-.846.412-1.486s-.138-1.135-.412-1.486c-.279-.351-.657-.527-1.133-.527-.471 0-.849.176-1.133.527Z"
              />
            </g>
            <g id="font_Helvetica_-0_3">
              <path
                id="Vector_130"
                fill="#ACABA7"
                d="M119.076 313.527h2.227v1.045h-2.227v-1.045Z"
              />
            </g>
            <g id="font_Helvetica_G0_2">
              <path
                id="Vector_131"
                fill="#ACABA7"
                d="M126.153 312.335a1.126 1.126 0 0 0-.667-.813 1.58 1.58 0 0 0-.652-.132c-.461 0-.838.176-1.133.527-.3.345-.451.867-.451 1.563 0 .702.161 1.198.482 1.487.321.294.685.441 1.094.441.404 0 .732-.116.986-.348.259-.233.416-.535.473-.906h-1.319v-.952h2.383v3.058h-.792l-.124-.713c-.228.274-.435.465-.621.573-.316.196-.704.294-1.164.294-.756 0-1.377-.263-1.863-.789-.502-.527-.753-1.247-.753-2.16 0-.924.253-1.665.76-2.222.513-.557 1.188-.836 2.026-.836.725 0 1.31.186 1.755.557.439.367.69.824.753 1.371h-1.173Z"
              />
            </g>
            <g id="font_Helvetica_R0_9">
              <path
                id="Vector_132"
                fill="#ACABA7"
                d="M132.044 310.701c.212.093.393.227.543.403.124.144.222.304.295.48.072.175.109.374.109.596 0 .273-.068.542-.202.805-.14.258-.368.441-.683.55.264.108.452.26.566.456.109.191.163.488.163.891v.379l.031.534a.488.488 0 0 0 .218.325v.14h-1.32l-.078-.302a2.607 2.607 0 0 1-.046-.496l-.008-.526c-.005-.367-.072-.609-.202-.728-.129-.124-.37-.186-.722-.186h-1.234v2.238h-1.164v-5.706h2.802c.404.01.714.059.932.147Zm-.598.945c-.129-.067-.324-.101-.582-.101h-1.39v1.533h1.359c.269 0 .47-.031.605-.093.238-.108.357-.323.357-.643 0-.345-.116-.578-.349-.696Z"
              />
            </g>
            <g id="font_Helvetica_A02">
              <path
                id="Vector_133"
                fill="#ACABA7"
                d="m135.138 315.091-.396 1.169h-1.25l2.042-5.706h1.35l2.026 5.706h-1.296l-.365-1.169h-2.111Zm.326-.984h1.451l-.714-2.245-.737 2.245Z"
              />
            </g>
            <g id="font_Helvetica_P02">
              <path
                id="Vector_134"
                fill="#ACABA7"
                d="M143.922 312.366c0 .67-.171 1.145-.513 1.424-.341.279-.83.418-1.467.418h-1.211v2.052h-1.187v-5.706h2.492c.574 0 1.032.147 1.373.441.342.295.513.751.513 1.371Zm-1.421-.627c-.155-.129-.375-.194-.66-.194h-1.11v1.68h1.11c.285 0 .505-.067.66-.201.156-.14.233-.356.233-.651 0-.299-.077-.511-.233-.634Z"
              />
            </g>
            <g id="font_Helvetica_H0_2">
              <path
                id="Vector_135"
                fill="#ACABA7"
                d="M145.891 313.713v2.547h-1.187v-5.706h1.187v2.175h2.236v-2.175h1.188v5.706h-1.188v-2.547h-2.236Z"
              />
            </g>
            <g id="font_Helvetica_I02">
              <path
                id="Vector_136"
                fill="#ACABA7"
                d="M151.423 310.554v5.706h-1.188v-5.706h1.188Z"
              />
            </g>
            <g id="font_Helvetica_C01">
              <path
                id="Vector_137"
                fill="#ACABA7"
                d="M155.055 310.446c.963 0 1.666.314 2.111.944.244.356.376.712.396 1.068h-1.195c-.078-.273-.179-.479-.303-.619-.217-.248-.538-.371-.962-.371-.435 0-.779.175-1.033.526-.248.346-.372.839-.372 1.479 0 .64.132 1.119.396 1.44.264.32.6.479 1.009.479.419 0 .74-.136.962-.41.119-.15.22-.371.303-.666h1.18c-.104.625-.368 1.131-.792 1.518-.424.392-.97.588-1.638.588-.823 0-1.469-.263-1.94-.79-.471-.531-.707-1.256-.707-2.175 0-.996.269-1.765.808-2.307.465-.469 1.058-.704 1.777-.704Z"
              />
            </g>
            <g id="font_Helvetica_:0">
              <path
                id="Vector_138"
                fill="#ACABA7"
                d="M159.81 315.106v1.154h-1.179v-1.154h1.179Zm-1.179-2.895h1.179v1.153h-1.179v-1.153Z"
              />
            </g>
          </g>
          <g id="Group_25">
            <g id="font_Helvetica_M0_8">
              <path
                id="Vector_139"
                fill="#ACABA7"
                d="M13.401 317.706h1.716v5.705h-1.11v-4.32l.007-.464-1.086 4.784H11.77l-1.079-4.784.008.464v4.32H9.59v-5.705h1.739l1.04 4.49 1.032-4.49Z"
              />
            </g>
            <g id="font_Helvetica_A03">
              <path
                id="Vector_140"
                fill="#ACABA7"
                d="m17.241 322.242-.396 1.169h-1.25l2.042-5.705h1.35l2.027 5.705h-1.297l-.364-1.169H17.24Zm.326-.983h1.452l-.714-2.245-.738 2.245Z"
              />
            </g>
            <g id="font_Helvetica_D0">
              <path
                id="Vector_141"
                fill="#ACABA7"
                d="M25.94 318.557c.202.284.339.591.411.921.073.331.109.645.109.945 0 .758-.153 1.401-.458 1.927-.414.707-1.053 1.061-1.917 1.061h-2.469v-5.705h2.469l.884.123c.399.135.722.377.97.728Zm-3.16.139v3.724h1.103c.564 0 .957-.276 1.18-.828.119-.305.178-.669.178-1.092 0-.578-.09-1.022-.271-1.331-.182-.315-.544-.473-1.087-.473H22.78Z"
              />
            </g>
            <g id="font_Helvetica_E0_5">
              <path
                id="Vector_142"
                fill="#ACABA7"
                d="M31.464 318.72h-3.028v1.207h2.78v.991h-2.78v1.471h3.167v1.022h-4.331v-5.705h4.192v1.014Z"
              />
            </g>
            <g id="font_Helvetica_I03">
              <path
                id="Vector_143"
                fill="#ACABA7"
                d="M35.916 317.706v5.705H34.73v-5.705h1.188Z"
              />
            </g>
            <g id="font_Helvetica_N02">
              <path
                id="Vector_144"
                fill="#ACABA7"
                d="M41.839 317.706v5.705h-1.196l-2.336-4.049v4.049h-1.11v-5.705h1.25l2.281 3.986v-3.986h1.11Z"
              />
            </g>
            <g id="font_Helvetica_T02">
              <path
                id="Vector_145"
                fill="#ACABA7"
                d="M49.38 317.706v1.014h-1.716v4.691h-1.203v-4.691h-1.715v-1.014h4.634Z"
              />
            </g>
            <g id="font_Helvetica_H01">
              <path
                id="Vector_146"
                fill="#ACABA7"
                d="M51.18 320.864v2.547h-1.188v-5.705h1.188v2.175h2.235v-2.175h1.188v5.705h-1.188v-2.547H51.18Z"
              />
            </g>
            <g id="font_Helvetica_E01">
              <path
                id="Vector_147"
                fill="#ACABA7"
                d="M59.847 318.72H56.82v1.207h2.779v.991h-2.78v1.471h3.168v1.022h-4.331v-5.705h4.191v1.014Z"
              />
            </g>
            <g id="font_Helvetica_D01">
              <path
                id="Vector_148"
                fill="#ACABA7"
                d="M67.53 318.557c.201.284.338.591.41.921.073.331.11.645.11.945 0 .758-.153 1.401-.459 1.927-.414.707-1.053 1.061-1.917 1.061h-2.468v-5.705h2.468l.885.123c.398.135.722.377.97.728Zm-3.16.139v3.724h1.102c.564 0 .958-.276 1.18-.828.12-.305.179-.669.179-1.092 0-.578-.09-1.022-.272-1.331-.181-.315-.543-.473-1.087-.473H64.37Z"
              />
            </g>
            <g id="font_Helvetica_E02">
              <path
                id="Vector_149"
                fill="#ACABA7"
                d="M73.053 318.72h-3.027v1.207h2.779v.991h-2.78v1.471h3.168v1.022h-4.331v-5.705h4.191v1.014Z"
              />
            </g>
            <g id="font_Helvetica_S0_3">
              <path
                id="Vector_150"
                fill="#ACABA7"
                d="M76.653 318.673a1.537 1.537 0 0 0-.691-.139c-.31 0-.556.062-.737.186a.587.587 0 0 0-.28.518c0 .202.09.354.272.457.119.067.367.144.745.232l.986.24c.434.104.76.24.978.411.341.268.512.658.512 1.169 0 .521-.2.954-.598 1.3-.398.341-.962.511-1.692.511-.745 0-1.332-.168-1.762-.503-.424-.341-.636-.808-.636-1.401h1.14c.037.258.107.451.21.58.197.238.53.356 1.002.356l.683-.093c.336-.118.504-.34.504-.665a.485.485 0 0 0-.248-.434c-.166-.103-.427-.193-.784-.271l-.606-.131c-.595-.135-1.006-.282-1.234-.442-.383-.263-.574-.673-.574-1.231 0-.51.186-.936.559-1.277.372-.335.918-.503 1.638-.503.605 0 1.12.16 1.544.48.424.315.647.777.668 1.386h-1.149c-.02-.346-.17-.591-.45-.736Z"
              />
            </g>
            <g id="font_Helvetica_I04">
              <path
                id="Vector_151"
                fill="#ACABA7"
                d="M80.314 317.706v5.705h-1.187v-5.705h1.188Z"
              />
            </g>
            <g id="font_Helvetica_G01">
              <path
                id="Vector_152"
                fill="#ACABA7"
                d="M85.46 319.486a1.127 1.127 0 0 0-.667-.813 1.578 1.578 0 0 0-.652-.131c-.46 0-.839.175-1.134.526-.3.346-.45.867-.45 1.564 0 .702.16 1.197.481 1.486.321.294.686.441 1.095.441.404 0 .732-.116.986-.348.258-.232.416-.534.473-.906h-1.32v-.952h2.384v3.058h-.792l-.124-.712c-.228.273-.435.464-.621.573-.316.196-.704.294-1.165.294-.755 0-1.376-.263-1.862-.79-.502-.526-.753-1.246-.753-2.16 0-.924.253-1.664.76-2.222.513-.557 1.188-.836 2.026-.836.725 0 1.31.186 1.754.558.44.366.691.823.753 1.37H85.46Z"
              />
            </g>
            <g id="font_Helvetica_N03">
              <path
                id="Vector_153"
                fill="#ACABA7"
                d="M92.212 317.706v5.705h-1.195l-2.337-4.049v4.049h-1.11v-5.705h1.25l2.282 3.986v-3.986h1.11Z"
              />
            </g>
            <g id="font_Helvetica_E03">
              <path
                id="Vector_154"
                fill="#ACABA7"
                d="M97.433 318.72h-3.027v1.207h2.779v.991h-2.78v1.471h3.168v1.022h-4.331v-5.705h4.191v1.014Z"
              />
            </g>
            <g id="font_Helvetica_R01">
              <path
                id="Vector_155"
                fill="#ACABA7"
                d="M102.166 317.853c.212.092.393.227.543.402.125.145.223.305.295.48.073.176.109.374.109.596 0 .274-.067.542-.202.805-.14.258-.367.442-.683.55.264.108.453.261.567.457.108.191.163.487.163.89v.379l.031.534a.49.49 0 0 0 .217.326v.139h-1.319l-.078-.302a2.597 2.597 0 0 1-.047-.495l-.007-.527c-.005-.366-.073-.609-.202-.728-.129-.123-.37-.185-.722-.185h-1.234v2.237h-1.165v-5.705h2.803c.403.01.714.059.931.147Zm-.598.944c-.129-.067-.323-.101-.582-.101h-1.39v1.533h1.359c.269 0 .471-.031.606-.093.238-.108.357-.322.357-.642 0-.346-.117-.578-.35-.697Z"
              />
            </g>
            <g id="font_Helvetica_S01">
              <path
                id="Vector_156"
                fill="#ACABA7"
                d="M106.65 318.673a1.541 1.541 0 0 0-.691-.139c-.311 0-.556.062-.737.186a.586.586 0 0 0-.28.518c0 .202.091.354.272.457.119.067.367.144.745.232l.986.24c.434.104.76.24.978.411.341.268.512.658.512 1.169 0 .521-.199.954-.598 1.3-.398.341-.962.511-1.692.511-.745 0-1.332-.168-1.762-.503-.424-.341-.636-.808-.636-1.401h1.141c.036.258.106.451.209.58.197.238.531.356 1.002.356l.683-.093c.336-.118.504-.34.504-.665a.484.484 0 0 0-.248-.434c-.166-.103-.427-.193-.784-.271l-.606-.131c-.595-.135-1.006-.282-1.234-.442-.383-.263-.574-.673-.574-1.231 0-.51.186-.936.559-1.277.372-.335.918-.503 1.638-.503.605 0 1.12.16 1.544.48.424.315.647.777.668 1.386H107.1c-.021-.346-.171-.591-.45-.736Z"
              />
            </g>
            <g id="font_Helvetica_R02">
              <path
                id="Vector_157"
                fill="#ACABA7"
                d="M115.372 317.853c.212.092.393.227.543.402.124.145.223.305.295.48.073.176.109.374.109.596 0 .274-.067.542-.202.805-.14.258-.367.442-.683.55.264.108.453.261.567.457.108.191.163.487.163.89v.379l.031.534a.49.49 0 0 0 .217.326v.139h-1.32l-.077-.302a2.597 2.597 0 0 1-.047-.495l-.007-.527c-.006-.366-.073-.609-.202-.728-.13-.123-.37-.185-.722-.185h-1.234v2.237h-1.165v-5.705h2.802c.404.01.715.059.932.147Zm-.598.944c-.129-.067-.323-.101-.582-.101h-1.389v1.533h1.358c.269 0 .471-.031.605-.093.238-.108.358-.322.358-.642 0-.346-.117-.578-.35-.697Z"
              />
            </g>
            <g id="font_Helvetica_E04">
              <path
                id="Vector_158"
                fill="#ACABA7"
                d="M121.455 318.72h-3.028v1.207h2.779v.991h-2.779v1.471h3.167v1.022h-4.331v-5.705h4.192v1.014Z"
              />
            </g>
            <g id="font_Helvetica_P03">
              <path
                id="Vector_159"
                fill="#ACABA7"
                d="M126.832 319.517c0 .671-.171 1.146-.512 1.424-.342.279-.831.418-1.468.418h-1.21v2.052h-1.188v-5.705h2.492c.574 0 1.032.147 1.374.441.341.294.512.751.512 1.37Zm-1.421-.627c-.155-.129-.375-.194-.659-.194h-1.11v1.68h1.11c.284 0 .504-.067.659-.201.156-.139.233-.356.233-.65 0-.3-.077-.511-.233-.635Z"
              />
            </g>
            <g id="font_Helvetica_U01">
              <path
                id="Vector_160"
                fill="#ACABA7"
                d="M132.225 317.706v3.506c0 .609-.096 1.082-.288 1.417-.352.619-1.022.929-2.01.929-.994 0-1.666-.31-2.018-.929-.192-.335-.287-.808-.287-1.417v-3.506h1.218v3.506c0 .393.047.679.14.86.145.32.461.48.947.48.481 0 .794-.16.939-.48.093-.181.14-.467.14-.86v-3.506h1.219Z"
              />
            </g>
            <g id="font_Helvetica_B0">
              <path
                id="Vector_161"
                fill="#ACABA7"
                d="M137.531 318.317c.176.243.264.532.264.867 0 .351-.088.632-.264.844a1.349 1.349 0 0 1-.435.325c.29.103.51.271.66.503.15.227.225.506.225.836 0 .336-.085.638-.256.906a1.5 1.5 0 0 1-.411.449 1.555 1.555 0 0 1-.645.286l-.815.078h-2.592v-5.705h2.779c.698.01 1.195.214 1.49.611Zm-1.188.472-.683-.093h-1.257v1.262h1.405c.248 0 .453-.046.613-.139.155-.098.233-.266.233-.503 0-.269-.104-.444-.311-.527Zm-1.94 3.631h1.405c.248 0 .442-.034.582-.101.254-.123.38-.361.38-.712 0-.294-.121-.498-.364-.611-.14-.062-.334-.093-.583-.093h-1.42v1.517Z"
              />
            </g>
            <g id="font_Helvetica_L01">
              <path
                id="Vector_162"
                fill="#ACABA7"
                d="M142.884 322.389v1.022h-4.028v-5.705h1.195v4.683h2.833Z"
              />
            </g>
            <g id="font_Helvetica_I05">
              <path
                id="Vector_163"
                fill="#ACABA7"
                d="M144.73 317.706v5.705h-1.187v-5.705h1.187Z"
              />
            </g>
            <g id="font_Helvetica_C02">
              <path
                id="Vector_164"
                fill="#ACABA7"
                d="M148.363 317.597c.962 0 1.666.315 2.111.945.243.356.375.712.396 1.068h-1.196c-.077-.274-.178-.48-.302-.619-.218-.248-.539-.372-.963-.372-.435 0-.779.175-1.032.526-.249.346-.373.839-.373 1.479 0 .64.132 1.12.396 1.44.264.32.6.48 1.009.48.419 0 .74-.137.963-.41.119-.15.22-.372.302-.666h1.18c-.103.624-.367 1.13-.792 1.517-.424.392-.97.588-1.637.588-.823 0-1.47-.263-1.941-.789-.471-.532-.706-1.257-.706-2.175 0-.996.269-1.766.807-2.307.466-.47 1.058-.705 1.778-.705Z"
              />
            </g>
          </g>
        </g>
        <g id="shape28">
          <path
            id="Vector_165"
            fill="#ACABA7"
            d="m3.55 317.65 3.15 3.15-3.15 3.1h-3v-6.25h3Z"
          />
        </g>
        <g id="shape281">
          <path
            id="Vector_166"
            fill="#ACABA7"
            d="m3.55 310.25 3.15 3.15-3.15 3.1h-3v-6.25h3Z"
          />
        </g>
      </g>
      <defs>
        <clipPath id="clip0_1_815">
          <path
            fill="#fff"
            d="M0 0h38.6v5.05H0z"
            transform="translate(394 171)"
          />
        </clipPath>
        <clipPath id="clip1_1_815">
          <path
            fill="#fff"
            d="M0 0h7.15v6.25H0z"
            transform="translate(383 170)"
          />
        </clipPath>
        <clipPath id="clip2_1_815">
          <use xlink:href="#reuse-0" transform="translate(359 87)" />
        </clipPath>
        <clipPath id="clip3_1_815">
          <path
            fill="#fff"
            d="M0 0h33.6v4.8H0z"
            transform="translate(412 88)"
          />
        </clipPath>
        <clipPath id="clip4_1_815">
          <use xlink:href="#reuse-0" transform="translate(154 113)" />
        </clipPath>
        <clipPath id="clip5_1_815">
          <path
            fill="#fff"
            d="M0 0h53.7v5.1H0z"
            transform="translate(208 114)"
          />
        </clipPath>
        <clipPath id="clip6_1_815">
          <use xlink:href="#reuse-0" transform="translate(130 219)" />
        </clipPath>
        <clipPath id="clip7_1_815">
          <path
            fill="#fff"
            d="M0 0h43.5v5.1H0z"
            transform="translate(182 220)"
          />
        </clipPath>
        <clipPath id="clip8_1_815">
          <path
            fill="#fff"
            d="M0 0h26.25v6.25H0z"
            transform="translate(7 91)"
          />
        </clipPath>
        <clipPath id="clip9_1_815">
          <path
            fill="#fff"
            d="M0 0h46.95v5.05H0z"
            transform="translate(36 92)"
          />
        </clipPath>
        <clipPath id="clip10_1_815">
          <path
            fill="#fff"
            d="M0 0h14.5v6.25H0z"
            transform="translate(7 127)"
          />
        </clipPath>
        <clipPath id="clip11_1_815">
          <path
            fill="#fff"
            d="M0 0h38.2v5.05H0z"
            transform="translate(25 128)"
          />
        </clipPath>
        <clipPath id="clip12_1_815">
          <path
            fill="#fff"
            d="M0 0h30.7v6.25H0z"
            transform="translate(7 236)"
          />
        </clipPath>
        <clipPath id="clip13_1_815">
          <path fill="#fff" d="M0 0h26v4.9H0z" transform="translate(41 237)" />
        </clipPath>
      </defs>
    </svg>