<svg xmlns="http://www.w3.org/2000/svg" version="1.1" xmlns:xlink="http://www.w3.org/1999/xlink" xmlns:svgjs="http://svgjs.dev/svgjs" width="2500" height="2500"><svg xmlns="http://www.w3.org/2000/svg" width="2500" height="2500" viewBox="0 0 192.756 192.756"><g fill-rule="evenodd" clip-rule="evenodd"><path fill="rgb(244, 184, 42)" d="M0 0h192.756v192.756H0V0z"></path><path d="M176.498 119.965H16.257v25.613h33.275l-14.229 24.299h25.956l14.229-24.299h42.563l14.228 24.299h25.957l-14.23-24.299h32.492v-25.613zM109.949 85.816v13.791H82.368V85.816H67.482v26.705h57.354V85.816h-14.887z"></path><path d="M125.273 22.88H67.482c-17.591 0-32.07 14.26-32.07 31.851v57.791H59.82v-63.92h73.116v63.92h24.408V54.731c0-17.591-14.479-31.851-32.071-31.851z"></path><path fill="#ca0088" d="M110.607 56.044L96.378 79.905 82.149 56.044H59.82l17.294 29.772H115.643l17.293-29.772h-22.329z"></path></g></svg><style>@media (prefers-color-scheme: light) { :root { filter: none; } }
@media (prefers-color-scheme: dark) { :root { filter: none; } }
</style></svg>