<svg xmlns="http://www.w3.org/2000/svg" xmlns:ffdec="https://www.free-decompiler.com/flash" xmlns:xlink="http://www.w3.org/1999/xlink" ffdec:objectType="frame" viewBox="0 0 612 674"><g><use ffdec:characterId="1" xlink:href="#a" width="508.1" height=".7" transform="translate(73.35 43.65)"/><use ffdec:characterId="3" xlink:href="#b" width="45.9" height="6.55" transform="translate(535.35 34.25)"/><use ffdec:characterId="5" xlink:href="#c" width="57.05" height="5.65" transform="translate(498.85 56.75)"/><use ffdec:characterId="6" xlink:href="#d" width="54.7" height="4.45" transform="translate(73.7 56.75)"/><use ffdec:characterId="7" xlink:href="#e" width="13.75" height="3.95" transform="translate(513.05 85.35)"/><use ffdec:characterId="8" xlink:href="#f" width="4.05" height="4.1" transform="translate(498.8 85.3)"/><use ffdec:characterId="9" xlink:href="#g" width="4.1" height="4.1" transform="translate(503.4 85.3)"/><use ffdec:characterId="10" xlink:href="#h" width="13.75" height="3.95" transform="translate(513.05 91.35)"/><use ffdec:characterId="8" xlink:href="#f" width="4.05" height="4.1" transform="translate(498.8 91.3)"/><use ffdec:characterId="9" xlink:href="#g" width="4.1" height="4.1" transform="translate(503.4 91.3)"/><use ffdec:characterId="11" xlink:href="#i" width="13.75" height="3.95" transform="translate(513.05 97.35)"/><use ffdec:characterId="8" xlink:href="#f" width="4.05" height="4.1" transform="translate(498.8 97.3)"/><use ffdec:characterId="9" xlink:href="#g" width="4.1" height="4.1" transform="translate(503.4 97.3)"/><use ffdec:characterId="12" xlink:href="#j" width="13.8" height="3.95" transform="translate(513.05 103.35)"/><use ffdec:characterId="8" xlink:href="#f" width="4.05" height="4.1" transform="translate(498.8 103.3)"/><use ffdec:characterId="9" xlink:href="#g" width="4.1" height="4.1" transform="translate(503.4 103.3)"/><use ffdec:characterId="13" xlink:href="#k" width="13.8" height="3.95" transform="translate(513.05 109.35)"/><use ffdec:characterId="8" xlink:href="#f" width="4.05" height="4.1" transform="translate(498.8 109.3)"/><use ffdec:characterId="9" xlink:href="#g" width="4.1" height="4.1" transform="translate(503.4 109.3)"/><use ffdec:characterId="14" xlink:href="#l" width="13.8" height="3.95" transform="translate(513 115.35)"/><use ffdec:characterId="8" xlink:href="#f" width="4.05" height="4.1" transform="translate(498.8 115.3)"/><use ffdec:characterId="9" xlink:href="#g" width="4.1" height="4.1" transform="translate(503.4 115.3)"/><use ffdec:characterId="15" xlink:href="#m" width="13.4" height="3.95" transform="translate(513.05 121.35)"/><use ffdec:characterId="8" xlink:href="#f" width="4.05" height="4.1" transform="translate(498.8 121.3)"/><use ffdec:characterId="9" xlink:href="#g" width="4.1" height="4.1" transform="translate(503.4 121.3)"/><use ffdec:characterId="7" xlink:href="#e" width="13.75" height="3.95" transform="translate(434.85 130.85)"/><use ffdec:characterId="8" xlink:href="#f" width="4.05" height="4.1" transform="translate(420.533 130.8)"/><use ffdec:characterId="9" xlink:href="#g" width="4.1" height="4.1" transform="translate(425.133 130.8)"/><use ffdec:characterId="13" xlink:href="#k" width="13.8" height="3.95" transform="translate(434.8 136.85)"/><use ffdec:characterId="8" xlink:href="#f" width="4.05" height="4.1" transform="translate(420.533 136.8)"/><use ffdec:characterId="9" xlink:href="#g" width="4.1" height="4.1" transform="translate(425.133 136.8)"/><use ffdec:characterId="14" xlink:href="#l" width="13.8" height="3.95" transform="translate(434.8 142.85)"/><use ffdec:characterId="8" xlink:href="#f" width="4.05" height="4.1" transform="translate(420.533 142.8)"/><use ffdec:characterId="9" xlink:href="#g" width="4.1" height="4.1" transform="translate(425.133 142.8)"/><use ffdec:characterId="15" xlink:href="#m" width="13.4" height="3.95" transform="translate(435.2 148.85)"/><use ffdec:characterId="8" xlink:href="#f" width="4.05" height="4.1" transform="translate(420.533 148.8)"/><use ffdec:characterId="9" xlink:href="#g" width="4.1" height="4.1" transform="translate(425.133 148.8)"/><use ffdec:characterId="16" xlink:href="#n" width="16.2" height="3.95" transform="translate(549.9 85.35)"/><use ffdec:characterId="9" xlink:href="#g" width="4.1" height="4.1" transform="translate(535.5 85.3)"/><use ffdec:characterId="8" xlink:href="#f" width="4.05" height="4.1" transform="translate(540.15 85.3)"/><use ffdec:characterId="17" xlink:href="#o" width="15.8" height="3.95" transform="translate(549.9 91.35)"/><use ffdec:characterId="9" xlink:href="#g" width="4.1" height="4.1" transform="translate(535.5 91.3)"/><use ffdec:characterId="8" xlink:href="#f" width="4.05" height="4.1" transform="translate(540.15 91.3)"/><use ffdec:characterId="18" xlink:href="#p" width="13.75" height="3.95" transform="translate(549.9 97.35)"/><use ffdec:characterId="9" xlink:href="#g" width="4.1" height="4.1" transform="translate(535.5 97.3)"/><use ffdec:characterId="8" xlink:href="#f" width="4.05" height="4.1" transform="translate(540.15 97.3)"/><use ffdec:characterId="19" xlink:href="#q" width="74.55" height="6.6" transform="translate(447.85 34.25)"/><use ffdec:characterId="8" xlink:href="#f" width="4.05" height="4.1" transform="translate(529.383 34.75)"/><use ffdec:characterId="20" xlink:href="#r" width="145.3" height="207.75" transform="translate(334.1 192.5)"/><use ffdec:characterId="7" xlink:href="#e" width="13.75" height="3.95" transform="translate(74 404.55)"/><use ffdec:characterId="8" xlink:href="#f" width="4.05" height="4.1" transform="translate(90.883 404.483)"/><use ffdec:characterId="9" xlink:href="#g" width="4.1" height="4.1" transform="translate(95.483 404.483)"/><use ffdec:characterId="21" xlink:href="#s" width="46.5" height="3.6" transform="translate(24.4 634.35)"/><use ffdec:characterId="22" xlink:href="#t" width="2.8" height="2.85" transform="translate(19.85 634.75)"/><use ffdec:characterId="23" xlink:href="#u" width="63.15" height="3.6" transform="translate(96.25 634.35)"/><use ffdec:characterId="22" xlink:href="#t" width="2.8" height="2.85" transform="translate(11.35 634.75)"/><use ffdec:characterId="24" xlink:href="#v" width="64.05" height="40.5" transform="translate(29.75 634.2)"/><use ffdec:characterId="25" xlink:href="#w" width="612.25" height="810.7" transform="matrix(.0185 0 0 .0044 600.94 153.76)"/><use ffdec:characterId="25" xlink:href="#w" width="612.25" height="810.7" transform="matrix(.0185 0 0 .0035 600.94 99.518)"/><use ffdec:characterId="25" xlink:href="#w" width="612.25" height="810.7" transform="matrix(.0185 0 0 .0018 600.94 103.934)"/><use ffdec:characterId="25" xlink:href="#w" width="612.25" height="810.7" transform="matrix(.0185 0 0 .0018 600.94 165.935)"/><use ffdec:characterId="25" xlink:href="#w" width="612.25" height="810.7" transform="matrix(.0185 0 0 .0024 600.94 483.218)"/><use ffdec:characterId="26" xlink:href="#x" width="9.65" height="5" transform="translate(73.65 579.9)"/><use ffdec:characterId="8" xlink:href="#f" width="4.05" height="4.1" transform="translate(86.533 579.833)"/><use ffdec:characterId="9" xlink:href="#g" width="4.1" height="4.1" transform="translate(91.133 579.833)"/><use ffdec:characterId="27" xlink:href="#y" width="19.2" height="16" transform="translate(73.7 560.7)"/><use ffdec:characterId="28" xlink:href="#z" width="8" height="16" transform="translate(94.85 560.7)"/><use ffdec:characterId="29" xlink:href="#A" width="19.15" height="16" transform="translate(104.7 560.7)"/><use ffdec:characterId="30" xlink:href="#B" width="19.2" height="16" transform="translate(125.7 560.7)"/><use ffdec:characterId="31" xlink:href="#C" width="19.2" height="20" transform="translate(146.8 560.7)"/><use ffdec:characterId="29" xlink:href="#A" width="19.15" height="16" transform="matrix(-1 0 0 1 187.05 560.7)"/><use ffdec:characterId="32" xlink:href="#D" width="197.6" height="42.5" transform="translate(73.7 534.2)"/><use ffdec:characterId="33" xlink:href="#E" width="19.2" height="16" transform="translate(157.95 538.2)"/><use ffdec:characterId="34" xlink:href="#F" width="40.25" height="20" transform="translate(179.05 538.2)"/><use ffdec:characterId="35" xlink:href="#G" width="19.2" height="20" transform="translate(221.15 534.2)"/><use ffdec:characterId="36" xlink:href="#H" width="37.3" height="24" transform="translate(242.25 534.2)"/><use ffdec:characterId="25" xlink:href="#w" width="612.25" height="810.7" transform="matrix(0 .0327 .004 0 281.49 534.222)"/><use ffdec:characterId="37" xlink:href="#I" width="19.2" height="16" transform="translate(286.55 538.2)"/><use ffdec:characterId="38" xlink:href="#J" width="19.2" height="16" transform="translate(307.6 538.2)"/><use ffdec:characterId="27" xlink:href="#y" width="19.2" height="16" transform="translate(328.65 538.2)"/><use ffdec:characterId="39" xlink:href="#K" width="40.2" height="20" transform="translate(349.75 538.2)"/><use ffdec:characterId="40" xlink:href="#L" width="19.15" height="16" transform="translate(391.9 538.2)"/><use ffdec:characterId="29" xlink:href="#A" width="19.15" height="16" transform="matrix(-1 0 0 1 432.1 538.2)"/><use ffdec:characterId="41" xlink:href="#M" width="19.2" height="20" transform="translate(434 534.2)"/><use ffdec:characterId="42" xlink:href="#N" width="19.2" height="16" transform="translate(455.05 538.2)"/><use ffdec:characterId="38" xlink:href="#J" width="19.2" height="16" transform="rotate(180 247.675 277.125)"/><use ffdec:characterId="37" xlink:href="#I" width="19.2" height="16" transform="rotate(180 258.225 277.125)"/><use ffdec:characterId="43" xlink:href="#O" width="19.2" height="16" transform="translate(518.3 538.2)"/><use ffdec:characterId="35" xlink:href="#G" width="19.2" height="20" transform="rotate(180 279.3 279.125)"/><use ffdec:characterId="44" xlink:href="#P" width="16" height="16" transform="translate(560.45 538.2)"/><use ffdec:characterId="45" xlink:href="#Q" width="9.6" height="5" transform="translate(73.7 527.35)"/><use ffdec:characterId="8" xlink:href="#f" width="4.05" height="4.1" transform="translate(86.533 527.3)"/><use ffdec:characterId="9" xlink:href="#g" width="4.1" height="4.1" transform="translate(91.133 527.3)"/><use ffdec:characterId="41" xlink:href="#M" width="19.2" height="20" transform="translate(73.512 423.457) scale(4.9592)"/><use ffdec:characterId="35" xlink:href="#G" width="19.2" height="20" transform="translate(176.657 423.457) scale(4.9592)"/><use ffdec:characterId="40" xlink:href="#L" width="19.15" height="16" transform="translate(279.848 443.294) scale(4.9592)"/><use ffdec:characterId="33" xlink:href="#E" width="19.2" height="16" transform="translate(382.661 443.294) scale(4.9592)"/><use ffdec:characterId="33" xlink:href="#E" width="19.2" height="16" transform="translate(485.677 443.294) scale(4.9592)"/><use ffdec:characterId="46" xlink:href="#R" width="117.6" height="117.6" transform="translate(204.7 61.4)"/><use ffdec:characterId="12" xlink:href="#j" width="13.8" height="3.95" transform="translate(205.05 183.3)"/><use ffdec:characterId="8" xlink:href="#f" width="4.05" height="4.1" transform="translate(221.95 183.25)"/><use ffdec:characterId="9" xlink:href="#g" width="4.1" height="4.1" transform="translate(226.55 183.25)"/><use ffdec:characterId="47" xlink:href="#S" width="117.6" height="117.6" transform="translate(204.7 61.4)"/><use ffdec:characterId="13" xlink:href="#k" width="13.8" height="3.95" transform="translate(334.75 183.3)"/><use ffdec:characterId="12" xlink:href="#j" width="13.8" height="3.95" transform="translate(73.85 183.3)"/><use ffdec:characterId="8" xlink:href="#f" width="4.05" height="4.1" transform="translate(90.783 183.25)"/><use ffdec:characterId="9" xlink:href="#g" width="4.1" height="4.1" transform="translate(95.383 183.25)"/><use ffdec:characterId="48" xlink:href="#T" width="416.8" height="122.15" transform="translate(73.85 56.5)"/><use ffdec:characterId="7" xlink:href="#e" width="13.75" height="3.95" transform="translate(509.35 67.55)"/><use ffdec:characterId="8" xlink:href="#f" width="4.05" height="4.1" transform="translate(495.033 67.5)"/><use ffdec:characterId="9" xlink:href="#g" width="4.1" height="4.1" transform="translate(499.633 67.5)"/><use ffdec:characterId="49" xlink:href="#U" width="67.6" height="67.6" transform="translate(423.05 56.5)"/><use ffdec:characterId="30" xlink:href="#B" width="19.2" height="16" transform="matrix(12.9477 0 0 12.9473 73.167 192.72)"/><use ffdec:characterId="30" xlink:href="#B" width="19.2" height="16" transform="translate(346.245 297.717) scale(6.3829)"/><use ffdec:characterId="30" xlink:href="#B" width="19.2" height="16" transform="translate(489.051 323.29) scale(4.7861)"/><use ffdec:characterId="50" xlink:href="#V" width="13.8" height="3.85" transform="translate(489.2 404.55)"/><use ffdec:characterId="8" xlink:href="#f" width="4.05" height="4.1" transform="translate(506.05 404.483)"/><use ffdec:characterId="9" xlink:href="#g" width="4.1" height="4.1" transform="translate(510.65 404.483)"/><use ffdec:characterId="51" xlink:href="#W" width="13.8" height="3.95" transform="translate(346.45 404.55)"/><use ffdec:characterId="8" xlink:href="#f" width="4.05" height="4.1" transform="translate(363.4 404.483)"/><use ffdec:characterId="9" xlink:href="#g" width="4.1" height="4.1" transform="translate(368 404.483)"/><use ffdec:characterId="52" xlink:href="#X" width="90.2" height="102.55" transform="translate(334.35 84.8)"/><use ffdec:characterId="53" xlink:href="#Y" width="11.35" height="3.05" transform="translate(29.75 653.35)"/><use ffdec:characterId="54" xlink:href="#Z" width="13.35" height="2.9" transform="translate(93.5 653.4)"/><use ffdec:characterId="55" xlink:href="#aa" width="19.85" height="17" transform="translate(93.55 657.7)"/></g><defs><path id="a" fill="none" stroke="#000" stroke-linecap="round" stroke-linejoin="round" stroke-width=".7" d="M73.7 44h507.4" transform="translate(-73.35 -43.65)"/><path id="ab" fill-rule="evenodd" d="M11.55-15.45V0H3.9v-36.8h26.15v6.5h-18.5v8.45h16.2v6.4h-16.2"/><path id="ac" fill-rule="evenodd" d="M25-29.7H10.2l-1.3 7.9q1.65-1.05 2.55-1.4 1.55-.6 3.8-.6 4.5 0 7.85 3.05 3.35 3 3.35 8.8 0 5-3.25 8.95Q20 .95 13.55.95 8.4.95 5.05-1.8q-3.3-2.8-3.7-7.9h7.1q.45 2.35 1.65 3.6t3.5 1.25q2.65 0 4.05-1.85Q19-8.55 19-11.4q0-2.75-1.3-4.65Q16.4-18 13.65-18l-2.25.35q-1.65.6-2.5 2.2l-6.4-.3 2.55-20H25v6.05"/><path id="ad" fill-rule="evenodd" d="M14.1-36.5q6.95 0 9.75 4.9 2.75 4.85 2.75 13.85 0 8.95-2.75 13.8Q21.05.9 14.1.9 7.2.9 4.4-3.95 1.6-8.8 1.6-17.75q0-9 2.8-13.85 2.8-4.9 9.7-4.9m0 5.9q-3.15 0-4.2 3.15-1 3.15-1 9.7 0 6.25 1 9.55 1.05 3.3 4.2 3.3 3.2 0 4.2-3.3.95-3.3.95-9.55 0-6.55-.95-9.7-1-3.15-4.2-3.15"/><path id="ae" fill-rule="evenodd" d="M11.9-7.55 9.35 0H1.3l13.15-36.85h8.7L36.2 0h-8.35L25.5-7.55H11.9M14-13.9h9.35l-4.6-14.5L14-13.9"/><path id="af" fill-rule="evenodd" d="M10.25-27.2v4q1.4-2.1 2.6-3.05 2.2-1.65 5.6-1.65 4.2 0 6.9 2.25 2.7 2.2 2.7 7.3V0h-7.3v-16.55q0-2.15-.6-3.3-1.05-2.1-4-2.1-3.6 0-4.95 3.05-.7 1.65-.7 4.15V0H3.4v-27.2h6.85"/><path id="ag" fill-rule="evenodd" d="M27.95-27.25V-1.4q0 5.3-1.75 7.95-3.05 4.6-11.7 4.6-5.25 0-8.55-2.05Q2.65 7.05 2.3 3h7.75q.3 1.25 1 1.8 1.15.95 3.85.95 3.85 0 5.15-2.55.85-1.65.85-5.55V-4.1q-1 1.75-2.2 2.6Q16.6.15 13.2.15q-5.25 0-8.4-3.7-3.15-3.7-3.15-10 0-6.05 3.05-10.2 3-4.15 8.55-4.15 2.05 0 3.6.65 2.6 1.05 4.2 3.95v-3.95h6.9m-13 5.6q-3.75 0-5.15 3.5-.75 1.9-.75 4.65 0 2.35.8 4.2 1.45 3.45 5.2 3.45 2.5 0 4.2-1.85Q21-9.6 21-13.75q0-3.85-1.65-5.9-1.65-2-4.4-2"/><path id="ah" fill-rule="evenodd" d="M1.2-17.65h14.35v6.75H1.2v-6.75"/><path id="ai" fill-rule="evenodd" d="M27.75-27.25V0H20.8v-3.85l-.5.75-.95 1.1Q17.7-.5 16.15.05l-3.7.55Q6.4.6 4.3-3.75q-1.15-2.4-1.15-7.05v-16.45h7.3v16.45q0 2.3.55 3.5.95 2.05 3.8 2.05 3.65 0 5-2.95.7-1.6.7-4.2v-14.85h7.25"/><path id="aj" fill-rule="evenodd" d="M10.6-36.85V0H3.5v-36.85h7.1"/><path id="ak" fill-rule="evenodd" d="M14.05-16.55q1.95-.25 2.8-.65 1.55-.65 1.55-2 0-1.7-1.15-2.3-1.2-.65-3.45-.65-2.5 0-3.55 1.25-.75.9-1 2.5h-6.9q.25-3.6 2-5.9 2.85-3.6 9.7-3.6 4.5 0 7.95 1.8 3.5 1.75 3.5 6.7v12.5l.05 3.15q.05 1.4.4 1.9l1.05.8V0h-7.75l-.45-1.55-.2-1.65q-1.45 1.6-3.4 2.75Q12.9.85 10 .85q-3.7 0-6.1-2.1-2.4-2.1-2.4-6 0-5 3.85-7.25 2.15-1.25 6.25-1.75l2.45-.3m2.95 4-1.9.5-1.6.3q-2.25.4-3.2.95-1.65 1-1.65 3.05 0 1.8 1 2.65 1 .8 2.45.8 2.3 0 4.25-1.35 1.95-1.35 2-4.95v-2.65l-1.35.7"/><path id="al" fill-rule="evenodd" d="M18.5-27.85h.6v7.3l-1.2-.1h-.85q-4.3 0-5.8 2.8-.8 1.55-.8 4.85V0h-7.2v-27.25h6.8v4.75q1.65-2.7 2.9-3.7 2-1.7 5.2-1.7l.35.05"/><path id="am" fill-rule="evenodd" d="M9.35-16.7V0H4.4v-36.7h25.45v4.5H9.35v11.15H27.4v4.35H9.35"/><path id="an" fill-rule="evenodd" d="M24.3-30.85H9.05l-1.5 9.95 2.35-1.4q2-.85 4.65-.85 4.9 0 8.35 3.2 3.4 3.15 3.4 8.05 0 5.05-3.1 8.95Q20.05.9 13.15.9 8.8.9 5.45-1.55 2.05-4 1.65-9.1h4.7Q6.8-5.25 9.9-3.8q1.6.75 3.7.75 4 0 5.95-2.55 1.9-2.55 1.9-5.65 0-3.75-2.25-5.8-2.3-2.05-5.5-2.05-2.35 0-4 .9t-2.85 2.5l-3.9-.2L5.7-35.2h18.6v4.35"/><path id="ao" fill-rule="evenodd" d="M8.35-28Q6.5-24.25 6.5-17q0 5.5 1.15 8.8 1.8 5.1 6.15 5.1 3.5 0 5.6-3.1 2.05-3.1 2.05-11.55 0-6.1-1.5-10.05-1.5-3.95-5.8-3.95-4 0-5.8 3.75m5.5-7.8q6.95 0 10.05 5.75 2.4 4.4 2.4 12.1 0 7.3-2.15 12.1Q21 1 13.85 1 7.4 1 4.25-4.6 1.6-9.3 1.6-17.15q0-6.1 1.6-10.5 2.95-8.15 10.65-8.15"/><path id="ap" fill-rule="evenodd" d="m9.85-11-4 11H.75L14.6-36.7h5.6L33.55 0H28.1l-3.75-11H9.85m12.9-4.05-5.55-16.2-5.95 16.2h11.5"/><path id="aq" fill-rule="evenodd" d="M7.6-26.75v3.8q1.9-2.35 4-3.4 2.15-1 4.75-1 5.7 0 7.7 3.95 1.1 2.2 1.1 6.25V0h-4.6v-16.85q0-2.45-.7-3.95-1.2-2.5-4.35-2.5l-2.65.3q-1.85.55-3.25 2.2-1.1 1.35-1.45 2.75-.35 1.4-.35 4.05V0H3.3v-26.75h4.3"/><path id="ar" fill-rule="evenodd" d="M25-26.5v24.35q0 5.1-1.5 8.05-2.8 5.45-10.55 5.45-4.35 0-7.3-1.95t-3.3-6.05h4.6q.3 1.8 1.3 2.75 1.5 1.5 4.8 1.5 5.15 0 6.75-3.65.95-2.15.9-7.65-1.35 2.05-3.25 3.05t-5.05 1q-4.35 0-7.6-3.1t-3.25-10.2q0-6.75 3.3-10.5 3.25-3.8 7.9-3.8 3.15 0 5.5 1.55 1.3.9 2.6 2.55v-3.35H25M19.75-7.7q1.1-2.5 1.1-5.8 0-4.95-2.05-7.35-2.05-2.4-5.2-2.4-4.75 0-6.5 4.45-.95 2.35-.95 6.2 0 4.55 1.85 6.9 1.85 2.35 4.95 2.35 4.85 0 6.8-4.35"/><path id="as" fill-rule="evenodd" d="M2.15-16.55H14.7v4.6H2.15v-4.6"/><path id="at" fill-rule="evenodd" d="M24.75-26.75V0H20.5l.05-3.95q-.85 1.55-2.15 2.6-2.6 2.1-6.25 2.1-5.75 0-7.8-3.85Q3.2-5.15 3.2-8.55v-18.2h4.6V-9q0 2.05.65 3.35 1.2 2.4 4.5 2.4 4.7 0 6.4-4.2.9-2.25.9-6.15v-13.15h4.5"/><path id="au" fill-rule="evenodd" d="M7.95-36.7V0h-4.5v-36.7h4.5"/><path id="av" fill-rule="evenodd" d="M13.8-27.4q4.75 0 7.7 1.8 2.9 1.8 2.9 5.6v15.4q0 .7.3 1.15.3.4 1.2.4h.7l.8-.15V.15L25.8.5l-1.5.1q-2.35 0-3.4-1.65-.55-.9-.75-2.5-1.4 1.8-3.95 3.15Q13.6.9 10.5.9 6.8.9 4.45-1.35 2.05-3.6 2.05-7q0-3.75 2.35-5.8 2.3-2.05 6.1-2.5l7.15-.9q1.55-.2 2.1-1.3.3-.6.3-1.75 0-2.3-1.65-3.3-1.65-1.05-4.7-1.05-3.5 0-5 1.9-.8 1.05-1.05 3.1h-4.2q.1-4.95 3.2-6.85 3.1-1.95 7.15-1.95m4 14.65-2.55.5-2.75.35q-2.45.35-3.65 1.05-2.1 1.15-2.1 3.75 0 1.95 1.45 3.05Q9.6-2.9 11.55-2.9q2.4 0 4.6-1.1 3.75-1.85 3.75-6v-3.6q-.8.5-2.1.85"/><path id="aw" fill-rule="evenodd" d="M7.7-26.75v4.6q.55-1.35 2.6-3.25 2.05-1.95 4.7-1.95h.45l1 .1v4.75l-.7-.1H15q-3.4 0-5.25 2.2-1.8 2.15-1.8 5V0h-4.5v-26.75H7.7"/><path id="ax" fill-rule="evenodd" d="M4.9-23.55q3.45-4 9.2-4 5.2 0 8.75 3.45 3.6 3.45 3.6 10.15 0 6.5-3.15 10.7Q20.15 1 13.5 1 8 1 4.75-2.75T1.5-12.8q0-6.75 3.4-10.75m3.1 3.1q-1.9 3.15-1.9 7.6 0 4.25 1.9 7.1Q9.85-2.9 13.95-2.9q4.45 0 6.15-3.35 1.65-3.4 1.65-7.55 0-3.75-1.2-6.1-1.9-3.7-6.55-3.7-4.15 0-6 3.15"/><path id="ay" fill-rule="evenodd" d="m5.4-26.75 5.15 21.1 5.2-21.1h5.05L26.05-5.8l5.5-20.95h4.5L28.25 0H23.6l-5.45-20.7L12.85 0H8.2L.45-26.75H5.4"/><path id="az" fill-rule="evenodd" d="M12.5-27.45q6.05 0 8.75 3.55 1.65 2.25 1.6 4.85H18.6q-.1-1.55-1.05-2.8-1.55-1.75-5.4-1.75-2.55 0-3.85.95-1.3 1-1.3 2.6 0 1.75 1.7 2.8 1 .6 2.95 1.1l3 .7q4.85 1.2 6.5 2.3 2.6 1.7 2.6 5.4 0 3.6-2.7 6.2t-8.25 2.6q-6 0-8.45-2.7-2.5-2.75-2.7-6.75H6q.2 2.25 1.1 3.45 1.7 2.2 5.9 2.2 2.5 0 4.4-1.1 1.9-1.1 1.9-3.35 0-1.75-1.5-2.65l-3.85-1.25-3.6-.9q-3.4-.85-5.05-1.9-2.9-1.85-2.9-5.05 0-3.8 2.75-6.15 2.75-2.35 7.35-2.35"/><path id="aA" fill-rule="evenodd" d="M31.75-31.35q1.95 2.75 2.65 5.95t.7 6.1q0 7.35-2.95 12.45Q28.15 0 19.8 0H3.9v-36.85h15.9l5.7.8q3.85 1.3 6.25 4.7m-20.35.9V-6.4h7.1q5.45 0 7.6-5.35 1.15-2.95 1.15-7.05 0-5.6-1.75-8.6-1.75-3.05-7-3.05h-7.1"/><path id="aB" fill-rule="evenodd" d="M10.65-27.25V0h-7.2v-27.25h7.2m0-3.25h-7.2v-6.55h7.2v6.55"/><path id="aC" fill-rule="evenodd" d="M20.2-26.7q2.75 1.3 4.5 4.05 1.6 2.4 2.1 5.6l.2 5.4H8.35q.15 4.1 2.6 5.75 1.45 1.05 3.55 1.05 2.2 0 3.55-1.25.75-.7 1.35-1.9h7.25q-.25 2.45-2.5 4.95Q20.65.9 14.35.9q-5.2 0-9.2-3.35Q1.2-5.8 1.2-13.35q0-7.05 3.6-10.85 3.55-3.75 9.3-3.75 3.4 0 6.1 1.25m-9.95 6.15Q8.9-19 8.55-16.35H19.6q-.15-2.8-1.7-4.25-1.55-1.5-3.8-1.5-2.5 0-3.85 1.55"/><path id="aD" fill-rule="evenodd" d="M14.85-21.85q-3.6 0-4.9 3.55-.7 1.9-.7 5.05 0 3 .7 4.85Q11.2-5 14.75-5q2.5 0 3.55-1.35 1.05-1.35 1.25-3.5h7.3Q26.6-6.6 24.5-3.7 21.15.95 14.55.95 8 .95 4.9-2.95q-3.1-3.9-3.1-10.1Q1.8-20.1 5.2-24q3.45-3.9 9.45-3.9 5.15 0 8.4 2.3t3.85 8.15h-7.3q-.2-1.55-1-2.75-1.2-1.65-3.75-1.65"/><path id="aE" fill-rule="evenodd" d="M4.35-27v-7.6h7.05v7.6h4.4v5.1h-4.4v14.4q0 1.65.4 2.1.45.4 2.6.4h.7l.7-.05v5.3L12.45.4Q7.4.55 5.55-1.35q-1.2-1.25-1.2-3.8V-21.9H.55V-27h3.8"/><path id="aF" fill-rule="evenodd" d="M5.1-23.8q3.45-4.3 10.5-4.3 7 0 10.45 4.3 3.45 4.35 3.45 10.25 0 6-3.45 10.25T15.6.95Q8.55.95 5.1-3.3T1.65-13.55q0-5.9 3.45-10.25m5.65 3.95q-1.7 2.2-1.7 6.3t1.7 6.3Q12.45-5 15.55-5q3.15 0 4.8-2.25 1.7-2.2 1.7-6.3t-1.7-6.3q-1.65-2.25-4.8-2.25-3.1 0-4.8 2.25"/><path id="aG" fill-rule="evenodd" d="M20.15-27.25h7.65L17.95 0h-7.5L.65-27.25h8l5.7 20.1 5.8-20.1"/><path id="aH" fill-rule="evenodd" d="M13.8-28q5.1 0 8.3 2.05 3.2 2 3.7 7h-7.15q-.15-1.35-.75-2.15-1.2-1.45-4-1.45-2.35 0-3.3.7-1 .75-1 1.7 0 1.25 1.05 1.8t7.4 1.95q4.25 1 6.4 3.05 2.1 2.05 2.1 5.1 0 4.05-3 6.65Q20.5.95 14.2.95q-6.4 0-9.45-2.7-3.1-2.75-3.1-6.95H8.9q.2 1.9.95 2.7 1.35 1.45 4.9 1.45 2.1 0 3.35-.65 1.25-.6 1.25-1.85 0-1.2-1-1.85-1-.6-7.45-2.15-4.6-1.15-6.5-2.85-1.9-1.7-1.9-4.9 0-3.8 2.95-6.5T13.8-28"/><path id="aI" fill-rule="evenodd" d="M26.8-35.2v3.95q-1.75 1.65-4.6 5.8-2.85 4.15-5.05 8.95-2.2 4.7-3.3 8.55L11.95 0H7q1.7-10.25 7.5-20.4 3.4-5.95 7.2-10.25H1.9v-4.55h24.9"/><path id="aJ" fill-rule="evenodd" d="M24.9-26.35q0 3.3-1.8 5.35-1.1 1.3-2.85 2 2.85.8 4.45 3 1.55 2.2 1.55 5.4 0 5.15-3.35 8.35Q19.5 1 13.3 1 6.95 1 4.1-2.5 1.25-6 1.25-11h4.7q.3 3.5 1.3 5.05Q9-3.1 13.55-3.1q3.55 0 5.7-1.9 2.15-1.9 2.15-4.9 0-3.7-2.25-5.2-2.25-1.45-6.3-1.45h-.9l-.95.05v-4l1.2.1 1 .05q2.55 0 4.15-.8 2.85-1.4 2.85-5 0-2.7-1.9-4.15-1.9-1.45-4.4-1.45-4.5 0-6.25 3-.95 1.65-1.05 4.7H2.15q0-4 1.6-6.8 2.75-5 9.65-5 5.5 0 8.5 2.45t3 7.05"/><path id="aK" fill-rule="evenodd" d="M30.95-27.35q5.4 0 7.35 3.9 1.05 2.1 1.05 5.65V0h-4.7v-18.6q0-2.65-1.3-3.65-1.35-1-3.3-1-2.65 0-4.55 1.75-1.9 1.8-1.9 5.95V0H19v-17.45q0-2.75-.65-4-1-1.85-3.8-1.85-2.55 0-4.65 1.95-2.1 2-2.1 7.15V0H3.3v-26.75h4.45v3.8q1.6-2 2.9-2.9 2.25-1.5 5.05-1.5 3.2 0 5.15 1.55 1.1.9 2 2.65 1.5-2.15 3.55-3.15 2-1.05 4.55-1.05"/><path id="g" fill="none" stroke="#000" stroke-linecap="round" stroke-linejoin="round" stroke-width=".25" d="M1142.7 271.5q0-.8.6-1.35.55-.6 1.35-.6t1.35.6q.6.55.6 1.35t-.6 1.35q-.55.6-1.35.6t-1.35-.6q-.6-.55-.6-1.35Z" transform="translate(-1142.6 -269.45)"/><path id="aL" fill-rule="evenodd" d="M25.7-26.4h-4.45q-.4-2.15-1.25-3.35Q18.35-32 15.05-32q-3.75 0-6 3.5-2.2 3.5-2.45 10 1.55-2.3 3.9-3.4 2.15-1 4.8-1 4.5 0 7.85 2.85 3.35 2.9 3.35 8.6 0 4.85-3.2 8.65Q20.15.95 14.25.95q-5 0-8.65-3.8Q1.95-6.7 1.95-15.7q0-6.7 1.6-11.35 3.15-8.9 11.45-8.9 6 0 8.35 3.15 2.35 3.1 2.35 6.4m-11.25 7.6q-2.9 0-5.1 1.9-2.2 1.95-2.2 5.8 0 3.4 2 5.75 2 2.3 5.5 2.3 3.55 0 5.35-2.4 1.75-2.4 1.75-5.65 0-2.75-1.6-5.2-1.55-2.5-5.7-2.5"/><path id="aM" fill-rule="evenodd" d="M16.95-12.65V-28.9L5.45-12.65h11.5M1.3-8.75v-4.4L17.7-35.9h3.8v23.25h5.3v3.9h-5.3V0H17v-8.75H1.3"/><path id="aN" fill-rule="evenodd" d="M26.35-25.2q0 4.3-3 7.35-1.75 1.8-6.3 4.3l-3.4 1.9Q11.2-10.3 9.8-9.05 7.3-6.9 6.65-4.25H26.2V0H1.6q.25-4.6 1.95-8.05 1.65-3.4 6.45-6.2l4.8-2.8q3.25-1.85 4.55-3.2Q21.4-22.3 21.4-25q0-3.1-1.9-4.95-1.85-1.85-5-1.85-4.6 0-6.4 3.5-.95 1.9-1.05 5.2H2.5q.05-4.65 1.7-7.6 2.95-5.2 10.35-5.2 6.15 0 9 3.3 2.8 3.35 2.8 7.4"/><path id="aO" fill-rule="evenodd" d="M4.9-25.35v-3.45q4.9-.45 6.8-1.55 1.95-1.15 2.9-5.3h3.55V0h-4.8v-25.35H4.9"/><path id="aP" fill-rule="evenodd" d="M25.05-26.85q0 3.35-1.7 5.45-.95 1.15-2.95 2.3 2.2 1 3.5 2.35 2.35 2.5 2.35 6.5 0 4.7-3.15 8-3.2 3.3-9 3.3-5.2 0-8.8-2.85-3.65-2.85-3.65-8.25 0-3.15 1.55-5.45 1.55-2.35 4.6-3.55-1.85-.8-2.9-1.9-2-2-2-5.2 0-4 2.9-6.85 2.9-2.9 8.25-2.9 5.15 0 8.05 2.75 2.95 2.7 2.95 6.3m-11.25-4.9q-3.25 0-4.7 1.65-1.45 1.7-1.45 3.95 0 2.5 1.85 3.95 1.9 1.4 4.45 1.4 2.95 0 4.65-1.65 1.65-1.65 1.65-3.95 0-2-1.6-3.7-1.6-1.65-4.85-1.65m.1 14.9q-3.25 0-5.25 1.85Q6.6-13.2 6.6-9.95q0 2.8 1.85 4.85t5.75 2.05q3.15 0 5.2-1.7 2.05-1.7 2.05-5.05 0-3.45-2.1-5.25-2.15-1.8-5.45-1.8"/><path id="aQ" fill-rule="evenodd" d="M30.65-36.7v4.35h-12.4V0H13.2v-32.35H.85v-4.35h29.8"/><path id="aR" fill-rule="evenodd" d="M7.8-36.85v13.7q1.6-2 2.9-2.85 2.15-1.4 5.4-1.4 5.85 0 7.9 4.05 1.15 2.25 1.15 6.2V0H20.5v-16.85q0-2.95-.75-4.35-1.2-2.2-4.6-2.2-2.8 0-5.05 1.95-2.3 1.9-2.3 7.25V0H3.3v-36.85h4.5"/><path id="aS" fill-rule="evenodd" d="M20-26q2.65 1.3 4.05 3.45 1.35 2 1.8 4.7.4 1.85.4 5.9H6.65q.1 4.1 1.9 6.55 1.8 2.45 5.6 2.45 3.5 0 5.6-2.3 1.2-1.35 1.7-3.15h4.45q-.2 1.5-1.15 3.3-1 1.8-2.25 2.95-2.05 2-5.05 2.7l-3.7.4q-5 0-8.45-3.6-3.5-3.65-3.5-10.2 0-6.45 3.5-10.5 3.5-4 9.15-4 2.85 0 5.55 1.35M6.75-15.5h14.9q-.3-2.95-1.3-4.7-1.85-3.25-6.15-3.25-3.1 0-5.2 2.25t-2.25 5.7"/><path id="aT" fill-rule="evenodd" d="M19-36.7q7.6 0 11.75 5.35Q34.5-26.5 34.5-18.9q0 5.85-2.2 10.55Q28.4 0 18.95 0H4.15v-36.7H19m-9.85 4.25v28.2H18l4.15-.5q2.9-1 4.75-3.75 1.5-2.25 2.15-5.7l.35-3.85q0-6.85-2.7-10.6-2.7-3.8-8.75-3.8h-8.8"/><path id="aU" fill-rule="evenodd" d="M3.3-36.7h4.6v5.1H3.3v-5.1m4.6 10.05V0H3.3v-26.65h4.6"/><path id="aV" fill-rule="evenodd" d="M33.6-26.8q0 3.3-1.35 5.4-1.35 2.1-3.8 3.35 2.15.9 3.25 2.3 1.05 1.45 1.2 4.65l.15 4.9q.1 2.1.35 3.15Q33.85-1.3 35-.8V0h-6.1q-.25-.45-.4-1.2l-.25-2.9-.3-6.15q-.15-3.6-2.65-4.8-1.45-.7-4.5-.7H9.5V0h-5v-36.7h17q4.2 0 6.95 1.2 5.15 2.35 5.15 8.7m-7.9-4.9q-1.5-.75-4.05-.75H9.5v12.55H21q3.5 0 5.55-1.4 2-1.4 2-5.05 0-3.9-2.85-5.35"/><path id="aW" fill-rule="evenodd" d="M15.65-27.4q4.55 0 7.7 3.5 3.2 3.45 3.2 9.95 0 8.75-4.6 12.5Q19.05.9 15.2.9q-3 0-5.05-1.3-1.2-.75-2.7-2.6v13.7h-4.5v-37.35h4.4v3.55q1.35-1.8 2.95-2.8 2.25-1.5 5.35-1.5M8.2-18.8q-.9 2.5-.9 6.35 0 3.1.9 5.3Q9.95-3 14.6-3q3.15 0 5.25-2.65t2.1-7.9q0-3.2-.95-5.5-1.75-4.4-6.4-4.4T8.2-18.8"/><path id="aX" fill-rule="evenodd" d="M7.35-36.85v13.35q1.45-1.95 3.5-2.95 2.05-1 4.45-1 5 0 8.15 3.45 3.1 3.4 3.1 10.1 0 6.35-3.1 10.55-3.05 4.2-8.5 4.2Q11.9.85 9.8-.6q-1.25-.9-2.7-2.8V0H2.95v-36.85h4.4M20.15-6q1.8-2.9 1.8-7.65 0-4.25-1.8-7-1.85-2.8-5.35-2.8-3.1 0-5.4 2.3-2.3 2.25-2.3 7.5 0 3.75.95 6.1Q9.8-3.1 14.65-3.1q3.65 0 5.5-2.9"/><path id="aY" fill-rule="evenodd" d="M13.65-23.5q-4.3 0-6.15 4.2-1.2 2.7-1.2 6.7 0 4.05 1.7 6.8t5.35 2.75q2.8 0 4.45-1.7 1.6-1.75 2.25-4.7h4.35q-.75 5.3-3.75 7.8Q17.65.8 13 .8 7.75.8 4.6-3.05q-3.1-3.85-3.1-9.6 0-7.05 3.4-10.95 3.45-3.95 8.75-3.95 4.5 0 7.35 2.2 2.85 2.2 3.4 7.6h-4.35q-.4-2.5-1.85-4.1-1.4-1.65-4.55-1.65"/><path id="aZ" fill-rule="evenodd" d="m8.95-36.85 5.9 27 5.25-27h8.1l5.5 27 6.05-27h7.85L37.2 0h-7.35L24.1-28.65 18.35 0H11.2L.75-36.85h8.2"/><path id="ba" fill-rule="evenodd" d="M10.95-36.85V0H3.3v-36.85h7.65"/><path id="bb" fill-rule="evenodd" d="M32.3-25.15q0 6.5-3.3 9.2-3.3 2.7-9.45 2.7h-7.8V0H4.1v-36.85h16.05q5.55 0 8.85 2.85t3.3 8.85m-9.15-4.05q-1.5-1.25-4.25-1.25h-7.15v10.85h7.15q2.75 0 4.25-1.3 1.5-1.35 1.5-4.2 0-2.9-1.5-4.1"/><path id="bc" fill-rule="evenodd" d="M31.15-30.3h-19.5v7.8h17.9v6.4h-17.9v9.5h20.4V0H4.15v-36.85h27v6.55"/><path id="bd" fill-rule="evenodd" d="M20.2-37.95q7.9 0 12.1 4.3 5.55 5.05 5.55 15.2 0 9.9-5.55 15.2-4.2 4.3-12.1 4.3-7.9 0-12.05-4.3-5.6-5.3-5.6-15.2 0-10.15 5.6-15.2 4.15-4.3 12.05-4.3m-7.3 9.9q-2.7 3.35-2.7 9.6 0 6.2 2.7 9.6 2.75 3.35 7.3 3.35 4.6 0 7.3-3.35 2.65-3.4 2.65-9.6 0-6.2-2.65-9.6-2.7-3.4-7.3-3.4-4.55 0-7.3 3.4"/><path id="be" fill-rule="evenodd" d="M33.55-36.85v22.65q0 5.9-1.85 9.15-3.4 6-12.95 6-9.6 0-13-6Q3.9-8.3 3.9-14.2v-22.65h7.85v22.65q0 3.8.9 5.55 1.4 3.1 6.1 3.1 4.65 0 6.05-3.1.9-1.75.9-5.55v-22.65h7.85"/><path id="bf" fill-rule="evenodd" d="M30.7-36.85v6.55H19.65V0H11.9v-30.3H.85v-6.55H30.7"/><path id="bg" fill-rule="evenodd" d="M25.5-36.85h8L20.9 0h-7.25L1.2-36.85h8.2l8 28 8.1-28"/><path id="bh" fill-rule="evenodd" d="M28.15-35.9q2.05.9 3.5 2.6 1.2 1.4 1.9 3.1.7 1.7.7 3.85 0 2.65-1.3 5.2-1.35 2.5-4.4 3.55 2.55 1.05 3.65 2.95 1.05 1.85 1.05 5.75v2.45l.2 3.45q.3 1.4 1.4 2.1V0h-8.5l-.5-1.95q-.3-1.55-.3-3.2l-.05-3.4q-.05-3.55-1.3-4.7-1.25-1.2-4.65-1.2H11.6V0H4.1v-36.85h18.05q3.9.1 6 .95m-3.85 6.1q-1.25-.65-3.75-.65H11.6v9.9h8.75q2.6 0 3.9-.6 2.3-1.05 2.3-4.15 0-3.35-2.25-4.5"/><path id="bi" fill-rule="evenodd" d="M10.8-7.45V0H3.2v-7.45h7.6"/><path id="bj" fill-rule="evenodd" d="M25.3-26.5q0 3.2-1.9 5.4-1.2 1.35-2.5 1.85 1 0 2.8 1.7 2.75 2.5 2.75 6.9 0 4.6-3.2 8.1Q20.05.9 13.8.9q-7.7 0-10.7-5-1.55-2.7-1.75-7h7q0 2.15.7 3.6 1.3 2.6 4.75 2.6 2.1 0 3.65-1.4Q19-7.75 19-10.45q0-3.6-2.9-4.8l-5.2-.65V-21q3.5-.05 4.85-.7 2.4-1.05 2.4-4.25 0-2.05-1.2-3.35-1.25-1.3-3.45-1.3-2.5 0-3.7 1.6-1.2 1.6-1.15 4.25H2q.1-2.7.95-5.1Q3.8-32 5.7-33.8q1.4-1.25 3.3-1.95 1.95-.65 4.75-.65 5.2 0 8.4 2.7 3.15 2.65 3.15 7.2"/><path id="bk" fill-rule="evenodd" d="M26.35-24.8q0 4.05-2.4 7.15-1.55 2.1-5.15 4.65l-2.85 2-3.65 2.75-1.7 2h15.85V0H1.6q.1-3.9 1.7-7.1 1.5-3.65 7.2-7.7 4.9-3.5 6.35-5.05 2.25-2.35 2.25-5.2 0-2.3-1.3-3.8-1.25-1.55-3.65-1.55-3.25 0-4.4 2.45-.7 1.4-.8 4.45H2q.2-4.65 1.7-7.5 2.85-5.4 10.1-5.4 5.75 0 9.15 3.2 3.4 3.15 3.4 8.4"/><path id="t" fill-rule="evenodd" d="M659.05 820.3q0-.55.4-1 .4-.4 1-.4t1 .4q.4.45.4 1 0 .6-.4 1-.4.45-1 .45t-1-.45q-.4-.4-.4-1" transform="translate(-659.05 -818.9)"/><path id="bl" fill-rule="evenodd" d="M20.85-30.6q-1.8-.9-4.45-.9-3 0-4.75 1.2-1.8 1.2-1.8 3.35Q9.85-25 11.6-24q1.15.65 4.8 1.5l6.35 1.55q4.2 1 6.3 2.65 3.3 2.6 3.3 7.55 0 5.05-3.85 8.4Q24.65.95 17.6.95 10.4.95 6.25-2.3q-4.1-3.3-4.1-9.05H9.5q.35 2.5 1.35 3.75 1.9 2.3 6.45 2.3l4.4-.6q3.25-1.15 3.25-4.3 0-1.8-1.6-2.8-1.6-1-5.05-1.75l-3.9-.85q-5.75-1.3-7.95-2.85-3.7-2.55-3.7-7.95 0-4.95 3.6-8.25 3.6-3.25 10.55-3.25 5.85 0 9.95 3.1 4.1 3.05 4.3 8.95h-7.4q-.2-3.35-2.9-4.75"/><path id="bm" fill-rule="evenodd" d="M29.85-6.6V0H3.9v-36.85h7.7V-6.6h18.25"/><path id="bn" fill-rule="evenodd" d="M33.7-36.85V0H26L10.95-26.15V0H3.8v-36.85h8.05l14.7 25.75v-25.75h7.15"/><path id="bo" fill-rule="evenodd" d="M28.7-25.35q-.9-3.75-4.3-5.25-1.9-.85-4.2-.85-4.45 0-7.3 3.4Q10-24.7 10-17.95q0 6.8 3.1 9.6 3.1 2.85 7.05 2.85 3.9 0 6.35-2.25Q29-10 29.55-13.6h-8.5v-6.15H36.4V0h-5.1l-.8-4.6q-2.2 2.65-4 3.7Q23.45 1 19 1 11.7 1 7-4.1 2.15-9.2 2.15-18.05q0-8.95 4.9-14.35Q12-37.8 20.1-37.8q7 0 11.3 3.6 4.25 3.55 4.85 8.85H28.7"/><path id="bp" fill-rule="evenodd" d="M18.95-37.55q9.3 0 13.6 6.1 2.35 3.45 2.55 6.9h-7.7q-.75-2.65-1.95-4-2.1-2.4-6.2-2.4-4.2 0-6.65 3.4-2.4 3.35-2.4 9.55 0 6.2 2.55 9.3 2.55 3.1 6.5 3.1 4.05 0 6.2-2.65 1.15-1.45 1.95-4.3H35q-1 6.05-5.1 9.8-4.1 3.8-10.55 3.8-7.95 0-12.5-5.1Q2.3-9.2 2.3-18.1q0-9.65 5.2-14.9 4.5-4.55 11.45-4.55"/><path id="bq" fill-rule="evenodd" d="M28.35-36.85H39.4V0h-7.15v-27.9l.05-3-7 30.9h-7.45L10.9-30.9l.05 3V0H3.8v-36.85H15l6.7 29 6.65-29"/><path id="w" fill-rule="evenodd" d="M639.2 48.15h612.25v810.7H639.2V48.15" transform="translate(-639.2 -48.15)"/><path id="br" fill-rule="evenodd" d="M4.2-34.25h4.55v7.5h4.3v3.65h-4.3v17.5q0 1.4.95 1.85l1.75.3h.7l.9-.1V0l-1.6.35-1.85.1q-3.15 0-4.25-1.6Q4.2-2.8 4.2-5.35V-23.1H.6v-3.65h3.6v-7.5"/><path id="y" fill-rule="evenodd" d="M712.9 760.85v-16h19.2v16h-19.2m16-3.2v-9.6h-12.8v9.6h12.8" transform="translate(-712.9 -744.85)"/><path id="z" fill-rule="evenodd" d="M94.85 560.7h8v16h-3.2v-12.8h-4.8v-3.2" transform="translate(-94.85 -560.7)"/><path id="A" fill-rule="evenodd" d="M759.85 748.05H743.9v-3.2h19.15v9.6H747.1v3.2h15.95v3.2H743.9v-9.6h15.95v-3.2" transform="translate(-743.9 -744.85)"/><path id="B" fill-rule="evenodd" d="M764.9 754.45v-3.2h16v-3.2h-16v-3.2h19.2v16h-19.2v-3.2h16v-3.2h-16" transform="translate(-764.9 -744.85)"/><path id="C" fill-rule="evenodd" d="M162.8 573.5v-6.4h3.2v13.6h-3.2v-4h-16v-4.8l12.25-9.5v-1.7h3.2v3.2l-12.35 9.6h12.9" transform="translate(-146.8 -560.7)"/><path id="E" fill-rule="evenodd" d="M797.15 738.35v-16h19.2v4.8l-10.25 8h10.25v3.2h-19.2m3.2-12.8v9.6h.55l12.35-9.6h-12.9" transform="translate(-797.15 -722.35)"/><path id="G" fill-rule="evenodd" d="M863.55 725.55v12.8h-3.2v-20h3.2v2.8l16 12.4v4.8h-3.2v-3.2l-12.25-9.6h-.55" transform="translate(-860.35 -718.35)"/><path id="I" fill-rule="evenodd" d="M944.95 722.35v16h-3.2v-12.8h-4.8v12.8h-3.2v-12.8h-4.8v12.8h-3.2v-16h19.2" transform="translate(-925.75 -722.35)"/><path id="J" fill-rule="evenodd" d="M950 738.35h-3.2v-16h4.8l14.4 11.2v4.8h-3.2v-3.2l-12.25-9.6H950v12.8" transform="translate(-946.8 -722.35)"/><path id="L" fill-rule="evenodd" d="M1031.1 722.35h19.15v3.2h-16v12.8h-3.15v-16" transform="translate(-1031.1 -722.35)"/><path id="M" fill-rule="evenodd" d="M1073.2 738.35v-20h3.2v4h16v3.2h-16v9.6h16v3.2h-19.2" transform="translate(-1073.2 -718.35)"/><path id="N" fill-rule="evenodd" d="M471.05 538.2h3.2v16h-19.2v-16h3.2V551h12.8v-12.8" transform="translate(-455.05 -538.2)"/><path id="O" fill-rule="evenodd" d="M537.5 538.2v3.2l-6.2 4.8 6.2 4.8v3.2h-3.2v-1.65l-6.4-4.95-6.4 4.95v1.65h-3.2V551l6.15-4.8-6.15-4.8v-3.2h3.2v1.7l6.4 4.95 6.4-4.95v-1.7h3.2" transform="translate(-518.3 -538.2)"/><path id="P" fill-rule="evenodd" d="m561 551 12.35-9.6h-12.9v-3.2h16v4.8l-10.3 8h10.3v3.2H561V551" transform="translate(-560.45 -538.2)"/><path id="bs" fill-rule="evenodd" d="M8.45-29.5Q6.5-27.3 6.5-23.6q0 3.5 1.7 5.55T13.65-16q2.65 0 4.9-1.75 2.2-1.75 2.2-6.15 0-3.95-2-5.9-2-1.95-5.05-1.95-3.3 0-5.25 2.25m5.15-6.35q7.8 0 10.8 7.05 1.65 3.9 1.65 9.7 0 6.6-2 11.65Q20.8 1 12.95 1 7.7 1 5-1.75 2.25-4.5 2.25-8.65H6.8Q7-4.9 9.7-3.5q1.35.75 3.1.75 3.2 0 5.5-2.65 2.25-2.7 3.2-10.95-1.5 2.4-3.7 3.35-2.2.95-4.75.95-5.2 0-8.2-3.2-3-3.25-3-8.3 0-4.9 2.95-8.6 3-3.7 8.8-3.7"/><path id="R" fill="none" stroke="#000" stroke-linecap="round" stroke-linejoin="round" stroke-width=".7" d="m205.05 178.65 116.9-116.9" transform="translate(-204.7 -61.4)"/><path id="S" fill="none" stroke="#000" stroke-linecap="round" stroke-linejoin="round" stroke-width=".7" d="M243.3 61.75v19.5h78.65v97.4H283v-19.5h19.5v-58.4h-59.2v19.5h-9L205.05 91l29.25-29.25h9Z" transform="translate(-204.7 -61.4)"/><path id="U" fill="none" stroke="#000" stroke-linecap="round" stroke-linejoin="round" stroke-width=".7" d="M445.3 56.85v11.2h45v55.7H468V112.6h11.15V79.15H445.3v11.2h-5.15L423.4 73.6l16.75-16.75h5.15Z" transform="translate(-423.05 -56.5)"/><path id="bt" fill-rule="evenodd" d="M17.4-37.95 3.1 0h-5.9l14.3-37.95h5.9"/><path id="bu" fill-rule="evenodd" d="M11.5-16.45V0H3.85v-36.85h7.65v14.05h14.4v-14.05h7.65V0H25.9v-16.45H11.5"/><path id="aa" fill="#91959d" fill-rule="evenodd" d="M93.55 657.7h17.6l2.25 2.25v14.75H93.55v-17" transform="translate(-93.55 -657.7)"/><g id="b" transform="translate(-.55 .05)"><use xlink:href="#ab" width="45.9" height="6.55" transform="translate(0 5) scale(.1367)"/><use xlink:href="#ac" width="45.9" height="6.55" transform="translate(4.3 5) scale(.1367)"/><use xlink:href="#ad" width="45.9" height="6.55" transform="translate(8.2 5) scale(.1367)"/><use xlink:href="#ad" width="45.9" height="6.55" transform="translate(12.1 5) scale(.1367)"/><use xlink:href="#ae" width="45.9" height="6.55" transform="translate(17.7 5) scale(.1367)"/><use xlink:href="#af" width="45.9" height="6.55" transform="translate(22.75 5) scale(.1367)"/><use xlink:href="#ag" width="45.9" height="6.55" transform="translate(27.05 5) scale(.1367)"/><use xlink:href="#ah" width="45.9" height="6.55" transform="translate(31.35 5) scale(.1367)"/><use xlink:href="#ai" width="45.9" height="6.55" transform="translate(33.7 5) scale(.1367)"/><use xlink:href="#aj" width="45.9" height="6.55" transform="translate(38 5) scale(.1367)"/><use xlink:href="#ak" width="45.9" height="6.55" transform="translate(39.95 5) scale(.1367)"/><use xlink:href="#al" width="45.9" height="6.55" transform="translate(43.85 5) scale(.1367)"/></g><g id="c" transform="translate(-.5 -.7)"><use xlink:href="#am" width="57.05" height="5.65" transform="translate(0 5) scale(.1172)"/><use xlink:href="#an" width="57.05" height="5.65" transform="translate(3.65 5) scale(.1172)"/><use xlink:href="#ao" width="57.05" height="5.65" transform="translate(7 5) scale(.1172)"/><use xlink:href="#ao" width="57.05" height="5.65" transform="translate(10.35 5) scale(.1172)"/><use xlink:href="#ap" width="57.05" height="5.65" transform="translate(15 5) scale(.1172)"/><use xlink:href="#aq" width="57.05" height="5.65" transform="translate(19 5) scale(.1172)"/><use xlink:href="#ar" width="57.05" height="5.65" transform="translate(22.35 5) scale(.1172)"/><use xlink:href="#as" width="57.05" height="5.65" transform="translate(25.7 5) scale(.1172)"/><use xlink:href="#at" width="57.05" height="5.65" transform="translate(27.7 5) scale(.1172)"/><use xlink:href="#au" width="57.05" height="5.65" transform="translate(31.05 5) scale(.1172)"/><use xlink:href="#av" width="57.05" height="5.65" transform="translate(32.4 5) scale(.1172)"/><use xlink:href="#aw" width="57.05" height="5.65" transform="translate(35.75 5) scale(.1172)"/><use xlink:href="#ap" width="57.05" height="5.65" transform="translate(39.05 5) scale(.1172)"/><use xlink:href="#aw" width="57.05" height="5.65" transform="translate(43.05 5) scale(.1172)"/><use xlink:href="#aw" width="57.05" height="5.65" transform="translate(45.05 5) scale(.1172)"/><use xlink:href="#ax" width="57.05" height="5.65" transform="translate(47.05 5) scale(.1172)"/><use xlink:href="#ay" width="57.05" height="5.65" transform="translate(50.4 5) scale(.1172)"/><use xlink:href="#az" width="57.05" height="5.65" transform="translate(54.75 5) scale(.1172)"/></g><g id="d" transform="translate(-.45 -.65)"><use xlink:href="#aA" width="54.7" height="4.45" transform="translate(0 5) scale(.1172)"/><use xlink:href="#aB" width="54.7" height="4.45" transform="translate(4.35 5) scale(.1172)"/><use xlink:href="#al" width="54.7" height="4.45" transform="translate(6 5) scale(.1172)"/><use xlink:href="#aC" width="54.7" height="4.45" transform="translate(8.35 5) scale(.1172)"/><use xlink:href="#aD" width="54.7" height="4.45" transform="translate(11.7 5) scale(.1172)"/><use xlink:href="#aE" width="54.7" height="4.45" transform="translate(15.05 5) scale(.1172)"/><use xlink:href="#aB" width="54.7" height="4.45" transform="translate(17.05 5) scale(.1172)"/><use xlink:href="#aF" width="54.7" height="4.45" transform="translate(18.7 5) scale(.1172)"/><use xlink:href="#af" width="54.7" height="4.45" transform="translate(22.35 5) scale(.1172)"/><use xlink:href="#ak" width="54.7" height="4.45" transform="translate(26 5) scale(.1172)"/><use xlink:href="#aj" width="54.7" height="4.45" transform="translate(29.35 5) scale(.1172)"/><use xlink:href="#aA" width="54.7" height="4.45" transform="translate(32.65 5) scale(.1172)"/><use xlink:href="#aC" width="54.7" height="4.45" transform="translate(37 5) scale(.1172)"/><use xlink:href="#aG" width="54.7" height="4.45" transform="translate(40.35 5) scale(.1172)"/><use xlink:href="#aB" width="54.7" height="4.45" transform="translate(43.7 5) scale(.1172)"/><use xlink:href="#aD" width="54.7" height="4.45" transform="translate(45.35 5) scale(.1172)"/><use xlink:href="#aC" width="54.7" height="4.45" transform="translate(48.7 5) scale(.1172)"/><use xlink:href="#aH" width="54.7" height="4.45" transform="translate(52.05 5) scale(.1172)"/></g><g id="e" transform="translate(-.2 -.15)"><use xlink:href="#aI" width="13.75" height="3.95" transform="translate(0 4) scale(.1074)"/><use xlink:href="#aJ" width="13.75" height="3.95" transform="translate(2.8 4) scale(.1074)"/><use xlink:href="#aK" width="13.75" height="3.95" transform="translate(5.6 4) scale(.1074)"/><use xlink:href="#aK" width="13.75" height="3.95" transform="translate(9.75 4) scale(.1074)"/></g><g id="f"><path fill-rule="evenodd" d="M.1 2.05q0-.8.55-1.35Q1.2.1 2 .1t1.4.6q.55.55.55 1.35T3.4 3.4Q2.85 4 2 4q-.8 0-1.35-.6Q.1 2.85.1 2.05"/><path fill="none" stroke="#000" stroke-linecap="round" stroke-linejoin="round" stroke-width=".25" d="M.1 2.05q0-.8.55-1.35Q1.2.1 2 .1t1.4.6q.55.55.55 1.35T3.4 3.4Q2.85 4 2 4q-.8 0-1.35-.6Q.1 2.85.1 2.05Z"/></g><g id="h" transform="translate(-.2 -.15)"><use xlink:href="#aL" width="13.75" height="3.95" transform="translate(0 4) scale(.1074)"/><use xlink:href="#aJ" width="13.75" height="3.95" transform="translate(2.8 4) scale(.1074)"/><use xlink:href="#aK" width="13.75" height="3.95" transform="translate(5.6 4) scale(.1074)"/><use xlink:href="#aK" width="13.75" height="3.95" transform="translate(9.75 4) scale(.1074)"/></g><g id="i" transform="translate(-.2 -.15)"><use xlink:href="#an" width="13.75" height="3.95" transform="translate(0 4) scale(.1074)"/><use xlink:href="#aJ" width="13.75" height="3.95" transform="translate(2.8 4) scale(.1074)"/><use xlink:href="#aK" width="13.75" height="3.95" transform="translate(5.6 4) scale(.1074)"/><use xlink:href="#aK" width="13.75" height="3.95" transform="translate(9.75 4) scale(.1074)"/></g><g id="j" transform="translate(-.15 -.15)"><use xlink:href="#aM" width="13.8" height="3.95" transform="translate(0 4) scale(.1074)"/><use xlink:href="#aJ" width="13.8" height="3.95" transform="translate(2.8 4) scale(.1074)"/><use xlink:href="#aK" width="13.8" height="3.95" transform="translate(5.6 4) scale(.1074)"/><use xlink:href="#aK" width="13.8" height="3.95" transform="translate(9.75 4) scale(.1074)"/></g><g id="k" transform="translate(-.15 -.15)"><use xlink:href="#aJ" width="13.8" height="3.95" transform="translate(0 4) scale(.1074)"/><use xlink:href="#aJ" width="13.8" height="3.95" transform="translate(2.8 4) scale(.1074)"/><use xlink:href="#aK" width="13.8" height="3.95" transform="translate(5.6 4) scale(.1074)"/><use xlink:href="#aK" width="13.8" height="3.95" transform="translate(9.75 4) scale(.1074)"/></g><g id="l" transform="translate(-.15 -.15)"><use xlink:href="#aN" width="13.8" height="3.95" transform="translate(0 4) scale(.1074)"/><use xlink:href="#aJ" width="13.8" height="3.95" transform="translate(2.8 4) scale(.1074)"/><use xlink:href="#aK" width="13.8" height="3.95" transform="translate(5.6 4) scale(.1074)"/><use xlink:href="#aK" width="13.8" height="3.95" transform="translate(9.75 4) scale(.1074)"/></g><g id="m" transform="translate(-.55 -.15)"><use xlink:href="#aO" width="13.4" height="3.95" transform="translate(0 4) scale(.1074)"/><use xlink:href="#aJ" width="13.4" height="3.95" transform="translate(2.8 4) scale(.1074)"/><use xlink:href="#aK" width="13.4" height="3.95" transform="translate(5.6 4) scale(.1074)"/><use xlink:href="#aK" width="13.4" height="3.95" transform="translate(9.75 4) scale(.1074)"/></g><g id="n" transform="translate(-.55 -.15)"><use xlink:href="#aO" width="16.2" height="3.95" transform="translate(0 4) scale(.1074)"/><use xlink:href="#aJ" width="16.2" height="3.95" transform="translate(2.8 4) scale(.1074)"/><use xlink:href="#aJ" width="16.2" height="3.95" transform="translate(5.6 4) scale(.1074)"/><use xlink:href="#aK" width="16.2" height="3.95" transform="translate(8.4 4) scale(.1074)"/><use xlink:href="#aK" width="16.2" height="3.95" transform="translate(12.55 4) scale(.1074)"/></g><g id="o" transform="translate(-.55 -.15)"><use xlink:href="#aO" width="15.8" height="3.95" transform="translate(0 4) scale(.1074)"/><use xlink:href="#aO" width="15.8" height="3.95" transform="translate(2.4 4) scale(.1074)"/><use xlink:href="#aJ" width="15.8" height="3.95" transform="translate(5.2 4) scale(.1074)"/><use xlink:href="#aK" width="15.8" height="3.95" transform="translate(8 4) scale(.1074)"/><use xlink:href="#aK" width="15.8" height="3.95" transform="translate(12.15 4) scale(.1074)"/></g><g id="p" transform="translate(-.2 -.15)"><use xlink:href="#aP" width="13.75" height="3.95" transform="translate(0 4) scale(.1074)"/><use xlink:href="#aJ" width="13.75" height="3.95" transform="translate(2.8 4) scale(.1074)"/><use xlink:href="#aK" width="13.75" height="3.95" transform="translate(5.6 4) scale(.1074)"/><use xlink:href="#aK" width="13.75" height="3.95" transform="translate(9.75 4) scale(.1074)"/></g><g id="q" transform="translate(-.1 .05)"><use xlink:href="#aQ" width="74.55" height="6.6" transform="translate(0 5) scale(.1367)"/><use xlink:href="#aR" width="74.55" height="6.6" transform="translate(4.3 5) scale(.1367)"/><use xlink:href="#aS" width="74.55" height="6.6" transform="translate(8.2 5) scale(.1367)"/><use xlink:href="#aT" width="74.55" height="6.6" transform="translate(14.05 5) scale(.1367)"/><use xlink:href="#aS" width="74.55" height="6.6" transform="translate(19.1 5) scale(.1367)"/><use xlink:href="#az" width="74.55" height="6.6" transform="translate(23 5) scale(.1367)"/><use xlink:href="#aU" width="74.55" height="6.6" transform="translate(26.5 5) scale(.1367)"/><use xlink:href="#ar" width="74.55" height="6.6" transform="translate(28.05 5) scale(.1367)"/><use xlink:href="#aq" width="74.55" height="6.6" transform="translate(31.95 5) scale(.1367)"/><use xlink:href="#aS" width="74.55" height="6.6" transform="translate(35.85 5) scale(.1367)"/><use xlink:href="#aw" width="74.55" height="6.6" transform="translate(39.75 5) scale(.1367)"/><use xlink:href="#az" width="74.55" height="6.6" transform="translate(42.1 5) scale(.1367)"/><use xlink:href="#aV" width="74.55" height="6.6" transform="translate(47.55 5) scale(.1367)"/><use xlink:href="#aS" width="74.55" height="6.6" transform="translate(52.6 5) scale(.1367)"/><use xlink:href="#aW" width="74.55" height="6.6" transform="translate(56.5 5) scale(.1367)"/><use xlink:href="#at" width="74.55" height="6.6" transform="translate(60.4 5) scale(.1367)"/><use xlink:href="#aX" width="74.55" height="6.6" transform="translate(64.3 5) scale(.1367)"/><use xlink:href="#au" width="74.55" height="6.6" transform="translate(68.2 5) scale(.1367)"/><use xlink:href="#aU" width="74.55" height="6.6" transform="translate(69.75 5) scale(.1367)"/><use xlink:href="#aY" width="74.55" height="6.6" transform="translate(71.3 5) scale(.1367)"/></g><g id="r" fill="none" stroke="#000" stroke-linecap="round" stroke-linejoin="round" stroke-width=".7"><path d="M.35.35V207.4M144.95.35V207.4"/></g><g id="s" transform="translate(-.05 .5)"><use xlink:href="#aZ" width="46.5" height="3.6" transform="translate(0 3) scale(.0928)"/><use xlink:href="#ba" width="46.5" height="3.6" transform="translate(3.8 3) scale(.0928)"/><use xlink:href="#bb" width="46.5" height="3.6" transform="translate(4.9 3) scale(.0928)"/><use xlink:href="#bc" width="46.5" height="3.6" transform="translate(7.55 3) scale(.0928)"/><use xlink:href="#bd" width="46.5" height="3.6" transform="translate(10.2 3) scale(.0928)"/><use xlink:href="#be" width="46.5" height="3.6" transform="translate(13.3 3) scale(.0928)"/><use xlink:href="#bf" width="46.5" height="3.6" transform="translate(16.2 3) scale(.0928)"/><use xlink:href="#bg" width="46.5" height="3.6" transform="translate(19.75 3) scale(.0928)"/><use xlink:href="#bc" width="46.5" height="3.6" transform="translate(22.4 3) scale(.0928)"/><use xlink:href="#bh" width="46.5" height="3.6" transform="translate(25.05 3) scale(.0928)"/><use xlink:href="#bi" width="46.5" height="3.6" transform="translate(27.95 3) scale(.0928)"/><use xlink:href="#ad" width="46.5" height="3.6" transform="translate(30.15 3) scale(.0928)"/><use xlink:href="#bj" width="46.5" height="3.6" transform="translate(32.35 3) scale(.0928)"/><use xlink:href="#bi" width="46.5" height="3.6" transform="translate(34.55 3) scale(.0928)"/><use xlink:href="#ad" width="46.5" height="3.6" transform="translate(35.65 3) scale(.0928)"/><use xlink:href="#ad" width="46.5" height="3.6" transform="translate(37.85 3) scale(.0928)"/><use xlink:href="#bi" width="46.5" height="3.6" transform="translate(40.05 3) scale(.0928)"/><use xlink:href="#ad" width="46.5" height="3.6" transform="translate(41.15 3) scale(.0928)"/><use xlink:href="#bk" width="46.5" height="3.6" transform="translate(43.35 3) scale(.0928)"/><use xlink:href="#bi" width="46.5" height="3.6" transform="translate(45.55 3) scale(.0928)"/></g><g id="u" transform="translate(-.1 .5)"><use xlink:href="#bg" width="63.15" height="3.6" transform="translate(0 3) scale(.0928)"/><use xlink:href="#ba" width="63.15" height="3.6" transform="translate(2.65 3) scale(.0928)"/><use xlink:href="#bl" width="63.15" height="3.6" transform="translate(3.75 3) scale(.0928)"/><use xlink:href="#be" width="63.15" height="3.6" transform="translate(6.4 3) scale(.0928)"/><use xlink:href="#ae" width="63.15" height="3.6" transform="translate(9.3 3) scale(.0928)"/><use xlink:href="#bm" width="63.15" height="3.6" transform="translate(12.2 3) scale(.0928)"/><use xlink:href="#bm" width="63.15" height="3.6" transform="translate(15.65 3) scale(.0928)"/><use xlink:href="#ae" width="63.15" height="3.6" transform="translate(18.1 3) scale(.0928)"/><use xlink:href="#bn" width="63.15" height="3.6" transform="translate(21 3) scale(.0928)"/><use xlink:href="#bo" width="63.15" height="3.6" transform="translate(23.9 3) scale(.0928)"/><use xlink:href="#be" width="63.15" height="3.6" transform="translate(27 3) scale(.0928)"/><use xlink:href="#ae" width="63.15" height="3.6" transform="translate(29.9 3) scale(.0928)"/><use xlink:href="#bo" width="63.15" height="3.6" transform="translate(32.8 3) scale(.0928)"/><use xlink:href="#bc" width="63.15" height="3.6" transform="translate(35.9 3) scale(.0928)"/><use xlink:href="#aA" width="63.15" height="3.6" transform="translate(39.65 3) scale(.0928)"/><use xlink:href="#bd" width="63.15" height="3.6" transform="translate(42.55 3) scale(.0928)"/><use xlink:href="#bp" width="63.15" height="3.6" transform="translate(45.65 3) scale(.0928)"/><use xlink:href="#be" width="63.15" height="3.6" transform="translate(48.55 3) scale(.0928)"/><use xlink:href="#bq" width="63.15" height="3.6" transform="translate(51.45 3) scale(.0928)"/><use xlink:href="#bc" width="63.15" height="3.6" transform="translate(54.8 3) scale(.0928)"/><use xlink:href="#bn" width="63.15" height="3.6" transform="translate(57.45 3) scale(.0928)"/><use xlink:href="#bf" width="63.15" height="3.6" transform="translate(60.35 3) scale(.0928)"/><use xlink:href="#bi" width="63.15" height="3.6" transform="translate(62.25 3) scale(.0928)"/></g><g id="v"><path fill="#ac9892" fill-rule="evenodd" d="M62.8 40.5H0v-17h60.6l2.2 2.2v14.8"/><path fill="none" stroke="#000" stroke-linecap="round" stroke-linejoin="round" stroke-width=".5" d="M63.8.25v10.2"/></g><g id="x" transform="translate(-.15 -.15)"><use xlink:href="#aN" width="9.65" height="5" transform="translate(0 4) scale(.1074)"/><use xlink:href="#ao" width="9.65" height="5" transform="translate(2.8 4) scale(.1074)"/><use xlink:href="#aW" width="9.65" height="5" transform="translate(5.6 4) scale(.1074)"/><use xlink:href="#br" width="9.65" height="5" transform="translate(8.4 4) scale(.1074)"/></g><g id="D" fill-rule="evenodd"><path d="m119.6 34.4-1.2.95v3.95h12.8v-4.9h-11.6m.9-4.7v-3.2h3.1v4.7h10.8v11.3h-19.2v-8.7l5.3-4.1M136.3 29.7v-3.2h19.2v4.8l-12.25 9.55v1.65h-3.2v-3.2l12.35-9.6h-16.1M176.55 26.5v16h-19.2v-16h19.2m-16 12.8h12.8v-3.2h-12.8v3.2m12.8-6.4v-3.2h-12.8v3.2h12.8M197.6 26.5v8.7l-5.35 4.1v3.2h-3.05v-4.7h-10.8V26.5h19.2m-3.2 7.15V29.7h-12.8v4.9h11.6l1.2-.95M0 20v-4.8l10.3-8H0V4h19.2v16H0m16-3.2V7.2h-.55L3.1 16.8H16M24.35 0v2.8L40.3 15.2V20H21.15V0h3.2m.5 7.2h-.5v9.6H37.2L24.85 7.2M61.35 4v3.2h-16v9.6h16V20h-19.2V4h19.2M79.2 16.8V7.2h-.55L66.3 16.8h12.9m-16 3.2v-4.8l16-12.4V0h3.2v20H63.2"/></g><g id="F" fill-rule="evenodd"><path d="M0 20V0h19.2v3.2h-16v9.6h16V16h-16v4H0M40.25 20h-3.2v-4h-16V0h19.2v20m-3.2-7.2V3.2h-12.8v9.6h12.8"/></g><g id="H" fill-rule="evenodd"><path d="M0 0h3.2v2.4H0V0m0 4h3.2v16H0V4M13.05 0h3.2v2.4h-3.2V0m-4.8 24h-3.2v-3.2h2.1l5.9-4.55V4h3.2v13.8l-8 6.2M18.1 0h3.2v7.75L26.1 4h11.2v3.2H27.2l-5.9 4.6v5h16V20H18.1V0"/></g><g id="K" fill-rule="evenodd"><path d="M3.2 3.2v9.6H16V3.2H3.2M0 20V0h19.2v16h-16v4H0M40.2 0v20H37v-2.75L21 4.8V0h19.2M37 12.8V3.2H24.1l12.35 9.6H37"/></g><g id="Q" transform="translate(-.2 -.15)"><use xlink:href="#bs" width="9.6" height="5" transform="translate(0 4) scale(.1074)"/><use xlink:href="#bs" width="9.6" height="5" transform="translate(2.8 4) scale(.1074)"/><use xlink:href="#aW" width="9.6" height="5" transform="translate(5.6 4) scale(.1074)"/><use xlink:href="#br" width="9.6" height="5" transform="translate(8.4 4) scale(.1074)"/></g><g id="T"><path fill-rule="evenodd" d="M58.4 29.65 87.65.35l29.25 29.3v9H97.4v83.5H0V83.2h19.5v19.45h58.4v-64H58.4v-9"/><path fill="none" stroke="#000" stroke-linecap="round" stroke-linejoin="round" stroke-width=".7" d="M416.45 67.25 349.55.35"/></g><g id="V" transform="translate(-.15 -.15)"><use xlink:href="#aN" width="13.8" height="3.85" transform="translate(0 4) scale(.1074)"/><use xlink:href="#aI" width="13.8" height="3.85" transform="translate(2.8 4) scale(.1074)"/><use xlink:href="#aK" width="13.8" height="3.85" transform="translate(5.6 4) scale(.1074)"/><use xlink:href="#aK" width="13.8" height="3.85" transform="translate(9.75 4) scale(.1074)"/></g><g id="W" transform="translate(-.15 -.15)"><use xlink:href="#aJ" width="13.8" height="3.95" transform="translate(0 4) scale(.1074)"/><use xlink:href="#aL" width="13.8" height="3.95" transform="translate(2.8 4) scale(.1074)"/><use xlink:href="#aK" width="13.8" height="3.95" transform="translate(5.6 4) scale(.1074)"/><use xlink:href="#aK" width="13.8" height="3.95" transform="translate(9.75 4) scale(.1074)"/></g><g id="X"><path fill-rule="evenodd" d="m67.6.1 22.5 22.5v6.95h-15v64.3H.1v-30h15v15h45v-49.3H45.05V22.6L67.6.1M20.75 101.9q-.6.55-1.4.55-.8 0-1.35-.55t-.55-1.35q0-.8.55-1.4.55-.55 1.35-.55t1.4.55q.55.6.55 1.4 0 .8-.55 1.35m1.85-2.75q.6-.55 1.4-.55.8 0 1.35.55.55.6.6 1.4 0 .8-.6 1.35-.55.55-1.35.55t-1.4-.55q-.55-.55-.55-1.35t.55-1.4"/><path fill="none" stroke="#000" stroke-linecap="round" stroke-linejoin="round" stroke-width=".25" d="m67.6.1 22.5 22.5v6.95h-15v64.3H.1v-30h15v15h45v-49.3H45.05V22.6L67.6.1M20.75 101.9q-.6.55-1.4.55-.8 0-1.35-.55t-.55-1.35q0-.8.55-1.4.55-.55 1.35-.55t1.4.55q.55.6.55 1.4 0 .8-.55 1.35m1.85-2.75q.6-.55 1.4-.55.8 0 1.35.55.55.6.6 1.4 0 .8-.6 1.35-.55.55-1.35.55t-1.4-.55q-.55-.55-.55-1.35t.55-1.4Z"/></g><g id="Y" transform="translate(-.15 -.05)"><use xlink:href="#bl" width="11.35" height="3.05" transform="translate(0 3) scale(.0781)"/><use xlink:href="#bt" width="11.35" height="3.05" transform="translate(2.65 3) scale(.0781)"/><use xlink:href="#bp" width="11.35" height="3.05" transform="translate(3.75 3) scale(.0781)"/><use xlink:href="#bt" width="11.35" height="3.05" transform="translate(6.65 3) scale(.0781)"/><use xlink:href="#ae" width="11.35" height="3.05" transform="translate(7.75 3) scale(.0781)"/><use xlink:href="#bi" width="11.35" height="3.05" transform="translate(10.65 3) scale(.0781)"/></g><g id="Z" transform="translate(-.05 -.1)"><use xlink:href="#bf" width="13.35" height="2.9" transform="translate(0 3) scale(.0781)"/><use xlink:href="#bu" width="13.35" height="2.9" transform="translate(2.45 3) scale(.0781)"/><use xlink:href="#bh" width="13.35" height="2.9" transform="translate(5.35 3) scale(.0781)"/><use xlink:href="#bc" width="13.35" height="2.9" transform="translate(8.25 3) scale(.0781)"/><use xlink:href="#bc" width="13.35" height="2.9" transform="translate(10.9 3) scale(.0781)"/></g></defs></svg>