<svg xmlns="http://www.w3.org/2000/svg" xml:space="preserve" fill-rule="evenodd" stroke-linejoin="round" stroke-miterlimit="2" clip-rule="evenodd" viewBox="0 0 75 53"><path fill="#b73469" d="m65.98312415 13.05381075 8.835869 8.835869v8.835869l-8.835869 8.835869h-4.4179345v-8.835869H21.7777913v-8.835869h39.78739835v-8.835869h4.4179345"/><path fill="#b73469" d="M57.0826101 8.7779373v8.777882h-8.777882l-8.777882-8.777882h-8.777882V.0000553h8.777882l8.777882 8.777882h8.777882M.0005598.0000553h13.1926403l8.777882 8.777882h8.777882v8.777882h-8.777882l-8.777882-8.777882H.0005598V.0000553M57.0826101 44.0485427v-8.777882h-8.777882l-8.777882 8.777882h-8.777882v8.777882h8.777882l8.777882-8.777882h8.777882M.0005598 52.8264247h13.1926403l8.777882-8.777882h8.777882v-8.777882h-8.777882l-8.777882 8.777882H.0005598v8.777882"/></svg>